<svg width="16" height="12" viewBox="0 0 16 12" fill="none" xmlns="http://www.w3.org/2000/svg">
<path fill-rule="evenodd" clip-rule="evenodd" d="M15 2H8C7.448 2 7 1.552 7 1C7 0.448 7.448 0 8 0H15C15.552 0 16 0.448 16 1C16 1.553 15.552 2 15 2ZM8 11.981H1C0.448 11.981 0 11.533 0 10.981C0 10.429 0.448 9.981 1 9.981H8C8.552 9.981 9 10.429 9 10.981C9 11.533 8.552 11.981 8 11.981ZM1 6.981H15C15.552 6.981 16 6.533 16 5.981C16 5.429 15.552 4.981 15 4.981H1C0.448 4.981 0 5.429 0 5.981C0 6.533 0.448 6.981 1 6.981Z" fill="white"/>
</svg>
