<svg viewBox="0 0 18 19" fill="none" xmlns="http://www.w3.org/2000/svg">
<path d="M16.9376 12.6875L15.2501 11V8.125C15.2481 6.57298 14.6727 5.07643 13.6344 3.92282C12.5962 2.76922 11.1683 2.03991 9.62506 1.875V0.625H8.37506V1.875C6.8361 2.05044 5.4145 2.78287 4.37832 3.93418C3.34214 5.08549 2.76298 6.57612 2.75006 8.125V11L1.06256 12.6875C1.00156 12.7426 0.95321 12.8102 0.920842 12.8857C0.888474 12.9612 0.872855 13.0429 0.875061 13.125V15C0.869536 15.0835 0.881916 15.1672 0.911372 15.2456C0.940827 15.3239 0.986678 15.395 1.04585 15.4542C1.10503 15.5134 1.17617 15.5592 1.2545 15.5887C1.33283 15.6181 1.41656 15.6305 1.50006 15.625H5.87506C5.87506 16.4538 6.2043 17.2487 6.79035 17.8347C7.3764 18.4208 8.17126 18.75 9.00006 18.75C9.82886 18.75 10.6237 18.4208 11.2098 17.8347C11.7958 17.2487 12.1251 16.4538 12.1251 15.625H16.5001C16.5836 15.6305 16.6673 15.6181 16.7456 15.5887C16.824 15.5592 16.8951 15.5134 16.9543 15.4542C17.0134 15.395 17.0593 15.3239 17.0887 15.2456C17.1182 15.1672 17.1306 15.0835 17.1251 15V13.125C17.1273 13.0429 17.1116 12.9612 17.0793 12.8857C17.0469 12.8102 16.9986 12.7426 16.9376 12.6875ZM9.00006 17.5C8.50278 17.5 8.02587 17.3025 7.67424 16.9508C7.3226 16.5992 7.12506 16.1223 7.12506 15.625H10.8751C10.8751 16.1223 10.6775 16.5992 10.3259 16.9508C9.97426 17.3025 9.49734 17.5 9.00006 17.5Z" fill="currentColor"/>
</svg>
