<svg xmlns="http://www.w3.org/2000/svg" viewBox="0 0 62 58">
    <defs>
        <linearGradient id="a" x1="0%" y1="6.301%" y2="93.699%">
            <stop offset="0%" stop-color="#B067FF"/>
            <stop offset="100%" stop-color="#581AB4"/>
        </linearGradient>
    </defs>
    <g fill="none" fill-rule="evenodd">
        <path d="M-17 77h96v-96h-96z"/>
        <path fill="url(#a)" d="M57 .28A4.727 4.727 0 0 1 61.722 5V37c0 2.368-1.758 4.316-4.034 4.652-.346 8.916-7.69 16.07-16.688 16.07-8.976 0-16.302-7.118-16.684-16H5a4.727 4.727 0 0 1-4.72-4.722V5A4.726 4.726 0 0 1 5 .28zM41 25.72c-8.426 0-15.28 6.853-15.28 15.279s6.854 15.28 15.28 15.28c8.426 0 15.28-6.854 15.28-15.28 0-8.426-6.854-15.278-15.28-15.278zm.721 7.28v7.28h7.28v1.44h-7.28V49H40.28v-7.28h-7.278v-1.44h7.278V33h1.442zM60.28 15.72H1.72V37c0 1.81 1.472 3.28 3.28 3.28h19.316C24.698 31.397 32.024 24.28 41 24.28c8.952 0 16.262 7.076 16.68 15.926a3.287 3.287 0 0 0 2.6-3.208V15.72zm0-6H1.72v4.56h58.56V9.72zm-3.28-8H5A3.284 3.284 0 0 0 1.72 5v3.28h58.56V5c0-1.807-1.47-3.28-3.28-3.28z"/>
    </g>
</svg>
