<svg viewBox="0 0 16 17" fill="none" xmlns="http://www.w3.org/2000/svg">
<path d="M14.125 4.25H10.625C10.1 4.25 9.75 4.6 9.75 5.125C9.75 5.65 10.1 6 10.625 6H14.125C14.65 6 15 5.65 15 5.125C15 4.6 14.65 4.25 14.125 4.25Z" fill="#697077"/>
<path d="M5.375 2.5C4.2375 2.5 3.275 3.2875 2.925 4.25C2.8375 4.25 2.8375 4.25 2.75 4.25H1.875C1.35 4.25 1 4.6 1 5.125C1 5.65 1.35 6 1.875 6H2.75C2.8375 6 2.8375 6 2.925 6C3.275 6.9625 4.2375 7.75 5.375 7.75C6.8625 7.75 8 6.6125 8 5.125C8 3.6375 6.8625 2.5 5.375 2.5Z" fill="#697077"/>
<path d="M1.875 13H5.375C5.9 13 6.25 12.65 6.25 12.125C6.25 11.6 5.9 11.25 5.375 11.25H1.875C1.35 11.25 1 11.6 1 12.125C1 12.65 1.35 13 1.875 13Z" fill="currentColor" />
<path d="M14.125 11.25H13.25C13.1625 11.25 13.1625 11.25 13.075 11.25C12.725 10.2 11.7625 9.5 10.625 9.5C9.1375 9.5 8 10.6375 8 12.125C8 13.6125 9.1375 14.75 10.625 14.75C11.7625 14.75 12.725 13.9625 13.075 13C13.1625 13 13.1625 13 13.25 13H14.125C14.65 13 15 12.65 15 12.125C15 11.6 14.65 11.25 14.125 11.25Z" fill="currentColor" />
</svg>
