<svg xmlns="http://www.w3.org/2000/svg" viewBox="0 0 32 32">
    <g fill="none" fill-rule="nonzero">
        <path fill="#006FCF" d="M29.333 4.667H2.667a2 2 0 0 0-2 2v18.666a2 2 0 0 0 2 2h26.666a2 2 0 0 0 2-2V6.667a2 2 0 0 0-2-2z"/>
        <path fill="#FFF" d="M7.022 16.286h1.553L7.8 14.381l-.777 1.905zm21.645-3.62h-3.98l-.97 1.048-.874-1.047h-8.444l-.777 1.714-.777-1.714H9.448v.762l-.388-.762H6.148l-2.815 6.666h3.398l.388-1.047h.97l.388 1.047h3.786v-.762l.291.762h1.941l.292-.857v.857h7.765l.97-1.047.874 1.047h3.98L25.851 16l2.815-3.333zm-11.745 5.715h-1.068v-3.714l-1.65 3.714h-.97l-1.65-3.714v3.714H9.35l-.388-1.048h-2.33l-.388 1.048H4.983l2.038-4.762h1.65l1.844 4.476v-4.476h1.844l1.456 3.238 1.359-3.238h1.844v4.762h-.096zm9.61 0h-1.457l-1.262-1.62-1.456 1.62H17.99v-4.762h4.465l1.359 1.524 1.456-1.524h1.358L24.493 16l2.038 2.38zm-7.475-3.81v.858h2.427v.952h-2.427v.952h2.718l1.262-1.428-1.164-1.334h-2.816z"/>
    </g>
</svg>
