<svg viewBox="0 0 64 64" fill="none" xmlns="http://www.w3.org/2000/svg">
<path d="M8.5 37.5V9.5C8.5 7.291 10.291 5.5 12.5 5.5H52.5C54.709 5.5 56.5 7.291 56.5 9.5V29.5" stroke="currentColor" stroke-miterlimit="10" stroke-linecap="round" stroke-linejoin="round"/>
<path d="M30.5 11.5H34.5" stroke="currentColor" stroke-miterlimit="10" stroke-linecap="round" stroke-linejoin="round"/>
<path d="M32.5 43.5H2.5C2.5 47.918 6.082 51.5 10.5 51.5H32.5" stroke="currentColor" stroke-miterlimit="10" stroke-linecap="round" stroke-linejoin="round"/>
<path d="M50.5 43.5V51.5" stroke="#6E32C9" stroke-miterlimit="10" stroke-linecap="round" stroke-linejoin="round"/>
<path d="M46.5 47.5H54.5" stroke="#6E32C9" stroke-miterlimit="10" stroke-linecap="round" stroke-linejoin="round"/>
<path d="M50.5 59.5C57.1274 59.5 62.5 54.1274 62.5 47.5C62.5 40.8726 57.1274 35.5 50.5 35.5C43.8726 35.5 38.5 40.8726 38.5 47.5C38.5 54.1274 43.8726 59.5 50.5 59.5Z" stroke="#6E32C9" stroke-miterlimit="10" stroke-linecap="round" stroke-linejoin="round"/>
</svg>
