<svg viewBox="0 0 33 32" fill="none" xmlns="http://www.w3.org/2000/svg">
<path d="M27.7886 21.0045C27.1712 22.3718 26.8765 22.982 26.0815 24.19C24.9739 25.8769 23.4111 27.978 21.4746 27.9958C19.7544 28.0119 19.3123 26.8764 16.9771 26.89C14.6419 26.9037 14.1553 28.016 12.4351 28C10.4986 27.9828 9.01904 26.0855 7.91027 24.3974C4.81093 19.6794 4.48709 14.1433 6.39862 11.2002C7.75696 9.10746 9.90083 7.8846 11.9158 7.8846C13.9675 7.8846 15.2575 9.00941 16.9546 9.00941C18.6005 9.00941 19.6029 7.88281 21.9755 7.88281C23.7688 7.88281 25.6691 8.85908 27.0233 10.546C22.5864 12.9769 23.3077 19.3104 27.7886 21.0045Z" fill="currentColor"/>
<path d="M20.4259 4.93072C21.288 3.82432 21.9417 2.26336 21.704 0.666748C20.2957 0.763008 18.6498 1.65906 17.6884 2.82666C16.8155 3.88612 16.0948 5.45777 16.3752 6.98546C17.9112 7.03359 19.5019 6.11555 20.4259 4.93072Z" fill="currentColor"/>
</svg>
