<svg viewBox="0 0 16 17" fill="none" xmlns="http://www.w3.org/2000/svg">
<path d="M6.25 1.5H1.875C1.64294 1.5 1.42038 1.59219 1.25628 1.75628C1.09219 1.92038 1 2.14294 1 2.375L1 6.75C1 6.98206 1.09219 7.20462 1.25628 7.36872C1.42038 7.53281 1.64294 7.625 1.875 7.625H6.25C6.48206 7.625 6.70462 7.53281 6.86872 7.36872C7.03281 7.20462 7.125 6.98206 7.125 6.75V2.375C7.125 2.14294 7.03281 1.92038 6.86872 1.75628C6.70462 1.59219 6.48206 1.5 6.25 1.5V1.5ZM5.375 5.875H2.75V3.25H5.375V5.875Z" fill="#697077"/>
<path d="M14.125 9.375H9.75C9.51794 9.375 9.29538 9.46719 9.13128 9.63128C8.96719 9.79538 8.875 10.0179 8.875 10.25V14.625C8.875 14.8571 8.96719 15.0796 9.13128 15.2437C9.29538 15.4078 9.51794 15.5 9.75 15.5H14.125C14.3571 15.5 14.5796 15.4078 14.7437 15.2437C14.9078 15.0796 15 14.8571 15 14.625V10.25C15 10.0179 14.9078 9.79538 14.7437 9.63128C14.5796 9.46719 14.3571 9.375 14.125 9.375ZM13.25 13.75H10.625V11.125H13.25V13.75Z" fill="#697077"/>
<path d="M6.25 9.375H1.875C1.64294 9.375 1.42038 9.46719 1.25628 9.63128C1.09219 9.79538 1 10.0179 1 10.25L1 14.625C1 14.8571 1.09219 15.0796 1.25628 15.2437C1.42038 15.4078 1.64294 15.5 1.875 15.5H6.25C6.48206 15.5 6.70462 15.4078 6.86872 15.2437C7.03281 15.0796 7.125 14.8571 7.125 14.625V10.25C7.125 10.0179 7.03281 9.79538 6.86872 9.63128C6.70462 9.46719 6.48206 9.375 6.25 9.375ZM5.375 13.75H2.75V11.125H5.375V13.75Z" fill="#697077"/>
<path d="M11.9373 7.62506C11.7053 7.62501 11.4827 7.53279 11.3187 7.36868L9.13119 5.18118C8.96715 5.0171 8.875 4.79458 8.875 4.56256C8.875 4.33054 8.96715 4.10802 9.13119 3.94393L11.3187 1.75643C11.4828 1.5924 11.7053 1.50024 11.9373 1.50024C12.1693 1.50024 12.3919 1.5924 12.5559 1.75643L14.7434 3.94393C14.9075 4.10802 14.9996 4.33054 14.9996 4.56256C14.9996 4.79458 14.9075 5.0171 14.7434 5.18118L12.5559 7.36868C12.3919 7.53279 12.1694 7.62501 11.9373 7.62506Z" fill="currentColor" />
</svg>
