<svg viewBox="0 0 16 16" fill="none" xmlns="http://www.w3.org/2000/svg">
<path fill-rule="evenodd" clip-rule="evenodd" d="M13 2H11V1H10V2H6V1H5V2H3C2.44772 2 2 2.44772 2 3V13C2 13.5523 2.44772 14 3 14H13C13.5523 14 14 13.5523 14 13V3C14 2.44772 13.5523 2 13 2ZM13 13H3V6H13V13ZM13 5H3V3H5V4H6V3H10V4H11V3H13V5Z" fill="currentColor"/>
<mask id="mask0" mask-type="alpha" maskUnits="userSpaceOnUse" x="2" y="1" width="12" height="13">
<path fill-rule="evenodd" clip-rule="evenodd" d="M13 2H11V1H10V2H6V1H5V2H3C2.44772 2 2 2.44772 2 3V13C2 13.5523 2.44772 14 3 14H13C13.5523 14 14 13.5523 14 13V3C14 2.44772 13.5523 2 13 2ZM13 13H3V6H13V13ZM13 5H3V3H5V4H6V3H10V4H11V3H13V5Z" />
</mask>
<g mask="url(#mask0)">
</g>
</svg>
