<svg viewBox="0 0 32 32" fill="none" xmlns="http://www.w3.org/2000/svg">
<path d="M22 11H26C26.2652 11 26.5196 11.1054 26.7071 11.2929C26.8946 11.4804 27 11.7348 27 12V14H21V12C21 11.7348 21.1054 11.4804 21.2929 11.2929C21.4804 11.1054 21.7348 11 22 11Z" fill="currentColor"/>
<path d="M24 10C25.1046 10 26 9.10457 26 8C26 6.89543 25.1046 6 24 6C22.8954 6 22 6.89543 22 8C22 9.10457 22.8954 10 24 10Z" fill="currentColor"/>
<path d="M30 18H18C17.4697 17.9995 16.9613 17.7886 16.5864 17.4136C16.2114 17.0387 16.0005 16.5303 16 16V4C16.0005 3.46973 16.2114 2.96133 16.5864 2.58637C16.9613 2.21141 17.4697 2.00053 18 2H30C30.5303 2.00053 31.0387 2.21141 31.4136 2.58637C31.7886 2.96133 31.9995 3.46973 32 4V16C31.9992 16.5302 31.7882 17.0384 31.4133 17.4133C31.0384 17.7882 30.5302 17.9992 30 18ZM18 4V16H30.001L30 4H18Z" fill="currentColor"/>
<path d="M15 30H13V26C13.0073 25.604 12.9347 25.2106 12.7866 24.8433C12.6384 24.4761 12.4177 24.1424 12.1376 23.8624C11.8576 23.5823 11.524 23.3616 11.1567 23.2134C10.7894 23.0653 10.396 22.9927 10 23H6C5.60402 22.9927 5.21063 23.0653 4.84334 23.2134C4.47605 23.3616 4.14241 23.5823 3.86236 23.8624C3.58231 24.1424 3.3616 24.4761 3.21343 24.8433C3.06526 25.2106 2.99267 25.604 3 26V30H1V26C0.993451 25.3416 1.11831 24.6884 1.36726 24.0789C1.61622 23.4693 1.98427 22.9155 2.44987 22.4499C2.91547 21.9843 3.46928 21.6162 4.07886 21.3673C4.68845 21.1183 5.34157 20.9935 6 21H10C10.6584 20.9935 11.3116 21.1183 11.9211 21.3673C12.5307 21.6162 13.0845 21.9843 13.5501 22.4499C14.0157 22.9155 14.3838 23.4693 14.6327 24.0789C14.8817 24.6884 15.0066 25.3416 15 26V30Z" fill="currentColor"/>
<path d="M8 11C8.79565 11 9.55871 11.3161 10.1213 11.8787C10.6839 12.4413 11 13.2044 11 14C11 14.7956 10.6839 15.5587 10.1213 16.1213C9.55871 16.6839 8.79565 17 8 17C7.20435 17 6.44129 16.6839 5.87868 16.1213C5.31607 15.5587 5 14.7956 5 14C5 13.2044 5.31607 12.4413 5.87868 11.8787C6.44129 11.3161 7.20435 11 8 11ZM8 9C6.67392 9 5.40215 9.52678 4.46447 10.4645C3.52678 11.4021 3 12.6739 3 14C3 15.3261 3.52678 16.5979 4.46447 17.5355C5.40215 18.4732 6.67392 19 8 19C9.32608 19 10.5979 18.4732 11.5355 17.5355C12.4732 16.5979 13 15.3261 13 14C13 12.6739 12.4732 11.4021 11.5355 10.4645C10.5979 9.52678 9.32608 9 8 9Z" fill="currentColor"/>
</svg>
