<svg viewBox="0 0 32 32" fill="none" xmlns="http://www.w3.org/2000/svg">
<path fill-rule="evenodd" clip-rule="evenodd" d="M16 23.9995L9.91 15.4095C8.7 13.9995 8 12.1095 8 10.1495C8 5.66953 11.59 2.01953 16 2.01953C20.41 2.01953 24 5.66953 24 10.1495C24 12.0195 23.36 13.8395 22.2 15.2795L16 23.9995ZM16 4.01953C12.69 4.01953 10 6.76953 10 10.1495C10 11.6295 10.53 13.0595 11.49 14.1795L16 20.5495L20.63 14.0595C21.51 12.9695 22 11.5795 22 10.1595C22 6.76953 19.31 4.01953 16 4.01953ZM16 11.0195C17.1046 11.0195 18 10.1241 18 9.01953C18 7.91496 17.1046 7.01953 16 7.01953C14.8954 7.01953 14 7.91496 14 9.01953C14 10.1241 14.8954 11.0195 16 11.0195ZM26 11.9995H28C29.1 11.9995 30 12.8995 30 13.9995V27.9995C30 29.0995 29.1 29.9995 28 29.9995H4C2.9 29.9995 2 29.0995 2 27.9995V13.9995C2 12.8995 2.9 11.9995 4 11.9995H6V13.9995H4V27.9995H28V13.9995H26V11.9995Z" fill="currentColor"/>
</svg>
