<svg viewBox="0 0 32 32" fill="none" xmlns="http://www.w3.org/2000/svg">
<path fill-rule="evenodd" clip-rule="evenodd" d="M4 6H28V26H4V6ZM28 4H4C2.9 4 2 4.9 2 6V26C2 27.1 2.9 28 4 28H28C29.1 28 30 27.1 30 26V6C30 4.9 29.1 4 28 4ZM13 10H6V12H13V10ZM6 14H10V16H6V14ZM26 21C26 19.34 24.66 18 23 18H17C15.34 18 14 19.34 14 21V23H16V21C16 20.45 16.45 20 17 20H23C23.55 20 24 20.45 24 21V23H26V21ZM24 13C24 15.21 22.21 17 20 17C17.79 17 16 15.21 16 13C16 10.79 17.79 9 20 9C22.21 9 24 10.79 24 13ZM22 13C22 11.9 21.1 11 20 11C18.9 11 18 11.9 18 13C18 14.1 18.9 15 20 15C21.1 15 22 14.1 22 13Z" fill="currentColor"/>
</svg>
