<svg viewBox="0 0 32 32" fill="none" xmlns="http://www.w3.org/2000/svg">
<path d="M16 2C8.27 2 2 8.27 2 16C2 23.73 8.27 30 16 30C23.73 30 30 23.73 30 16C30 8.27 23.73 2 16 2ZM27.95 15H21.96C21.85 11.32 20.91 7.71 19.21 4.45C24.04 5.8 27.52 10 27.95 15ZM16 28C15.78 28 15.55 27.99 15.33 27.96C13.28 24.67 12.14 20.88 12.03 17H19.96C19.86 20.88 18.72 24.66 16.66 27.96C16.45 27.99 16.22 28 16 28ZM12.03 15C12.13 11.12 13.27 7.34 15.33 4.04C15.78 3.98 16.23 3.98 16.67 4.04C18.72 7.33 19.86 11.12 19.97 15H12.03ZM12.79 4.45C11.09 7.71 10.14 11.32 10.04 15H4.05C4.48 10 7.96 5.8 12.79 4.45ZM4.05 17H10.04C10.15 20.68 11.09 24.29 12.79 27.55C7.96 26.2 4.48 22 4.05 17ZM19.21 27.55C20.91 24.29 21.86 20.68 21.96 17H27.95C27.52 22 24.04 26.2 19.21 27.55Z" fill="currentColor"/>
</svg>
