<svg viewBox="0 0 48 48" fill="none" xmlns="http://www.w3.org/2000/svg">
<path d="M44 27H4L1 23L5 19H43L47 23L44 27Z" fill="#003D73"/>
<path d="M41 47H7C5.895 47 5 46.105 5 45V3C5 1.895 5.895 1 7 1H31L43 13V45C43 46.105 42.105 47 41 47Z" fill="currentColor"/>
<path d="M31 1V11C31 12.105 31.895 13 33 13H43L31 1Z" fill="#B9BFC7"/>
<path d="M45 41H3C1.895 41 1 40.105 1 39V23H47V39C47 40.105 46.105 41 45 41Z" fill="#0072C3"/>
<path d="M15.5491 31.907C15.5491 33.218 15.1881 34.227 14.4661 34.936C13.7441 35.646 12.7301 36 11.4241 36H8.88306V28.147H11.6011C12.8621 28.147 13.8341 28.469 14.5201 29.114C15.2061 29.759 15.5491 30.689 15.5491 31.907ZM13.3461 31.982C13.3461 31.262 13.2041 30.729 12.9191 30.381C12.6351 30.033 12.2021 29.86 11.6221 29.86H11.0041V34.258H11.4771C12.1221 34.258 12.5941 34.07 12.8951 33.696C13.1961 33.322 13.3461 32.752 13.3461 31.982Z" fill="white"/>
<path d="M24.303 32.0619C24.303 33.3839 23.979 34.3879 23.331 35.0759C22.683 35.7639 21.734 36.1069 20.484 36.1069C19.252 36.1069 18.308 35.7609 17.65 35.0699C16.994 34.3799 16.666 33.3729 16.666 32.0519C16.666 30.7439 16.992 29.7459 17.646 29.0569C18.298 28.3679 19.249 28.0229 20.495 28.0229C21.744 28.0229 22.691 28.3659 23.336 29.0489C23.981 29.7319 24.303 30.7379 24.303 32.0619ZM18.9 32.0619C18.9 33.5809 19.427 34.3389 20.484 34.3389C21.021 34.3389 21.42 34.1549 21.679 33.7859C21.938 33.4169 22.068 32.8429 22.068 32.0609C22.068 31.2779 21.937 30.6979 21.673 30.3239C21.409 29.9499 21.017 29.7619 20.494 29.7619C19.432 29.7639 18.9 30.5299 18.9 32.0619Z" fill="white"/>
<path d="M29.218 29.775C28.713 29.775 28.319 29.981 28.036 30.395C27.754 30.808 27.611 31.378 27.611 32.105C27.611 33.617 28.186 34.373 29.336 34.373C29.684 34.373 30.02 34.324 30.346 34.227C30.672 34.13 30.999 34.014 31.328 33.878V35.671C30.674 35.962 29.932 36.107 29.105 36.107C27.919 36.107 27.011 35.763 26.378 35.076C25.746 34.388 25.431 33.394 25.431 32.096C25.431 31.283 25.583 30.569 25.89 29.952C26.197 29.335 26.636 28.862 27.21 28.531C27.786 28.2 28.462 28.035 29.238 28.035C30.087 28.035 30.897 28.219 31.671 28.588L31.022 30.258C30.732 30.122 30.442 30.008 30.152 29.914C29.862 29.821 29.551 29.775 29.218 29.775Z" fill="white"/>
<path d="M39.934 36H37.479L35.948 33.545L34.434 36H32.033L34.637 31.982L32.188 28.147H34.542L35.96 30.575L37.323 28.147H39.746L37.259 32.148L39.934 36Z" fill="white"/>
</svg>
