<svg viewBox="0 0 16 16" fill="none" xmlns="http://www.w3.org/2000/svg">
<path fill-rule="evenodd" clip-rule="evenodd" d="M8 15C11.866 15 15 11.866 15 8C15 4.13401 11.866 1 8 1C4.13401 1 1 4.13401 1 8C1 11.866 4.13401 15 8 15Z" fill="currentColor"/>
<path fill-rule="evenodd" clip-rule="evenodd" d="M8.565 4H7.44V9.5H8.565V4ZM8.75 11.75C8.75 12.1642 8.41421 12.5 8 12.5C7.58579 12.5 7.25 12.1642 7.25 11.75C7.25 11.3358 7.58579 11 8 11C8.41421 11 8.75 11.3358 8.75 11.75Z" fill="white"/>
<mask id="mask0" mask-type="alpha" maskUnits="userSpaceOnUse" x="7" y="4" width="2" height="9">
<path fill-rule="evenodd" clip-rule="evenodd" d="M8.565 4H7.44V9.5H8.565V4ZM8.75 11.75C8.75 12.1642 8.41421 12.5 8 12.5C7.58579 12.5 7.25 12.1642 7.25 11.75C7.25 11.3358 7.58579 11 8 11C8.41421 11 8.75 11.3358 8.75 11.75Z" fill="white"/>
</mask>
<g mask="url(#mask0)">
</g>
</svg>
