<svg viewBox="0 0 49 56" fill="none" xmlns="http://www.w3.org/2000/svg">
<path d="M47.3671 5.12026L24.458 0.0293554C24.276 -0.0101107 24.0876 -0.0101107 23.9056 0.0293554L0.996546 5.12026C0.413882 5.24979 -0.000493971 5.76683 4.41957e-07 6.36372V31.8183C4.41957e-07 45.1735 10.8266 56.0001 24.1818 56.0001C37.5371 56.0001 48.3636 45.1735 48.3636 31.8183V6.36372C48.3641 5.76683 47.9498 5.24979 47.3671 5.12026Z" fill="#C9DEFF"/>
<path d="M47.2996 5.09739L24.3905 0.00648339C24.321 0.000768557 24.2512 0.000768557 24.1818 0.00648339V55.9734C37.5048 55.9223 48.2822 45.1147 48.2961 31.7916V6.33703C48.2948 5.74157 47.8808 5.22661 47.2996 5.09739Z" fill="#97C1FF"/>
<path fill-rule="evenodd" clip-rule="evenodd" d="M30.5455 25.4546H34.3637C35.0666 25.4546 35.6364 26.0244 35.6364 26.7273V39.4546C35.6364 40.1575 35.0666 40.7273 34.3637 40.7273H14C13.2971 40.7273 12.7273 40.1575 12.7273 39.4546V26.7273C12.7273 26.0244 13.2971 25.4546 14 25.4546H17.8182V19.0909C17.8182 15.5764 20.6673 12.7273 24.1818 12.7273C27.6964 12.7273 30.5455 15.5764 30.5455 19.0909V25.4546ZM20.3637 19.0909V25.4546H28V19.0909C28 16.9822 26.2906 15.2727 24.1818 15.2727C22.0731 15.2727 20.3637 16.9822 20.3637 19.0909Z" fill="#034ADA"/>
</svg>
