<svg viewBox="0 0 90 84" fill="none" xmlns="http://www.w3.org/2000/svg">
<path d="M42.5001 60.7292C17.3649 60.7292 1.01235 32.6154 0.329312 31.4271C0.156045 31.1226 0.0649414 30.7782 0.0649414 30.4278C0.0649414 30.0774 0.156045 29.733 0.329312 29.4285C1.00427 28.2241 17.2396 0.104187 42.5001 0.104187C67.6332 0.104187 83.9878 28.218 84.6708 29.4063C84.8463 29.7123 84.9386 30.0589 84.9386 30.4116C84.9386 30.7644 84.8463 31.111 84.6708 31.417C83.9777 32.6214 67.5038 60.7292 42.5001 60.7292Z" fill="#CCDDF8"/>
<path d="M42.4999 52.6458C54.7768 52.6458 64.7291 42.6935 64.7291 30.4167C64.7291 18.1398 54.7768 8.1875 42.4999 8.1875C30.2231 8.1875 20.2708 18.1398 20.2708 30.4167C20.2708 42.6935 30.2231 52.6458 42.4999 52.6458Z" fill="#6598E9"/>
<path d="M42.5 42.5417C49.1965 42.5417 54.625 37.1131 54.625 30.4167C54.625 23.7202 49.1965 18.2917 42.5 18.2917C35.8035 18.2917 30.375 23.7202 30.375 30.4167C30.375 37.1131 35.8035 42.5417 42.5 42.5417Z" fill="#0153DA"/>
<path d="M33.4063 28.3959C36.1965 28.3959 38.4584 26.134 38.4584 23.3438C38.4584 20.5536 36.1965 18.2917 33.4063 18.2917C30.6161 18.2917 28.3542 20.5536 28.3542 23.3438C28.3542 26.134 30.6161 28.3959 33.4063 28.3959Z" fill="white"/>
<path d="M89.2238 78.9167L77.5171 67.21C80.1696 63.4826 81.3247 58.8946 80.7535 54.3556C80.1823 49.8165 77.9264 45.6578 74.4331 42.7038C70.9398 39.7499 66.464 38.2163 61.8932 38.4071C57.3223 38.598 52.99 40.4993 49.7551 43.7342C46.5202 46.9691 44.6189 51.3014 44.428 55.8723C44.2372 60.4432 45.7707 64.9189 48.7247 68.4122C51.6787 71.9055 55.8374 74.1614 60.3765 74.7326C64.9155 75.3038 69.5035 74.1487 73.2309 71.4962L84.9376 83.2029L89.2238 78.9167Z" fill="#3376E2"/>
<path d="M62.7083 70.8333C70.5209 70.8333 76.8542 64.5 76.8542 56.6875C76.8542 48.875 70.5209 42.5417 62.7083 42.5417C54.8958 42.5417 48.5625 48.875 48.5625 56.6875C48.5625 64.5 54.8958 70.8333 62.7083 70.8333Z" fill="#99BBF1"/>
</svg>
