<svg viewBox="0 0 44 44" fill="none" xmlns="http://www.w3.org/2000/svg">
<path d="M2.29303 14.707C2.68353 15.0974 3.31653 15.0974 3.70703 14.707L9.00003 9.41398L14.293 14.707C14.6854 15.086 15.3091 15.0805 15.6948 14.6948C16.0806 14.3091 16.086 13.6854 15.707 13.293L10.414 7.99998L15.707 2.70698C15.967 2.45591 16.0712 2.08411 15.9797 1.73448C15.8882 1.38485 15.6152 1.1118 15.2655 1.02029C14.9159 0.928771 14.5441 1.03303 14.293 1.29298L9.00003 6.58598L3.70703 1.29298C3.31465 0.914012 2.69095 0.919432 2.30521 1.30517C1.91948 1.6909 1.91406 2.3146 2.29303 2.70698L7.58603 7.99998L2.29303 13.293C1.90265 13.6835 1.90265 14.3165 2.29303 14.707Z" fill="#C9DEFF"/>
<path d="M42.707 28.293C42.3165 27.9026 41.6835 27.9026 41.293 28.293L36 33.586L30.707 28.293C30.3146 27.9141 29.6909 27.9195 29.3052 28.3052C28.9194 28.6909 28.914 29.3147 29.293 29.707L34.586 35L29.293 40.293C29.033 40.5441 28.9288 40.9159 29.0203 41.2655C29.1118 41.6152 29.3848 41.8882 29.7345 41.9797C30.0841 42.0712 30.4559 41.967 30.707 41.707L36 36.414L41.293 41.707C41.6854 42.086 42.3091 42.0806 42.6948 41.6948C43.0805 41.3091 43.086 40.6854 42.707 40.293L37.414 35L42.707 29.707C43.0974 29.3165 43.0974 28.6835 42.707 28.293Z" fill="#C9DEFF"/>
<path d="M9 44C13.9706 44 18 39.9706 18 35C18 30.0294 13.9706 26 9 26C4.02944 26 0 30.0294 0 35C0 39.9706 4.02944 44 9 44Z" fill="#97C1FF"/>
<path d="M43 0H29C28.5956 8.6348e-05 28.2311 0.243728 28.0763 0.617345C27.9216 0.990963 28.0071 1.42101 28.293 1.707L34.586 8L20.293 22.293C20.033 22.5441 19.9288 22.9159 20.0203 23.2655C20.1118 23.6151 20.3848 23.8882 20.7345 23.9797C21.0841 24.0712 21.4559 23.967 21.707 23.707L36 9.414L42.293 15.707C42.579 15.9929 43.009 16.0784 43.3826 15.9237C43.7563 15.7689 43.9999 15.4044 44 15V1C44 0.447715 43.5523 0 43 0Z" fill="#034ADA"/>
</svg>
