<svg viewBox="0 0 81 93" fill="none" xmlns="http://www.w3.org/2000/svg">
<path d="M50.6251 56.6042H2.12508C1.00811 56.6042 0.104248 55.6993 0.104248 54.5833C0.104248 53.4673 1.00811 52.5625 2.12508 52.5625H50.6251C51.7421 52.5625 52.6459 53.4673 52.6459 54.5833C52.6459 55.6993 51.7421 56.6042 50.6251 56.6042Z" fill="#BA66DD"/>
<path d="M78.9168 72.7708H26.3751C25.2581 72.7708 24.3542 71.866 24.3542 70.75V22.25C24.3542 21.134 25.2581 20.2291 26.3751 20.2291H78.9168C79.566 20.2291 80.1758 20.5409 80.5567 21.0688C80.9356 21.5958 81.0402 22.2727 80.833 22.8894L72.9628 46.5L80.833 70.1105C81.0402 70.7273 80.9356 71.4042 80.5567 71.9311C80.1758 72.459 79.566 72.7708 78.9168 72.7708Z" fill="#6598E9"/>
<path d="M26.3751 72.7708C26.0475 72.7708 25.7199 72.6918 25.4219 72.532C24.7647 72.1797 24.3542 71.4949 24.3542 70.75V22.25C24.3542 21.134 25.2581 20.2291 26.3751 20.2291H50.6251C51.7421 20.2291 52.6459 21.134 52.6459 22.25V54.5833C52.6459 55.2592 52.3085 55.8897 51.746 56.2647L27.496 72.4313C27.1586 72.6563 26.7678 72.7708 26.3751 72.7708Z" fill="#99BBF1"/>
<path d="M50.6251 56.6042H2.12508C1.00811 56.6042 0.104248 55.6993 0.104248 54.5833V6.08333C0.104248 4.96733 1.00811 4.0625 2.12508 4.0625H50.6251C51.7421 4.0625 52.6459 4.96733 52.6459 6.08333V54.5833C52.6459 55.6993 51.7421 56.6042 50.6251 56.6042Z" fill="#CCDDF8"/>
<path d="M2.12508 92.9792C1.00811 92.9792 0.104248 92.0743 0.104248 90.9583V2.04165C0.104248 0.925641 1.00811 0.020813 2.12508 0.020813C3.24206 0.020813 4.14592 0.925641 4.14592 2.04165V90.9583C4.14592 92.0743 3.24206 92.9792 2.12508 92.9792Z" fill="#6598E9"/>
</svg>
