<svg viewBox="0 0 81 69" fill="none" xmlns="http://www.w3.org/2000/svg">
<path d="M50.6251 52.5417H2.12508C1.00811 52.5417 0.104248 51.6368 0.104248 50.5208C0.104248 49.4048 1.00811 48.5 2.12508 48.5H50.6251C51.7421 48.5 52.6459 49.4048 52.6459 50.5208C52.6459 51.6368 51.7421 52.5417 50.6251 52.5417Z" fill="#BA66DD"/>
<path d="M78.9168 68.7083H26.3751C25.2581 68.7083 24.3542 67.8035 24.3542 66.6875V18.1875C24.3542 17.0715 25.2581 16.1667 26.3751 16.1667H78.9168C79.566 16.1667 80.1758 16.4785 80.5567 17.0064C80.9356 17.5333 81.0402 18.2102 80.833 18.8269L72.9628 42.4375L80.833 66.0481C81.0402 66.6648 80.9356 67.3417 80.5567 67.8686C80.1758 68.3965 79.566 68.7083 78.9168 68.7083Z" fill="#85A9FF"/>
<path d="M26.3751 68.7083C26.0475 68.7083 25.7199 68.6294 25.4219 68.4696C24.7647 68.1173 24.3542 67.4325 24.3542 66.6875V18.1875C24.3542 17.0715 25.2581 16.1667 26.3751 16.1667H50.6251C51.7421 16.1667 52.6459 17.0715 52.6459 18.1875V50.5208C52.6459 51.1968 52.3085 51.8273 51.746 52.2022L27.496 68.3689C27.1586 68.5939 26.7678 68.7083 26.3751 68.7083Z" fill="#99BBF1"/>
<path d="M50.6251 52.5417H2.12508C1.00811 52.5417 0.104248 51.6368 0.104248 50.5208V2.02083C0.104248 0.904828 1.00811 0 2.12508 0H50.6251C51.7421 0 52.6459 0.904828 52.6459 2.02083V50.5208C52.6459 51.6368 51.7421 52.5417 50.6251 52.5417Z" fill="#CCDDF8"/>
</svg>
