<svg viewBox="0 0 42 42" fill="none" xmlns="http://www.w3.org/2000/svg">
<path fill-rule="evenodd" clip-rule="evenodd" d="M20.293 37.707C20.4805 37.8946 20.7348 38 21 38C21.2652 38 21.5195 37.8946 21.707 37.707L37.707 21.707C38.0974 21.3165 38.0974 20.6835 37.707 20.293L21.707 4.29303C21.3165 3.90265 20.6835 3.90265 20.293 4.29303L4.29303 20.293C3.90265 20.6835 3.90265 21.3165 4.29303 21.707L20.293 37.707ZM21 35.586L6.41403 21L21 6.41403L35.586 21L21 35.586Z" fill="#D0B0FF"/>
<path d="M5 10C7.76142 10 10 7.76142 10 5C10 2.23858 7.76142 0 5 0C2.23858 0 0 2.23858 0 5C0.00330612 7.76005 2.23995 9.99669 5 10Z" fill="#8A3FFC"/>
<path d="M37 10C39.7614 10 42 7.76142 42 5C42 2.23858 39.7614 0 37 0C34.2386 0 32 2.23858 32 5C32.0033 7.76005 34.2399 9.99669 37 10Z" fill="#8A3FFC"/>
<path d="M21 16C18.2386 16 16 18.2386 16 21C16 23.7614 18.2386 26 21 26C23.7614 26 26 23.7614 26 21C25.9967 18.2399 23.7601 16.0033 21 16V16Z" fill="#8A3FFC"/>
<path d="M5 32C2.23858 32 0 34.2386 0 37C0 39.7614 2.23858 42 5 42C7.76142 42 10 39.7614 10 37C9.99669 34.2399 7.76005 32.0033 5 32Z" fill="#8A3FFC"/>
<path d="M37 32C34.2386 32 32 34.2386 32 37C32 39.7614 34.2386 42 37 42C39.7614 42 42 39.7614 42 37C41.9967 34.2399 39.7601 32.0033 37 32Z" fill="#8A3FFC"/>
<rect x="32" y="16" width="10" height="10" rx="2" fill="#D0B0FF"/>
<rect y="16" width="10" height="10" rx="2" fill="#D0B0FF"/>
<rect x="16" width="10" height="10" rx="2" fill="#D0B0FF"/>
<rect x="16" y="32" width="10" height="10" rx="2" fill="#D0B0FF"/>
</svg>
