<svg viewBox="0 0 46 46" fill="none" xmlns="http://www.w3.org/2000/svg">
<path d="M44 29H2C0.895 29 0 28.105 0 27V2C0 0.895 0.895 0 2 0H44C45.105 0 46 0.895 46 2V27C46 28.105 45.105 29 44 29Z" fill="#C9DEFF"/>
<path d="M37 24L11 15L19 42L24 33L36 45L40 41L28 29L37 24Z" fill="#034ADA"/>
<path fill-rule="evenodd" clip-rule="evenodd" d="M35.293 45.7069C35.488 45.9019 35.744 45.9999 36 45.9999C36.256 45.9999 36.512 45.9019 36.707 45.7059L40.707 41.7059C41.098 41.3149 41.098 40.6829 40.707 40.2919L29.645 29.2299L37.486 24.8739C37.831 24.6829 38.031 24.3059 37.997 23.9129C37.963 23.5199 37.701 23.1839 37.328 23.0549L11.328 14.0549C10.972 13.9319 10.58 14.0169 10.309 14.2769C10.038 14.5359 9.93502 14.9249 10.041 15.2839L18.041 42.2839C18.156 42.6699 18.491 42.9499 18.891 42.9939C19.295 43.0339 19.679 42.8369 19.874 42.4859L24.23 34.6449L35.293 45.7069ZM24.707 32.2929C24.519 32.1039 24.264 31.9999 24 31.9999C23.954 31.9999 23.907 32.0029 23.862 32.0109C23.552 32.0539 23.279 32.2409 23.127 32.5149L19.283 39.4329L12.512 16.5819L34.558 24.2129L27.515 28.1259C27.24 28.2779 27.053 28.5499 27.01 28.8609C26.966 29.1719 27.071 29.4849 27.293 29.7069L38.586 40.9999L36 43.5859L24.707 32.2929Z" fill="white"/>
</svg>
