<?xml version="1.0" encoding="UTF-8"?>
<svg viewBox="0 0 50 50" version="1.1" xmlns="http://www.w3.org/2000/svg" xmlns:xlink="http://www.w3.org/1999/xlink">
    <!-- Generator: Sketch 60 (88103) - https://sketch.com -->
    <title>Icon 2@1x</title>
    <desc>Created with Sketch.</desc>
    <g id="Designs" stroke="none" stroke-width="1" fill="none" fill-rule="evenodd">
        <g id="Endpass-Intro" transform="translate(-540.000000, -873.000000)" fill-rule="nonzero">
            <g id="Icon-2" transform="translate(540.000000, 873.000000)">
                <path d="M5.16667,0.5 L44.8333,0.5 C47.4,0.5 49.5,2.6 49.5,5.16667 L49.5,44.8333 C49.5,47.4 47.4,49.5 44.8333,49.5 L5.16667,49.5 C2.6,49.5 0.5,47.4 0.5,44.8333 L0.5,5.16667 C0.5,2.6 2.6,0.5 5.16667,0.5 Z" id="Path" fill="#C9DEFF"></path>
                <path d="M43.0834,8.6666 C44.0499,8.6666 44.8334,7.8831 44.8334,6.91663 C44.8334,5.95013 44.0499,5.16663 43.0834,5.16663 C42.1169,5.16663 41.3334,5.95013 41.3334,6.91663 C41.3334,7.8831 42.1169,8.6666 43.0834,8.6666 Z" id="Path" fill="#99BBF0"></path>
                <path d="M6.91663,8.6666 C7.8831,8.6666 8.6666,7.8831 8.6666,6.91663 C8.6666,5.95013 7.8831,5.16663 6.91663,5.16663 C5.95013,5.16663 5.16663,5.95013 5.16663,6.91663 C5.16663,7.8831 5.95013,8.6666 6.91663,8.6666 Z" id="Path" fill="#99BBF0"></path>
                <path d="M43.0834,44.8334 C44.0499,44.8334 44.8334,44.0499 44.8334,43.0834 C44.8334,42.1169 44.0499,41.3334 43.0834,41.3334 C42.1169,41.3334 41.3334,42.1169 41.3334,43.0834 C41.3334,44.0499 42.1169,44.8334 43.0834,44.8334 Z" id="Path" fill="#99BBF0"></path>
                <path d="M6.91663,44.8334 C7.8831,44.8334 8.6666,44.0499 8.6666,43.0834 C8.6666,42.1169 7.8831,41.3334 6.91663,41.3334 C5.95013,41.3334 5.16663,42.1169 5.16663,43.0834 C5.16663,44.0499 5.95013,44.8334 6.91663,44.8334 Z" id="Path" fill="#99BBF0"></path>
                <path d="M32.8167,29.3167 L32.8167,36.3167 C32.8167,37.25 32,38.0667 31.0667,38.0667 L18.9334,38.0667 C18,38.0667 17.1833,37.25 17.1833,36.3167 L17.1833,29.3167 C17.1833,31.3 18.7,32.8167 20.6834,32.8167 L29.4334,32.8167 C31.3,32.8167 32.8167,31.3 32.8167,29.3167 Z" id="Path" fill="#3376E1"></path>
                <path d="M32.8167,13.6833 L32.8167,29.4333 C32.8167,31.4167 31.3,32.9333 29.3167,32.9333 L20.5667,32.9333 C18.5833,32.9333 17.0667,31.4167 17.0667,29.4333 L17.0667,13.6833 C17.0667,12.75 17.8833,11.9333 18.8167,11.9333 L31.0667,11.9333 C32.1167,11.9333 32.8167,12.6333 32.8167,13.6833 Z" id="Path" fill="#0054DA"></path>
                <path d="M32.8167,25.8167 L32.8167,29.3166 C32.8167,31.3 31.3,32.8166 29.3167,32.8166 L20.5667,32.8166 C18.5833,32.8166 17.0667,31.3 17.0667,29.3166 L17.0667,25.8167 L32.8167,25.8167 Z" id="Path" fill="#99BBF0"></path>
                <path d="M23.25,17.1833 L26.75,17.1833 C27.2167,17.1833 27.5667,17.5334 27.5667,18 L27.5667,25.8167 L22.3167,25.8167 L22.3167,18 C22.4333,17.5334 22.7833,17.1833 23.25,17.1833 Z" id="Path" fill="#FFFFFF"></path>
            </g>
        </g>
    </g>
</svg>