<svg viewBox="0 0 69 77" fill="none" xmlns="http://www.w3.org/2000/svg">
  <path d="M0.625 12.375H53.125" stroke="#792BEF" stroke-miterlimit="10"/>
  <path d="M0.625 62.375H30.625" stroke="#792BEF" stroke-miterlimit="10" stroke-linecap="square"/>
  <path d="M35.625 76.125H6.875C5.2174 76.125 3.62769 75.4665 2.45558 74.2944C1.28348 73.1223 0.625 71.5326 0.625 69.875V7.375C0.625 5.7174 1.28348 4.12769 2.45558 2.95558C3.62769 1.78348 5.2174 1.125 6.875 1.125H46.875C47.6958 1.125 48.5085 1.28666 49.2668 1.60075C50.0251 1.91484 50.7141 2.37522 51.2944 2.95558C51.8748 3.53595 52.3352 4.22494 52.6492 4.98323C52.9633 5.74151 53.125 6.55424 53.125 7.375V38.625" stroke="#792BEF" stroke-miterlimit="10" stroke-linecap="square"/>
  <path d="M53.125 76.125C61.4093 76.125 68.125 69.4093 68.125 61.125C68.125 52.8407 61.4093 46.125 53.125 46.125C44.8407 46.125 38.125 52.8407 38.125 61.125C38.125 69.4093 44.8407 76.125 53.125 76.125Z" stroke="#792BEF" stroke-miterlimit="10" stroke-linecap="square"/>
  <path d="M53.125 53.625V61.125H60.625" stroke="#792BEF" stroke-miterlimit="10" stroke-linecap="square"/>
</svg>
