<svg viewBox="0 0 42 42" fill="none" xmlns="http://www.w3.org/2000/svg">
<path d="M39 0H3C1.34315 0 0 1.34315 0 3V39C0 40.6569 1.34315 42 3 42H39C40.6569 42 42 40.6569 42 39V3C42 1.34315 40.6569 0 39 0Z" fill="#E6D6FF"/>
<rect x="2" y="17" width="38" height="23" rx="1" fill="#A66EFA"/>
<rect x="5" y="25" width="14" height="2" rx="1" fill="white"/>
<rect x="5" y="35" width="14" height="2" rx="1" fill="white"/>
<rect x="5" y="30" width="14" height="2" rx="1" fill="white"/>
<rect x="23" y="25" width="14" height="2" rx="1" fill="white"/>
<rect x="5" y="20" width="14" height="2" rx="1" fill="white"/>
<rect x="23" y="20" width="14" height="2" rx="1" fill="white"/>
<rect x="23" y="35" width="14" height="2" rx="1" fill="white"/>
<rect x="23" y="30" width="14" height="2" rx="1" fill="white"/>
<rect x="4" y="4" width="15" height="9" rx="1" fill="#D0B0FF"/>
<rect x="23" y="4" width="15" height="9" rx="1" fill="#D0B0FF"/>
<rect x="7" y="7" width="9" height="3" fill="#F7F1FF"/>
<rect x="26" y="7" width="9" height="3" fill="#F7F1FF"/>
</svg>
