<svg viewBox="0 0 56 56" fill="none" xmlns="http://www.w3.org/2000/svg">
<path d="M45.0434 6.08691H10.9565C8.26709 6.08691 6.08691 8.26709 6.08691 10.9565V45.0434C6.08691 47.7328 8.26709 49.913 10.9565 49.913H45.0434C47.7328 49.913 49.913 47.7328 49.913 45.0434V10.9565C49.913 8.26709 47.7328 6.08691 45.0434 6.08691Z" fill="#C9DEFF"/>
<path d="M1.21739 17.0435H6.08696V19.4782H1.21739C0.545045 19.4782 0 18.9332 0 18.2608C0 17.5885 0.545045 17.0435 1.21739 17.0435Z" fill="#97C1FF"/>
<path d="M1.21739 26.7826H6.08696V29.2174H1.21739C0.545045 29.2174 0 28.6723 0 28C0 27.3276 0.545045 26.7826 1.21739 26.7826Z" fill="#97C1FF"/>
<path d="M1.21739 36.5217H6.08696V38.9565H1.21739C0.545045 38.9565 0 38.4115 0 37.7391C0 37.0668 0.545045 36.5217 1.21739 36.5217Z" fill="#97C1FF"/>
<path d="M54.7826 19.4783H49.913V17.0435H54.7826C55.455 17.0435 56 17.5885 56 18.2609C56 18.9332 55.455 19.4783 54.7826 19.4783Z" fill="#97C1FF"/>
<path d="M54.7826 29.2174H49.913V26.7826H54.7826C55.455 26.7826 56 27.3277 56 28C56 28.6724 55.455 29.2174 54.7826 29.2174Z" fill="#97C1FF"/>
<path d="M54.7826 38.9565H49.913V36.5218H54.7826C55.455 36.5218 56 37.0668 56 37.7392C56 38.4115 55.455 38.9565 54.7826 38.9565Z" fill="#97C1FF"/>
<path d="M13.6129 43.8261H42.3872C42.7688 43.8261 43.1348 43.6745 43.4047 43.4047C43.6745 43.1348 43.8261 42.7688 43.8261 42.3872V13.3913C43.8261 12.719 43.2811 12.174 42.6087 12.174H13.6129C13.2313 12.174 12.8653 12.3256 12.5954 12.5954C12.3256 12.8653 12.174 13.2313 12.174 13.6129V42.3872C12.174 42.7688 12.3256 43.1348 12.5954 43.4047C12.8653 43.6745 13.2313 43.8261 13.6129 43.8261Z" fill="#034ADA"/>
<rect x="14.6086" y="14.6086" width="26.7826" height="26.7826" fill="#97C1FF"/>
<path d="M19.4782 6.08696H17.0435V1.21739C17.0435 0.545045 17.5885 0 18.2608 0C18.9332 0 19.4782 0.545045 19.4782 1.21739V6.08696Z" fill="#97C1FF"/>
<path d="M38.9565 6.08696H36.5217V1.21739C36.5217 0.545045 37.0668 0 37.7391 0C38.4115 0 38.9565 0.545045 38.9565 1.21739V6.08696Z" fill="#97C1FF"/>
<path d="M29.2174 6.08696H26.7826V1.21739C26.7826 0.545045 27.3276 0 28 0C28.6723 0 29.2174 0.545045 29.2174 1.21739V6.08696Z" fill="#97C1FF"/>
<path d="M17.0435 49.9131H19.4782V54.7827C19.4782 55.455 18.9332 56 18.2608 56C17.5885 56 17.0435 55.455 17.0435 54.7827V49.9131Z" fill="#97C1FF"/>
<path d="M36.5217 49.9131H38.9565V54.7827C38.9565 55.455 38.4115 56 37.7391 56C37.0668 56 36.5217 55.455 36.5217 54.7827V49.9131Z" fill="#97C1FF"/>
<path d="M26.7826 49.9131H29.2174V54.7827C29.2174 55.455 28.6723 56 28 56C27.3276 56 26.7826 55.455 26.7826 54.7827V49.9131Z" fill="#97C1FF"/>
<path fill-rule="evenodd" clip-rule="evenodd" d="M17.4087 35.1826L23.2643 19.4783H26.0522L31.8956 35.1826H29.1821L27.6153 30.839H21.6343L20.1052 35.1826H17.4087ZM23.8 24.5609L22.3878 28.6367L26.9409 28.6391L25.48 24.3783C25.3704 24.0934 25.2219 23.6442 25.0344 23.0306C24.847 22.4171 24.7171 21.9678 24.6449 21.683C24.4231 22.6588 24.141 23.62 23.8 24.5609Z" fill="white"/>
<rect x="34.0869" y="19.5427" width="2.43478" height="15.6435" fill="white"/>
</svg>
