<?xml version="1.0" encoding="UTF-8"?>
<svg viewBox="0 0 52 54" version="1.1" xmlns="http://www.w3.org/2000/svg" xmlns:xlink="http://www.w3.org/1999/xlink">
    <!-- Generator: Sketch 60 (88103) - https://sketch.com -->
    <title>Icon 3@1x</title>
    <desc>Created with Sketch.</desc>
    <g id="Designs" stroke="none" stroke-width="1" fill="none" fill-rule="evenodd">
        <g id="Endpass-Intro" transform="translate(-834.000000, -871.000000)" fill-rule="nonzero">
            <g id="Icon-3" transform="translate(834.000000, 871.000000)">
                <path d="M2.66671,25.8334 L6.16671,25.8334 L6.16671,39.8334 L2.66671,39.8334 C1.38337,39.8334 0.33337,38.7834 0.33337,37.5 L0.33337,28.1667 C0.33337,26.8834 1.38337,25.8334 2.66671,25.8334 Z" id="Path" fill="#6698E9"></path>
                <path d="M49.3334,39.8334 L45.8334,39.8334 L45.8334,25.8334 L49.3334,25.8334 C50.6167,25.8334 51.6667,26.8834 51.6667,28.1667 L51.6667,37.5 C51.6667,38.7834 50.6167,39.8334 49.3334,39.8334 Z" id="Path" fill="#6698E9"></path>
                <path d="M38.8334,53.8333 L13.1667,53.8333 C11.8834,53.8333 10.8334,52.7833 10.8334,51.5 L10.8334,48 L41.1667,48 L41.1667,51.5 C41.1667,52.7833 40.1167,53.8333 38.8334,53.8333 Z" id="Path" fill="#6698E9"></path>
                <path d="M15.5,17.6667 L15.5,6.00004 C15.5,5.30004 15.9667,4.83337 16.6667,4.83337 C17.3667,4.83337 17.8333,5.30004 17.8333,6.00004 L17.8333,17.6667 C17.8333,18.3667 17.3667,18.8334 16.6667,18.8334 C15.9667,18.8334 15.5,18.3667 15.5,17.6667 Z" id="Path" fill="#6698E9"></path>
                <path d="M34.1666,17.6667 L34.1666,6.00004 C34.1666,5.30004 34.6333,4.83337 35.3333,4.83337 C36.0333,4.83337 36.5,5.30004 36.5,6.00004 L36.5,17.6667 C36.5,18.3667 36.0333,18.8334 35.3333,18.8334 C34.6333,18.8334 34.1666,18.3667 34.1666,17.6667 Z" id="Path" fill="#6698E9"></path>
                <path d="M16.6667,9.5 C19.244,9.5 21.3333,7.41062 21.3333,4.83329 C21.3333,2.25596 19.244,0.16663 16.6667,0.16663 C14.0893,0.16663 12,2.25596 12,4.83329 C12,7.41062 14.0893,9.5 16.6667,9.5 Z" id="Path" fill="#99BBF0"></path>
                <path d="M35.3333,9.5 C37.9106,9.5 40,7.41062 40,4.83329 C40,2.25596 37.9106,0.16663 35.3333,0.16663 C32.756,0.16663 30.6666,2.25596 30.6666,4.83329 C30.6666,7.41062 32.756,9.5 35.3333,9.5 Z" id="Path" fill="#99BBF0"></path>
                <path d="M7.33333,14.1666 L44.6667,14.1666 C45.95,14.1666 47,15.2166 47,16.5 L47,49.1666 C47,50.45 45.95,51.5 44.6667,51.5 L7.33333,51.5 C6.05,51.5 5,50.45 5,49.1666 L5,16.5 C5,15.2166 6.05,14.1666 7.33333,14.1666 Z" id="Path" fill="#CCDDF8"></path>
                <path d="M16.6667,31.6667 C19.244,31.6667 21.3333,29.5774 21.3333,27 C21.3333,24.4227 19.244,22.3334 16.6667,22.3334 C14.0893,22.3334 12,24.4227 12,27 C12,29.5774 14.0893,31.6667 16.6667,31.6667 Z" id="Path" fill="#0054DA"></path>
                <path d="M35.3333,31.6667 C37.9106,31.6667 40,29.5774 40,27 C40,24.4227 37.9106,22.3334 35.3333,22.3334 C32.756,22.3334 30.6666,24.4227 30.6666,27 C30.6666,29.5774 32.756,31.6667 35.3333,31.6667 Z" id="Path" fill="#0054DA"></path>
                <path d="M36.5,37.5 C36.5,36.8 36.0333,36.3334 35.3333,36.3334 L16.6667,36.3334 C15.9667,36.3334 15.5,36.8 15.5,37.5 L15.5,38.6667 L36.5,38.6667 L36.5,37.5 Z" id="Path" fill="#FFFFFF"></path>
                <path d="M15.6167,38.6666 C16.3167,44.3833 21.45,48.5833 27.2834,47.8833 C32.1834,47.3 35.9167,43.45 36.5,38.6666 L15.6167,38.6666 Z" id="Path" fill="#3376E1"></path>
                <path d="M20.2833,46.2499 C23.7833,48.4666 28.2167,48.4666 31.7167,46.2499 C29.5,43.0999 25.1833,42.2833 22.0333,44.4999 C21.3333,45.0833 20.75,45.6666 20.2833,46.2499 Z" id="Path" fill="#99BBF0"></path>
            </g>
        </g>
    </g>
</svg>