<svg viewBox="0 0 20 20" fill="none" xmlns="http://www.w3.org/2000/svg">
<path d="M13.75 16.25C14.4404 16.25 15 15.6904 15 15C15 14.3096 14.4404 13.75 13.75 13.75C13.0596 13.75 12.5 14.3096 12.5 15C12.5 15.6904 13.0596 16.25 13.75 16.25Z" fill="currentColor"/>
<path d="M13.75 17.5C13.2555 17.5 12.7722 17.3534 12.3611 17.0787C11.95 16.804 11.6295 16.4135 11.4403 15.9567C11.2511 15.4999 11.2016 14.9972 11.298 14.5123C11.3945 14.0273 11.6326 13.5819 11.9822 13.2322C12.3319 12.8826 12.7773 12.6445 13.2623 12.548C13.7472 12.4516 14.2499 12.5011 14.7067 12.6903C15.1635 12.8795 15.554 13.2 15.8287 13.6111C16.1034 14.0222 16.25 14.5055 16.25 15C16.2493 15.6628 15.9857 16.2983 15.517 16.767C15.0483 17.2357 14.4128 17.4993 13.75 17.5ZM13.75 13.75C13.5028 13.75 13.2611 13.8233 13.0555 13.9607C12.85 14.098 12.6898 14.2932 12.5952 14.5216C12.5005 14.7501 12.4758 15.0014 12.524 15.2439C12.5723 15.4863 12.6913 15.7091 12.8661 15.8839C13.0409 16.0587 13.2637 16.1778 13.5061 16.226C13.7486 16.2742 13.9999 16.2495 14.2284 16.1549C14.4568 16.0602 14.652 15.9 14.7893 15.6945C14.9267 15.4889 15 15.2472 15 15C14.9995 14.6686 14.8677 14.351 14.6333 14.1167C14.399 13.8824 14.0814 13.7505 13.75 13.75Z" fill="transparent"/>
<path d="M18.6106 14.6744C18.2245 13.6906 17.5581 12.8417 16.6941 12.233C15.83 11.6243 14.8064 11.2825 13.75 11.25C12.6936 11.2825 11.67 11.6243 10.8059 12.233C9.94194 12.8417 9.27555 13.6906 8.88937 14.6744L8.75 15L8.88937 15.3256C9.27555 16.3094 9.94194 17.1583 10.8059 17.767C11.67 18.3757 12.6936 18.7175 13.75 18.75C14.8064 18.7175 15.83 18.3757 16.6941 17.767C17.5581 17.1583 18.2245 16.3094 18.6106 15.3256L18.75 15L18.6106 14.6744ZM13.75 17.5C13.2555 17.5 12.7722 17.3534 12.3611 17.0787C11.95 16.804 11.6295 16.4135 11.4403 15.9567C11.2511 15.4999 11.2016 14.9972 11.298 14.5123C11.3945 14.0273 11.6326 13.5819 11.9822 13.2322C12.3319 12.8826 12.7773 12.6445 13.2623 12.548C13.7472 12.4516 14.2499 12.5011 14.7067 12.6903C15.1635 12.8795 15.554 13.2 15.8287 13.6111C16.1034 14.0222 16.25 14.5055 16.25 15C16.2492 15.6628 15.9855 16.2982 15.5169 16.7669C15.0482 17.2355 14.4128 17.4992 13.75 17.5Z" fill="currentColor"/>
<path d="M7.5 17.5002H5V2.50021H10V6.25021C10.001 6.58143 10.133 6.8988 10.3672 7.133C10.6014 7.36721 10.9188 7.49922 11.25 7.50021H15V10.0002H16.25V6.25021C16.2522 6.16807 16.2366 6.08643 16.2042 6.0109C16.1719 5.93538 16.1235 5.86776 16.0625 5.81271L11.6875 1.43771C11.6325 1.37668 11.5649 1.32831 11.4893 1.29594C11.4138 1.26356 11.3321 1.24797 11.25 1.25021H5C4.66878 1.2512 4.35142 1.38322 4.11721 1.61742C3.883 1.85163 3.75099 2.169 3.75 2.50021V17.5002C3.75099 17.8314 3.883 18.1488 4.11721 18.383C4.35142 18.6172 4.66878 18.7492 5 18.7502H7.5V17.5002ZM11.25 2.75021L14.75 6.25021H11.25V2.75021Z" fill="currentColor"/>
</svg>
