<svg fill="none" xmlns="http://www.w3.org/2000/svg" viewBox="0 0 32 32">
  <path fill="black" d="M15.999 0.396c-8.835 0-15.999 7.163-15.999 16.001 0 7.068 4.584 13.065 10.943 15.181 0.8 0.147 1.092-0.347 1.092-0.771 0-0.38-0.014-1.386-0.022-2.721-4.451 0.967-5.39-2.145-5.39-2.145-0.728-1.848-1.776-2.34-1.776-2.34-1.453-0.993 0.11-0.973 0.11-0.973 1.606 0.113 2.451 1.649 2.451 1.649 1.427 2.445 3.745 1.739 4.656 1.329 0.145-1.034 0.559-1.739 1.016-2.139-3.553-0.404-7.288-1.776-7.288-7.908 0-1.747 0.623-3.175 1.647-4.293-0.165-0.405-0.714-2.032 0.157-4.234 0 0 1.343-0.43 4.4 1.64 1.276-0.355 2.645-0.532 4.006-0.539 1.359 0.006 2.728 0.184 4.006 0.539 3.055-2.070 4.396-1.64 4.396-1.64 0.873 2.203 0.324 3.83 0.159 4.234 1.025 1.118 1.645 2.547 1.645 4.293 0 6.147-3.741 7.499-7.305 7.895 0.575 0.494 1.086 1.47 1.086 2.963 0 2.139-0.020 3.865-0.020 4.389 0 0.428 0.288 0.926 1.1 0.769 6.352-2.12 10.932-8.113 10.932-15.18 0-8.838-7.164-16.001-16.001-16.001z" />
</svg>
