<svg fill="none" xmlns="http://www.w3.org/2000/svg" viewBox="0 0 30 32">
  <path stroke="none" fill="#d94f3d" style="fill: var(--color1, #d94f3d)" d="M16 7.333c2.036-0.001 4.008 0.718 5.564 2.031l4.36-4.152c-1.674-1.543-3.684-2.675-5.872-3.306s-4.492-0.743-6.73-0.328c-2.238 0.415-4.349 1.346-6.165 2.72s-3.286 3.151-4.295 5.192l4.915 3.789c0.573-1.729 1.676-3.233 3.152-4.3s3.25-1.643 5.071-1.646z" />
  <path stroke="none" fill="#f2c042" style="fill: var(--color2, #f2c042)" d="M7.333 16c0.001-0.925 0.151-1.843 0.444-2.721l-4.915-3.789c-1.005 2.023-1.529 4.251-1.529 6.509s0.523 4.487 1.529 6.509l4.915-3.789c-0.293-0.877-0.443-1.796-0.444-2.721z" />
  <path stroke="none" fill="#5085ed" style="fill: var(--color3, #5085ed)" d="M30.067 13.333h-14v6h7.933c-0.472 1.697-1.553 3.159-3.037 4.108l4.877 3.76c3.117-2.797 4.948-7.346 4.226-13.868z" />
  <path stroke="none" fill="#57a75c" style="fill: var(--color4, #57a75c)" d="M20.961 23.44c-1.507 0.863-3.226 1.287-4.961 1.225-1.821-0.003-3.595-0.579-5.071-1.646s-2.578-2.572-3.152-4.3l-4.915 3.789c1.214 2.448 3.087 4.508 5.408 5.949s4.998 2.206 7.73 2.209c3.595 0.098 7.099-1.137 9.839-3.467l-4.877-3.759z" />
</svg>
