<svg viewBox="0 0 27 29" fill="none" xmlns="http://www.w3.org/2000/svg">
<path d="M26.5742 14.4951C26.5742 15.4011 26.0668 16.1983 25.33 16.609L19.0488 20.0998L13.734 14.4951L19.0488 8.89038L25.33 12.3813C26.0668 12.792 26.5742 13.5892 26.5742 14.4951Z" fill="#FFC107"/>
<path d="M13.734 14.495L0.688513 28.2532C0.253663 27.8183 0 27.2265 0 26.5742V2.41582C0 1.76355 0.253663 1.17167 0.688513 0.736816L13.734 14.495Z" fill="#03A9F4"/>
<path d="M13.7339 14.4951L19.0487 20.0999C3.1368 28.8271 2.47003 30.134 0.688354 28.2533L13.7339 14.4951Z" fill="#F44336"/>
<path d="M19.0487 8.89034L13.7339 14.4951L0.688354 0.736892C1.43485 -0.0518789 2.63189 -0.224611 3.58736 0.302041L19.0487 8.89034Z" fill="#4CAF50"/>
</svg>
