<svg viewBox="0 0 16 16" fill="none" xmlns="http://www.w3.org/2000/svg">
  <path fill-rule="evenodd" clip-rule="evenodd" d="M8.5 10.5V6H6.5V7H7.5V10.5H6V11.5H10V10.5H8.5ZM8 3.5C7.58579 3.5 7.25 3.83579 7.25 4.25C7.25 4.66421 7.58579 5 8 5C8.41421 5 8.75 4.66421 8.75 4.25C8.75 3.83579 8.41421 3.5 8 3.5ZM8 15C4.13401 15 1 11.866 1 8C1 4.13401 4.13401 1 8 1C11.866 1 15 4.13401 15 8C14.9957 11.8642 11.8642 14.9957 8 15ZM8 2C4.68629 2 2 4.68629 2 8C2 11.3137 4.68629 14 8 14C11.3137 14 14 11.3137 14 8C13.9963 4.68782 11.3122 2.00369 8 2Z" fill="#373D42"/>
  <mask id="mask0" mask-type="alpha" maskUnits="userSpaceOnUse" x="1" y="1" width="14" height="14">
    <path fill-rule="evenodd" clip-rule="evenodd" d="M8.5 10.5V6H6.5V7H7.5V10.5H6V11.5H10V10.5H8.5ZM8 3.5C7.58579 3.5 7.25 3.83579 7.25 4.25C7.25 4.66421 7.58579 5 8 5C8.41421 5 8.75 4.66421 8.75 4.25C8.75 3.83579 8.41421 3.5 8 3.5ZM8 15C4.13401 15 1 11.866 1 8C1 4.13401 4.13401 1 8 1C11.866 1 15 4.13401 15 8C14.9957 11.8642 11.8642 14.9957 8 15ZM8 2C4.68629 2 2 4.68629 2 8C2 11.3137 4.68629 14 8 14C11.3137 14 14 11.3137 14 8C13.9963 4.68782 11.3122 2.00369 8 2Z" fill="white"/>
  </mask>
  <g mask="url(#mask0)">
  </g>
</svg>
