<svg viewBox="0 0 48 48" fill="none" xmlns="http://www.w3.org/2000/svg">
<path d="M44 27H4L1 23L5 19H43L47 23L44 27Z" fill="#007D79"/>
<path d="M41 47H7C5.895 47 5 46.105 5 45V3C5 1.895 5.895 1 7 1H31L43 13V45C43 46.105 42.105 47 41 47Z" fill="currentColor"/>
<path d="M31 1V11C31 12.105 31.895 13 33 13H43L31 1Z" fill="#B9BFC7"/>
<path d="M45 41H3C1.895 41 1 40.105 1 39V23H47V39C47 40.105 46.105 41 45 41Z" fill="#00BAB6"/>
<path d="M14.748 38.4649C14.361 38.4649 13.994 38.4279 13.647 38.3529V36.7039C13.762 36.7249 13.883 36.7499 14.012 36.7769C14.141 36.8029 14.281 36.8169 14.431 36.8169C14.782 36.8169 15.033 36.7119 15.183 36.5009C15.333 36.2889 15.409 35.9279 15.409 35.4149V28.1479H17.541V35.233C17.541 36.295 17.308 37.1009 16.843 37.6469C16.378 38.1929 15.679 38.4649 14.748 38.4649Z" fill="white"/>
<path d="M24.937 30.645C24.937 31.523 24.678 32.201 24.161 32.678C23.643 33.157 22.909 33.395 21.956 33.395H21.36V36H19.238V28.147H21.956C22.948 28.147 23.693 28.364 24.19 28.796C24.688 29.23 24.937 29.847 24.937 30.645ZM21.36 31.666H21.747C22.066 31.666 22.319 31.576 22.507 31.396C22.695 31.217 22.789 30.97 22.789 30.656C22.789 30.126 22.496 29.861 21.908 29.861H21.36V31.666Z" fill="white"/>
<path d="M29.3409 31.4021H32.7299V35.6341C31.8099 35.9491 30.7979 36.1071 29.6949 36.1071C28.4849 36.1071 27.5489 35.7561 26.8889 35.0541C26.2279 34.3521 25.8979 33.3511 25.8979 32.0521C25.8979 30.7841 26.2599 29.7971 26.9829 29.0921C27.7059 28.3871 28.7199 28.0341 30.0229 28.0341C30.5169 28.0341 30.9829 28.0801 31.4219 28.1731C31.8599 28.2671 32.2429 28.3851 32.5679 28.5281L31.8969 30.1921C31.3309 29.9131 30.7099 29.7741 30.0329 29.7741C29.4129 29.7741 28.9339 29.9751 28.5959 30.3781C28.2569 30.7811 28.0879 31.3571 28.0879 32.1051C28.0879 32.8391 28.2409 33.3991 28.5469 33.7841C28.8539 34.1691 29.2949 34.3611 29.8709 34.3611C30.1859 34.3611 30.4759 34.3311 30.7409 34.2701V33.0411H29.3389V31.4021H29.3409Z" fill="white"/>
</svg>
