<svg viewBox="0 0 20 20" fill="none" xmlns="http://www.w3.org/2000/svg">
<path d="M15.3125 6.875C15.8303 6.875 16.25 6.45527 16.25 5.9375C16.25 5.41973 15.8303 5 15.3125 5C14.7947 5 14.375 5.41973 14.375 5.9375C14.375 6.45527 14.7947 6.875 15.3125 6.875Z" fill="currentColor"/>
<path d="M10.8837 13.75H7.5V10.3663L11.2688 6.5975C11.2565 6.48207 11.2502 6.36608 11.25 6.25C11.25 5.50832 11.4699 4.7833 11.882 4.16661C12.294 3.54993 12.8797 3.06928 13.5649 2.78545C14.2502 2.50162 15.0042 2.42736 15.7316 2.57206C16.459 2.71675 17.1272 3.0739 17.6517 3.59835C18.1761 4.1228 18.5333 4.79098 18.6779 5.51841C18.8226 6.24584 18.7484 6.99984 18.4645 7.68506C18.1807 8.37029 17.7001 8.95596 17.0834 9.36801C16.4667 9.78007 15.7417 10 15 10C14.8839 9.99978 14.7679 9.99352 14.6525 9.98125L10.8837 13.75ZM8.75 12.5H10.3663L14.2225 8.64375L14.5463 8.70313C14.6957 8.73278 14.8476 8.74847 15 8.75C15.5227 8.75643 16.0347 8.60085 16.4654 8.30463C16.8962 8.00841 17.2246 7.58608 17.4057 7.09566C17.5868 6.60523 17.6116 6.07078 17.4766 5.5657C17.3417 5.06063 17.0537 4.60972 16.6522 4.27491C16.2507 3.9401 15.7554 3.73782 15.2343 3.69586C14.7132 3.6539 14.1919 3.77431 13.742 4.04055C13.2921 4.3068 12.9357 4.70581 12.7217 5.18279C12.5077 5.65976 12.4466 6.1913 12.5469 6.70438L12.6062 7.0275L8.75 10.8838V12.5Z" fill="currentColor"/>
<path d="M17.5 11.25V16.25H6.25V3.75H8.75V2.5H2.5C2.16858 2.50033 1.85083 2.63213 1.61648 2.86648C1.38213 3.10083 1.25033 3.41858 1.25 3.75V16.25C1.25033 16.5814 1.38213 16.8992 1.61648 17.1335C1.85083 17.3679 2.16858 17.4997 2.5 17.5H17.5C17.8314 17.4997 18.1492 17.3679 18.3835 17.1335C18.6179 16.8992 18.7497 16.5814 18.75 16.25V11.25H17.5ZM2.5 3.75H5V16.25H2.5V3.75Z" fill="currentColor"/>
</svg>
