<svg viewBox="0 0 16 16" fill="none" xmlns="http://www.w3.org/2000/svg">
<path fill-rule="evenodd" clip-rule="evenodd" d="M7.92444 0C5.24999 0.000190451 2.63288 1.31278 1.09341 3.71285C0.552094 4.55693 0.192049 5.46328 0 6.38754L1.51869 6.64713C1.67591 5.91484 1.96456 5.19761 2.39311 4.5295C3.60044 2.64746 5.66815 1.5238 7.92444 1.52361C9.16237 1.52361 10.3722 1.8729 11.4235 2.53338C14.4693 4.44704 15.3739 8.45642 13.4404 11.4707C12.233 13.3527 10.1653 14.4764 7.90904 14.4764C6.67111 14.4764 5.46128 14.1273 4.41001 13.4668C3.92104 13.1596 3.49095 12.796 3.11551 12.3936L1.95205 13.3927C2.42371 13.9033 2.96637 14.3644 3.58486 14.7531C4.92824 15.5972 6.42749 16 7.90904 16C10.5835 16 13.2006 14.6872 14.7401 12.2873C17.1324 8.55774 16.0171 3.61496 12.2486 1.24707C10.9052 0.402995 9.40599 0 7.92444 0Z" fill="currentColor"/>
</svg>
