<svg viewBox="0 0 56 56" fill="none" xmlns="http://www.w3.org/2000/svg">
<path d="M28 0C22.4621 0 17.0486 1.64217 12.444 4.71885C7.83947 7.79553 4.25064 12.1685 2.13139 17.2849C0.0121319 22.4012 -0.542361 28.0311 0.538025 33.4625C1.61841 38.894 4.28515 43.8831 8.20102 47.799C12.1169 51.7149 17.106 54.3816 22.5375 55.462C27.969 56.5424 33.5988 55.9879 38.7151 53.8686C43.8315 51.7494 48.2045 48.1605 51.2812 43.556C54.3578 38.9514 56 33.5379 56 28C56 20.5739 53.05 13.452 47.799 8.20101C42.548 2.94999 35.4261 0 28 0ZM42.96 29.76L20.96 41.76C20.656 41.9355 20.3111 42.028 19.96 42.028C19.6089 42.028 19.2641 41.9355 18.96 41.76C18.6593 41.5771 18.4121 41.318 18.2436 41.009C18.075 40.6999 17.991 40.3519 18 40V16C18.0001 15.6529 18.0905 15.3118 18.2623 15.0102C18.4341 14.7087 18.6815 14.457 18.98 14.28C19.2841 14.1045 19.6289 14.0121 19.98 14.0121C20.3311 14.0121 20.676 14.1045 20.98 14.28L42.98 26.28C43.2975 26.4514 43.5627 26.7054 43.7476 27.0153C43.9325 27.3251 44.0301 27.6792 44.0301 28.04C44.0301 28.4008 43.9325 28.7549 43.7476 29.0647C43.5627 29.3746 43.2975 29.6286 42.98 29.8L42.96 29.76Z" fill="currentColor"/>
</svg>
