<svg viewBox="0 0 24 24" fill="none" xmlns="http://www.w3.org/2000/svg">
<path d="M15.75 19.5H3C2.60218 19.5 2.22064 19.342 1.93934 19.0607C1.65804 18.7794 1.5 18.3978 1.5 18V6C1.5 5.60218 1.65804 5.22064 1.93934 4.93934C2.22064 4.65804 2.60218 4.5 3 4.5H15.75C16.1478 4.5 16.5294 4.65804 16.8107 4.93934C17.092 5.22064 17.25 5.60218 17.25 6V9.045L21.315 6.1425C21.4269 6.0628 21.5586 6.01538 21.6957 6.00543C21.8327 5.99547 21.9699 6.02336 22.0922 6.08605C22.2144 6.14874 22.3171 6.24382 22.3891 6.3609C22.461 6.47799 22.4994 6.61259 22.5 6.75V17.25C22.4994 17.3874 22.461 17.522 22.3891 17.6391C22.3171 17.7562 22.2144 17.8513 22.0922 17.9139C21.9699 17.9766 21.8327 18.0045 21.6957 17.9946C21.5586 17.9846 21.4269 17.9372 21.315 17.8575L17.25 14.955V18C17.25 18.3978 17.092 18.7794 16.8107 19.0607C16.5294 19.342 16.1478 19.5 15.75 19.5Z" fill="currentColor"/>
</svg>
