<svg xmlns="http://www.w3.org/2000/svg" viewBox="0 0 62 62">
    <defs>
        <linearGradient id="a" x1="0%" y1=".003%" y2="99.997%">
            <stop offset="0%" stop-color="#B067FF"/>
            <stop offset="100%" stop-color="#581AB4"/>
        </linearGradient>
    </defs>
    <path fill="url(#a)" fill-rule="evenodd" d="M49 32.28c7.133 0 12.721 2.952 12.721 6.72v16c0 3.768-5.588 6.72-12.722 6.72-7.132 0-12.72-2.952-12.72-6.72V39c0-3.768 5.588-6.72 12.72-6.72zm11.28 17.868c-2.105 2.14-6.315 3.572-11.28 3.572-4.965 0-9.177-1.432-11.279-3.572V55c0 2.862 5.164 5.28 11.278 5.28 6.116 0 11.28-2.418 11.28-5.28zM27 .28c13.89 0 25.591 10.834 26.643 24.666l.052.718-1.436.108-.054-.718C51.213 11.97 40.141 1.72 27 1.72 13.061 1.72 1.721 13.06 1.721 27c0 13.94 11.34 25.28 25.278 25.28.654 0 1.304-.026 1.946-.074l.718-.054.11 1.434-.718.056A26.93 26.93 0 0 1 27 53.72C12.265 53.72.28 41.734.28 27 .28 12.266 12.265.28 27 .28zm33.28 41.868c-2.105 2.14-6.315 3.572-11.28 3.572-4.965 0-9.177-1.432-11.279-3.572V47c0 2.862 5.164 5.28 11.278 5.28 6.116 0 11.28-2.418 11.28-5.28zM49 33.72c-6.115 0-11.279 2.418-11.279 5.28S42.885 44.28 49 44.28c6.116 0 11.28-2.418 11.28-5.28S55.115 33.72 49 33.72zM27.72 14.28V27.72H14.28V26.28h12v-12h1.442z"/>
</svg>
