<svg viewBox="0 0 64 64" fill="none" xmlns="http://www.w3.org/2000/svg">
<path d="M17.1907 47.81C11.6509 44.203 6.84788 39.5751 3.03772 34.173C2.68933 33.6837 2.50144 33.0984 2.50001 32.4978C2.49858 31.8972 2.68367 31.3109 3.02972 30.82C6.42172 26.007 17.2937 12.5 32.5007 12.5C37.9423 12.5958 43.2472 14.22 47.8097 17.187" stroke="currentColor" stroke-miterlimit="10" stroke-linecap="round" stroke-linejoin="round"/>
<path d="M52.4108 20.5C56.0201 23.5176 59.2306 26.9825 61.9648 30.811C62.3153 31.3039 62.503 31.894 62.5016 32.4988C62.5001 33.1036 62.3096 33.6928 61.9568 34.184C58.4938 39 47.4618 52.5 32.5018 52.5C29.0602 52.482 25.6541 51.8031 22.4688 50.5" stroke="currentColor" stroke-miterlimit="10" stroke-linecap="round" stroke-linejoin="round"/>
<path d="M5.5 59.5L59.5 5.5" stroke="#6E32C9" stroke-miterlimit="10" stroke-linecap="round" stroke-linejoin="round"/>
<path d="M43.821 28.5C44.5738 30.6365 44.7069 32.9424 44.2051 35.1514C43.7032 37.3603 42.5868 39.3823 40.9848 40.9838C39.3827 42.5854 37.3604 43.7011 35.1512 44.2022C32.9421 44.7034 30.6363 44.5695 28.5 43.816" stroke="#6E32C9" stroke-miterlimit="10" stroke-linecap="round" stroke-linejoin="round"/>
<path d="M24.0211 40.9853C21.8007 38.7289 20.5618 35.6866 20.5743 32.5209C20.5868 29.3553 21.8497 26.3228 24.0879 24.0841C26.3261 21.8453 29.3583 20.5817 32.5239 20.5685C35.6896 20.5552 38.7322 21.7934 40.9891 24.0133" stroke="#6E32C9" stroke-miterlimit="10" stroke-linecap="round" stroke-linejoin="round"/>
</svg>
