<svg viewBox="0 0 48 48" fill="none" xmlns="http://www.w3.org/2000/svg">
<path d="M44 27H4L1 23L5 19H43L47 23L44 27Z" fill="#A51920"/>
<path d="M41 47H7C5.895 47 5 46.105 5 45V3C5 1.895 5.895 1 7 1H31L43 13V45C43 46.105 42.105 47 41 47Z" fill="currentColor"/>
<path d="M31 1V11C31 12.105 31.895 13 33 13H43L31 1Z" fill="#B9BFC7"/>
<path d="M45 41H3C1.895 41 1 40.105 1 39V23H47V39C47 40.105 46.105 41 45 41Z" fill="#DA1E28"/>
<path d="M20.0709 30.645C20.0709 31.523 19.8119 32.201 19.2949 32.678C18.7769 33.157 18.0429 33.395 17.0899 33.395H16.4939V36H14.3719V28.147H17.0899C18.0819 28.147 18.8269 28.364 19.3239 28.796C19.8219 29.23 20.0709 29.847 20.0709 30.645ZM16.4939 31.666H16.8809C17.1999 31.666 17.4529 31.576 17.6409 31.396C17.8289 31.217 17.9229 30.97 17.9229 30.656C17.9229 30.126 17.6299 29.861 17.0419 29.861H16.4939V31.666Z" fill="white"/>
<path d="M27.988 31.907C27.988 33.218 27.627 34.227 26.905 34.936C26.184 35.646 25.17 36 23.863 36H21.322V28.147H24.04C25.3 28.147 26.273 28.469 26.959 29.114C27.645 29.759 27.988 30.689 27.988 31.907ZM25.786 31.982C25.786 31.262 25.644 30.729 25.359 30.381C25.075 30.033 24.642 29.86 24.062 29.86H23.444V34.258H23.917C24.562 34.258 25.034 34.07 25.335 33.696C25.636 33.322 25.786 32.752 25.786 31.982Z" fill="white"/>
<path d="M31.484 36H29.395V28.147H34.036V29.849H31.485V31.348H33.838V33.05H31.485V36H31.484Z" fill="white"/>
</svg>
