<svg viewBox="0 0 16 17" fill="none" xmlns="http://www.w3.org/2000/svg">
<path d="M6.25 11.25H1.875C1.64294 11.25 1.42038 11.1578 1.25628 10.9937C1.09219 10.8296 1 10.6071 1 10.375V6.875C1 6.64294 1.09219 6.42038 1.25628 6.25628C1.42038 6.09219 1.64294 6 1.875 6H6.25C6.48206 6 6.70462 6.09219 6.86872 6.25628C7.03281 6.42038 7.125 6.64294 7.125 6.875V10.375C7.125 10.6071 7.03281 10.8296 6.86872 10.9937C6.70462 11.1578 6.48206 11.25 6.25 11.25ZM2.75 9.5H5.375V7.75H2.75V9.5Z" fill="currentColor" />
<path d="M14.125 6H10.625V2.5H8.875V14.75H10.625V11.25H14.125C14.3571 11.25 14.5796 11.1578 14.7437 10.9937C14.9078 10.8296 15 10.6071 15 10.375V6.875C15 6.64294 14.9078 6.42038 14.7437 6.25628C14.5796 6.09219 14.3571 6 14.125 6Z" fill="#697077"/>
</svg>
