<svg viewBox="0 0 48 48" fill="none" xmlns="http://www.w3.org/2000/svg">
<path d="M44 27H4L1 23L5 19H43L47 23L44 27Z" fill="#D12765"/>
<path d="M41 47H7C5.895 47 5 46.105 5 45V3C5 1.895 5.895 1 7 1H31L43 13V45C43 46.105 42.105 47 41 47Z" fill="currentColor"/>
<path d="M31 1V11C31 12.105 31.895 13 33 13H43L31 1Z" fill="#B9BFC7"/>
<path d="M45 41H3C1.895 41 1 40.105 1 39V23H47V39C47 40.105 46.105 41 45 41Z" fill="#EE538B"/>
<path d="M18.414 30.645C18.414 31.523 18.155 32.201 17.639 32.678C17.121 33.157 16.386 33.395 15.434 33.395H14.837V36H12.715V28.147H15.434C16.425 28.147 17.17 28.364 17.668 28.796C18.165 29.23 18.414 29.847 18.414 30.645ZM14.837 31.666H15.224C15.543 31.666 15.795 31.576 15.985 31.396C16.173 31.217 16.266 30.97 16.266 30.656C16.266 30.126 15.973 29.861 15.385 29.861H14.837V31.666Z" fill="white"/>
<path d="M27.143 36H24.36L21.493 30.468H21.444C21.512 31.338 21.546 32.002 21.546 32.461V36H19.667V28.147H22.438L25.295 33.604H25.326C25.276 32.813 25.252 32.177 25.252 31.697V28.147H27.143V36Z" fill="white"/>
<path d="M31.9921 31.4021H35.3811V35.6341C34.4611 35.9491 33.4491 36.1071 32.3471 36.1071C31.1371 36.1071 30.2011 35.7561 29.5411 35.0541C28.8791 34.3521 28.5491 33.3511 28.5491 32.0521C28.5491 30.7841 28.9111 29.7971 29.6351 29.0921C30.3581 28.3871 31.3711 28.0341 32.6741 28.0341C33.1681 28.0341 33.6351 28.0801 34.0741 28.1731C34.5121 28.2671 34.8941 28.3851 35.2201 28.5281L34.5481 30.1921C33.9821 29.9131 33.3601 29.7741 32.6851 29.7741C32.0651 29.7741 31.5851 29.9751 31.2471 30.3781C30.9091 30.7811 30.7391 31.3571 30.7391 32.1051C30.7391 32.8391 30.8931 33.3991 31.1981 33.7841C31.5051 34.1691 31.9461 34.3611 32.5221 34.3611C32.8371 34.3611 33.1271 34.3311 33.3931 34.2701V33.0411H31.9911V31.4021H31.9921Z" fill="white"/>
</svg>
