<svg viewBox="0 0 16 17" fill="none" xmlns="http://www.w3.org/2000/svg">
<path d="M8 10.25C9.44975 10.25 10.625 9.07475 10.625 7.625C10.625 6.17525 9.44975 5 8 5C6.55025 5 5.375 6.17525 5.375 7.625C5.375 9.07475 6.55025 10.25 8 10.25Z" fill="#6F28CC" />
<path d="M8 1.5C4.15 1.5 1 4.65 1 8.5C1 12.35 4.15 15.5 8 15.5C11.85 15.5 15 12.35 15 8.5C15 4.65 11.85 1.5 8 1.5ZM11.5 12.35C10.975 11.7375 10.275 11.125 8.875 11.125H7.125C5.725 11.125 5.025 11.7375 4.5 12.35C3.45 11.3875 2.75 10.075 2.75 8.5C2.75 5.6125 5.1125 3.25 8 3.25C10.8875 3.25 13.25 5.6125 13.25 8.5C13.25 10.075 12.55 11.3875 11.5 12.35Z" fill="currentColor"/>
</svg>
