<svg viewBox="0 0 32 32" fill="none" xmlns="http://www.w3.org/2000/svg">
<path d="M11.5 19.5C13.1569 19.5 14.5 18.1569 14.5 16.5C14.5 14.8431 13.1569 13.5 11.5 13.5C9.84315 13.5 8.5 14.8431 8.5 16.5C8.5 18.1569 9.84315 19.5 11.5 19.5Z" stroke="currentColor" stroke-miterlimit="10" stroke-linecap="round" stroke-linejoin="round"/>
<path d="M17.5 28.4999V25.5169C17.5005 25.1687 17.4101 24.8263 17.2377 24.5238C17.0653 24.2212 16.8168 23.9689 16.517 23.7919C14.9908 22.919 13.258 22.4727 11.5 22.4999C9.73889 22.4657 8.00161 22.9109 6.474 23.7879C6.17671 23.9655 5.93065 24.2174 5.75991 24.5187C5.58918 24.82 5.49962 25.1605 5.5 25.5069V28.4999" stroke="currentColor" stroke-miterlimit="10" stroke-linecap="round" stroke-linejoin="round"/>
<path d="M13.5 7.5H1.5V28.5H28.5V16.5" stroke="currentColor" stroke-miterlimit="10" stroke-linecap="round" stroke-linejoin="round"/>
<path d="M17.5 4.5V9.5C17.5 10.2956 17.8161 11.0587 18.3787 11.6213C18.9413 12.1839 19.7044 12.5 20.5 12.5V15.5L25.5 12.5H28.5C29.2956 12.5 30.0587 12.1839 30.6213 11.6213C31.1839 11.0587 31.5 10.2956 31.5 9.5V4.5C31.5 3.70435 31.1839 2.94129 30.6213 2.37868C30.0587 1.81607 29.2956 1.5 28.5 1.5H20.5C19.7044 1.5 18.9413 1.81607 18.3787 2.37868C17.8161 2.94129 17.5 3.70435 17.5 4.5V4.5Z" stroke="#6E32C9" stroke-miterlimit="10" stroke-linecap="round" stroke-linejoin="round"/>
</svg>
