<svg viewBox="0 0 32 32" fill="none" xmlns="http://www.w3.org/2000/svg">
<path d="M30 16C30.0068 12.9161 28.9975 9.91585 27.128 7.46318C25.2586 5.01051 22.6332 3.24206 19.6577 2.43131C16.6823 1.62056 13.5227 1.81266 10.6674 2.97792C7.81209 4.14318 5.42024 6.21667 3.8617 8.87777C2.30316 11.5389 1.66474 14.6393 2.04518 17.6996C2.42562 20.76 3.80372 23.6098 5.96636 25.8083C8.12901 28.0068 10.9557 29.4315 14.0094 29.8622C17.0631 30.2929 20.1736 29.7056 22.86 28.191L22.977 28.217L23.001 28.106C25.1265 26.8788 26.892 25.1144 28.1204 22.9896C29.3489 20.8648 29.9971 18.4543 30 16ZM3.99997 16C4.00385 14.9873 4.13658 13.9792 4.39497 13H8.63797L13.63 17.16L11.72 19.706C11.433 20.0919 11.294 20.5679 11.3281 21.0475C11.3622 21.5272 11.5673 21.9787 11.906 22.32L14 24.414V27.819C11.2069 27.3449 8.67133 25.8986 6.84142 23.7358C5.01151 21.5731 4.00507 18.833 3.99997 16ZM13.32 20.906L16.37 16.84L9.36197 11H5.10597C5.83551 9.39968 6.90897 7.97991 8.24989 6.84183C9.5908 5.70376 11.1662 4.87537 12.8638 4.41568C14.5615 3.95598 16.3396 3.8763 18.0715 4.18229C19.8035 4.48829 21.4466 5.17244 22.884 6.18601L22.279 8.00001H16.586L13.543 11.043L22.897 19.356L21.248 26.775C19.6153 27.5792 17.82 27.9983 16 28V23.586L13.32 20.906ZM23.635 25.25L24.848 19.79C24.925 19.4424 24.9079 19.0806 24.7984 18.7418C24.6889 18.4031 24.4909 18.0997 24.225 17.863L16.457 10.957L17.414 10H22.279C22.699 10.0004 23.1084 9.86845 23.4491 9.62287C23.7899 9.37729 24.0445 9.03058 24.177 8.63201L24.53 7.57201C25.7025 8.75526 26.6152 10.1701 27.21 11.726C27.8048 13.282 28.0685 14.9449 27.9843 16.6085C27.9 18.2722 27.4697 19.9 26.7209 21.3879C25.972 22.8758 24.921 24.1912 23.635 25.25Z" fill="currentColor"/>
</svg>
