<svg viewBox="0 0 32 32" fill="none" xmlns="http://www.w3.org/2000/svg">
<path d="M20 27.18L17.41 24.59L16 26L20 30L28 22L26.59 20.59L20 27.18Z" fill="currentColor"/>
<path d="M10 28V10H22V19H24V6C23.9995 5.46973 23.7886 4.96133 23.4136 4.58637C23.0387 4.21141 22.5303 4.00053 22 4H10C9.46973 4.00053 8.96133 4.21141 8.58637 4.58637C8.21141 4.96133 8.00053 5.46973 8 6V28C8.00053 28.5303 8.21141 29.0387 8.58637 29.4136C8.96133 29.7886 9.46973 29.9995 10 30H14V28H10ZM10 6H22V8H10V6Z" fill="currentColor"/>
</svg>
