<svg viewBox="0 0 32 32" fill="none" xmlns="http://www.w3.org/2000/svg">
<path d="M28 6V26H4V6H28ZM28 4H4C3.46957 4 2.96086 4.21071 2.58579 4.58579C2.21071 4.96086 2 5.46957 2 6V26C2 26.5304 2.21071 27.0391 2.58579 27.4142C2.96086 27.7893 3.46957 28 4 28H28C28.5304 28 29.0391 27.7893 29.4142 27.4142C29.7893 27.0391 30 26.5304 30 26V6C30 5.46957 29.7893 4.96086 29.4142 4.58579C29.0391 4.21071 28.5304 4 28 4Z" fill="currentColor"/>
<path d="M6 10H13V12H6V10Z" fill="currentColor"/>
<path d="M6 14H10V16H6V14Z" fill="currentColor"/>
<path d="M23 18H17C16.2044 18 15.4413 18.3161 14.8787 18.8787C14.3161 19.4413 14 20.2044 14 21V23H16V21C16 20.7348 16.1054 20.4804 16.2929 20.2929C16.4804 20.1054 16.7348 20 17 20H23C23.2652 20 23.5196 20.1054 23.7071 20.2929C23.8946 20.4804 24 20.7348 24 21V23H26V21C26 20.2044 25.6839 19.4413 25.1213 18.8787C24.5587 18.3161 23.7956 18 23 18Z" fill="currentColor"/>
<path d="M20 17C20.7911 17 21.5645 16.7654 22.2223 16.3259C22.8801 15.8864 23.3928 15.2616 23.6955 14.5307C23.9983 13.7998 24.0775 12.9956 23.9231 12.2196C23.7688 11.4437 23.3878 10.731 22.8284 10.1716C22.269 9.61216 21.5563 9.2312 20.7804 9.07686C20.0044 8.92252 19.2002 9.00173 18.4693 9.30448C17.7384 9.60723 17.1136 10.1199 16.6741 10.7777C16.2346 11.4355 16 12.2089 16 13C16 14.0609 16.4214 15.0783 17.1716 15.8284C17.9217 16.5786 18.9391 17 20 17ZM20 11C20.3956 11 20.7822 11.1173 21.1111 11.3371C21.44 11.5568 21.6964 11.8692 21.8478 12.2346C21.9991 12.6001 22.0387 13.0022 21.9616 13.3902C21.8844 13.7781 21.6939 14.1345 21.4142 14.4142C21.1345 14.6939 20.7781 14.8844 20.3902 14.9616C20.0022 15.0387 19.6001 14.9991 19.2346 14.8478C18.8692 14.6964 18.5568 14.44 18.3371 14.1111C18.1173 13.7822 18 13.3956 18 13C18 12.4696 18.2107 11.9609 18.5858 11.5858C18.9609 11.2107 19.4696 11 20 11Z" fill="currentColor"/>
</svg>
