<svg viewBox="0 0 32 32" fill="none" xmlns="http://www.w3.org/2000/svg">
<path d="M25.9998 29H25.8298C6.17976 27.87 3.38976 11.29 2.99976 6.23C2.96833 5.83658 3.01485 5.44082 3.13663 5.06541C3.25842 4.69 3.45309 4.3423 3.70948 4.04225C3.96587 3.7422 4.27894 3.49569 4.63077 3.31684C4.98259 3.13799 5.36625 3.03032 5.75976 3H11.2698C11.6703 2.99961 12.0618 3.11951 12.3934 3.34416C12.725 3.56881 12.9816 3.88787 13.1298 4.26L14.6498 8C14.7961 8.36355 14.8324 8.76208 14.7542 9.14609C14.676 9.5301 14.4867 9.88267 14.2098 10.16L12.0798 12.31C12.4125 14.2007 13.3179 15.9437 14.6737 17.303C16.0294 18.6622 17.7699 19.5723 19.6598 19.91L21.8298 17.76C22.1113 17.4862 22.4671 17.3013 22.853 17.2283C23.2389 17.1554 23.6378 17.1977 23.9998 17.35L27.7698 18.86C28.1363 19.0129 28.449 19.2714 28.668 19.6027C28.8871 19.9339 29.0026 20.3229 28.9998 20.72V26C28.9998 26.7956 28.6837 27.5587 28.1211 28.1213C27.5585 28.6839 26.7954 29 25.9998 29ZM5.99976 5C5.73454 5 5.48019 5.10536 5.29265 5.29289C5.10512 5.48043 4.99976 5.73478 4.99976 6V6.08C5.45976 12 8.40976 26 25.9398 27C26.0711 27.0081 26.2028 26.9902 26.3273 26.9473C26.4517 26.9045 26.5665 26.8374 26.6649 26.7501C26.7634 26.6628 26.8437 26.5568 26.9011 26.4384C26.9586 26.32 26.9921 26.1914 26.9998 26.06V20.72L23.2298 19.21L20.3598 22.06L19.8798 22C11.1798 20.91 9.99976 12.21 9.99976 12.12L9.93976 11.64L12.7798 8.77L11.2798 5H5.99976Z" fill="currentColor"/>
</svg>
