<svg viewBox="0 0 32 32" fill="none" xmlns="http://www.w3.org/2000/svg">
<path d="M14 20C12.8133 20 11.6533 19.6481 10.6666 18.9888C9.67989 18.3295 8.91085 17.3925 8.45673 16.2961C8.0026 15.1997 7.88378 13.9933 8.11529 12.8295C8.3468 11.6656 8.91825 10.5965 9.75736 9.75736C10.5965 8.91825 11.6656 8.3468 12.8295 8.11529C13.9933 7.88378 15.1997 8.0026 16.2961 8.45673C17.3925 8.91085 18.3295 9.67989 18.9888 10.6666C19.6481 11.6533 20 12.8133 20 14C20 15.5913 19.3679 17.1174 18.2426 18.2426C17.1174 19.3679 15.5913 20 14 20ZM14 10C13.2089 10 12.4355 10.2346 11.7777 10.6741C11.1199 11.1136 10.6072 11.7384 10.3045 12.4693C10.0017 13.2002 9.92252 14.0044 10.0769 14.7804C10.2312 15.5563 10.6122 16.269 11.1716 16.8284C11.731 17.3878 12.4437 17.7688 13.2196 17.9231C13.9956 18.0775 14.7998 17.9983 15.5307 17.6955C16.2616 17.3928 16.8864 16.8801 17.3259 16.2223C17.7654 15.5645 18 14.7911 18 14C18 12.9391 17.5786 11.9217 16.8284 11.1716C16.0783 10.4214 15.0609 10 14 10Z" fill="currentColor"/>
<path d="M14 16C15.1046 16 16 15.1046 16 14C16 12.8954 15.1046 12 14 12C12.8954 12 12 12.8954 12 14C12 15.1046 12.8954 16 14 16Z" fill="currentColor"/>
<path d="M17 23.54C14.9894 24.1723 12.8303 24.1532 10.8312 23.4853C8.83213 22.8174 7.09517 21.5349 5.8684 19.821C4.64162 18.1071 3.98776 16.0494 4.00018 13.9417C4.0126 11.834 4.69067 9.78412 5.93757 8.08478C7.18446 6.38544 8.93642 5.12353 10.9433 4.47925C12.9501 3.83498 15.1092 3.84127 17.1122 4.49725C19.1153 5.15322 20.8599 6.42532 22.0968 8.13191C23.3338 9.83849 23.9999 11.8923 24 14C24 14.34 24 14.67 23.95 15H25.95C25.95 14.67 26 14.34 26 14C26 11.6266 25.2962 9.30655 23.9776 7.33316C22.6591 5.35977 20.7849 3.8217 18.5922 2.91345C16.3995 2.0052 13.9867 1.76756 11.6589 2.23058C9.33115 2.6936 7.19295 3.83649 5.51472 5.51472C3.83649 7.19295 2.6936 9.33115 2.23058 11.6589C1.76756 13.9867 2.0052 16.3995 2.91345 18.5922C3.8217 20.7849 5.35977 22.6591 7.33316 23.9776C9.30655 25.2962 11.6266 26 14 26C15.0122 25.9936 16.0198 25.8627 17 25.61V23.54Z" fill="currentColor"/>
<path d="M25 30L22.86 29C22.0027 28.594 21.2785 27.9525 20.7721 27.1504C20.2657 26.3482 19.9979 25.4186 20 24.47V18H30V24.47C30.0021 25.4186 29.7343 26.3482 29.2279 27.1504C28.7215 27.9525 27.9973 28.594 27.14 29L25 30ZM22 20V24.47C22.0006 25.0382 22.1626 25.5946 22.4671 26.0744C22.7716 26.5541 23.2061 26.9376 23.72 27.18L25 27.79L26.28 27.18C26.7939 26.9376 27.2284 26.5541 27.5329 26.0744C27.8374 25.5946 27.9994 25.0382 28 24.47V20H22Z" fill="currentColor"/>
</svg>
