<svg viewBox="0 0 32 32" fill="none" xmlns="http://www.w3.org/2000/svg">
<path d="M14 16C15.1046 16 16 15.1046 16 14C16 12.8954 15.1046 12 14 12C12.8954 12 12 12.8954 12 14C12 15.1046 12.8954 16 14 16Z" fill="currentColor"/>
<path d="M14 2.00001C10.8174 2.00001 7.76515 3.26429 5.51472 5.51473C3.26428 7.76517 2 10.8174 2 14C2 17.1826 3.26428 20.2349 5.51472 22.4853C7.76515 24.7357 10.8174 26 14 26V24C12.0222 24 10.0888 23.4135 8.4443 22.3147C6.79981 21.2159 5.51808 19.6541 4.7612 17.8268C4.00433 15.9996 3.80629 13.9889 4.19215 12.0491C4.578 10.1093 5.53041 8.32747 6.92893 6.92894C8.32746 5.53042 10.1093 4.57801 12.0491 4.19216C13.9889 3.80631 15.9996 4.00434 17.8268 4.76122C19.6541 5.51809 21.2159 6.79982 22.3147 8.44431C23.4135 10.0888 24 12.0222 24 14C24.0202 14.333 24.0202 14.667 24 15H26C26 14.67 26.05 14.34 26.05 14C26.05 12.4199 25.738 10.8554 25.1318 9.39623C24.5256 7.93706 23.6372 6.61196 22.5176 5.497C21.398 4.38205 20.0692 3.49918 18.6076 2.89907C17.1459 2.29896 15.5801 1.99343 14 2.00001Z" fill="currentColor"/>
<path d="M17 24H26.17L23.58 26.59L25 28L30 23L25 18L23.58 19.42L26.17 22H17V24Z" fill="currentColor"/>
<path d="M14 20C12.8133 20 11.6533 19.6481 10.6666 18.9888C9.67989 18.3295 8.91085 17.3925 8.45673 16.2961C8.0026 15.1997 7.88378 13.9933 8.11529 12.8295C8.3468 11.6656 8.91825 10.5965 9.75736 9.75736C10.5965 8.91825 11.6656 8.3468 12.8295 8.11529C13.9933 7.88378 15.1997 8.0026 16.2961 8.45673C17.3925 8.91085 18.3295 9.67989 18.9888 10.6666C19.6481 11.6533 20 12.8133 20 14C20 15.5913 19.3679 17.1174 18.2426 18.2426C17.1174 19.3679 15.5913 20 14 20ZM14 10C13.2089 10 12.4355 10.2346 11.7777 10.6741C11.1199 11.1136 10.6072 11.7384 10.3045 12.4693C10.0017 13.2002 9.92252 14.0044 10.0769 14.7804C10.2312 15.5563 10.6122 16.269 11.1716 16.8284C11.731 17.3878 12.4437 17.7688 13.2196 17.9231C13.9956 18.0775 14.7998 17.9983 15.5307 17.6955C16.2616 17.3928 16.8864 16.8801 17.3259 16.2223C17.7654 15.5645 18 14.7911 18 14C18 12.9391 17.5786 11.9217 16.8284 11.1716C16.0783 10.4214 15.0609 10 14 10Z" fill="currentColor"/>
</svg>
