<svg viewBox="0 0 32 32" fill="none" xmlns="http://www.w3.org/2000/svg">
<path d="M25 10L26.593 13L30 13.414L27.5 15.667L28 19L25 17.125L22 19L22.5 15.667L20 13.414L23.5 13L25 10Z" fill="currentColor"/>
<path d="M22 30H20V25C19.9984 23.6744 19.4711 22.4036 18.5338 21.4662C17.5964 20.5289 16.3256 20.0016 15 20H9C7.67441 20.0016 6.40356 20.5289 5.46622 21.4662C4.52888 22.4036 4.00159 23.6744 4 25V30H2V25C2.00212 23.1441 2.7403 21.3649 4.05259 20.0526C5.36489 18.7403 7.14413 18.0021 9 18H15C16.8559 18.0021 18.6351 18.7403 19.9474 20.0526C21.2597 21.3649 21.9979 23.1441 22 25V30Z" fill="currentColor"/>
<path d="M12 4C12.9889 4 13.9556 4.29324 14.7779 4.84265C15.6001 5.39206 16.241 6.17295 16.6194 7.08658C16.9978 8.00021 17.0969 9.00555 16.9039 9.97545C16.711 10.9454 16.2348 11.8363 15.5355 12.5355C14.8363 13.2348 13.9454 13.711 12.9755 13.9039C12.0055 14.0969 11.0002 13.9978 10.0866 13.6194C9.17296 13.241 8.39206 12.6001 7.84266 11.7779C7.29325 10.9556 7 9.98891 7 9C7 7.67392 7.52679 6.40215 8.46447 5.46447C9.40215 4.52678 10.6739 4 12 4ZM12 2C10.6155 2 9.26216 2.41054 8.11101 3.17971C6.95987 3.94888 6.06266 5.04213 5.53285 6.32122C5.00303 7.6003 4.86441 9.00776 5.13451 10.3656C5.4046 11.7235 6.07129 12.9708 7.05026 13.9497C8.02922 14.9287 9.2765 15.5954 10.6344 15.8655C11.9922 16.1356 13.3997 15.997 14.6788 15.4672C15.9579 14.9373 17.0511 14.0401 17.8203 12.889C18.5895 11.7378 19 10.3845 19 9C19 7.14348 18.2625 5.36301 16.9497 4.05025C15.637 2.7375 13.8565 2 12 2Z" fill="currentColor"/>
</svg>
