<svg viewBox="0 0 18 18" fill="none" xmlns="http://www.w3.org/2000/svg">
<path d="M17.7504 16.8691L13.0316 12.1254C14.1597 10.7642 14.7201 9.02087 14.5964 7.25737C14.4728 5.49386 13.6745 3.84577 12.3675 2.65541C11.0605 1.46505 9.34521 0.823904 7.57786 0.865155C5.81051 0.906406 4.12697 1.62688 2.87692 2.87692C1.62688 4.12697 0.906406 5.81051 0.865155 7.57786C0.823904 9.34521 1.46505 11.0605 2.65541 12.3675C3.84577 13.6745 5.49386 14.4728 7.25737 14.5964C9.02087 14.7201 10.7642 14.1597 12.1254 13.0316L16.8691 17.7504L17.7504 16.8691ZM2.12535 7.75035C2.12535 6.63783 2.45525 5.5503 3.07334 4.62527C3.69142 3.70024 4.56992 2.97927 5.59776 2.55353C6.62559 2.12779 7.75659 2.01639 8.84774 2.23344C9.93888 2.45048 10.9412 2.98621 11.7278 3.77288C12.5145 4.55955 13.0502 5.56183 13.2673 6.65297C13.4843 7.74411 13.3729 8.87511 12.9472 9.90295C12.5214 10.9308 11.8005 11.8093 10.8754 12.4274C9.95041 13.0455 8.86287 13.3754 7.75035 13.3754C6.25851 13.3754 4.82777 12.7827 3.77288 11.7278C2.71799 10.6729 2.12535 9.2422 2.12535 7.75035Z" fill="currentColor"/>
</svg>
