<svg viewBox="0 0 48 48" fill="none" xmlns="http://www.w3.org/2000/svg">
<path d="M44 27H4L1 23L5 19H43L47 23L44 27Z" fill="#198038"/>
<path d="M41 47H7C5.895 47 5 46.105 5 45V3C5 1.895 5.895 1 7 1H31L43 13V45C43 46.105 42.105 47 41 47Z" fill="currentColor"/>
<path d="M31 1V11C31 12.105 31.895 13 33 13H43L31 1Z" fill="#B9BFC7"/>
<path d="M45 41H3C1.895 41 1 40.105 1 39V23H47V39C47 40.105 46.105 41 45 41Z" fill="#3DBB61"/>
<path d="M17.2189 35.9999H15.0969V29.8829H13.1799V28.1479H19.1309V29.8829H17.2189V35.9999Z" fill="white"/>
<path d="M20.2539 36V28.147H22.3859V36H20.2539Z" fill="white"/>
<path d="M26.173 36H24.084V28.147H28.725V29.849H26.174V31.348H28.527V33.05H26.174V36H26.173Z" fill="white"/>
<path d="M32.1029 36H30.0139V28.147H34.6549V29.849H32.1039V31.348H34.4569V33.05H32.1039V36H32.1029Z" fill="white"/>
</svg>
