<svg viewBox="0 0 16 16" fill="none" xmlns="http://www.w3.org/2000/svg">
<g clip-path="url(#clip0)">
<path d="M10.2 11.4005L7.5 9.40054C8.4 8.70054 9 7.70054 9 6.50054V5.70054C9 3.80054 7.6 2.10054 5.7 2.00054C3.7 1.90054 2 3.50054 2 5.50054V6.50054C2 7.70054 2.6 8.70054 3.5 9.40054L0.8 11.5005C0.3 11.9005 0 12.5005 0 13.1005V15.0005C0 15.6005 0.4 16.0005 1 16.0005H10C10.6 16.0005 11 15.6005 11 15.0005V13.0005C11 12.4005 10.7 11.8005 10.2 11.4005Z" fill="currentColor"/>
<path d="M15.0992 6.40018L13.2992 5.20018C13.6992 4.80018 13.9992 4.20018 13.9992 3.50018V2.60018C13.9992 1.40018 13.0992 0.200182 11.8992 0.000182092C10.6992 -0.199818 9.69922 0.500182 9.19922 1.40018C10.2992 2.40018 10.9992 3.80018 10.9992 5.40018V6.40018C10.9992 7.30018 10.7992 8.20018 10.3992 8.90018C10.3992 8.90018 11.5992 9.80018 11.5992 9.90018H14.9992C15.5992 9.90018 15.9992 9.50018 15.9992 8.90018V8.10018C15.9992 7.40018 15.6992 6.80018 15.0992 6.40018Z" fill="#054ADA"/>
</g>
<defs>
<clipPath id="clip0">
<rect width="16" height="16" fill="white"/>
</clipPath>
</defs>
</svg>
