<svg xmlns="http://www.w3.org/2000/svg" viewBox="0 0 32 32">
    <g fill="none" fill-rule="nonzero" transform="translate(.667 4.667)">
        <rect width="30.667" height="22.667" fill="#1A1F71" rx="2"/>
        <path fill="#FFF" d="M12.159 14.533h1.739l1.089-6.384h-1.74zM18.495 10.713c-.608-.296-.98-.493-.976-.792 0-.266.315-.549 1-.549a3.142 3.142 0 0 1 1.458.318l.236-1.383c-.5-.18-1.029-.271-1.56-.267-1.72 0-2.934.867-2.941 2.107-.01.917.867 1.429 1.525 1.733.677.313.905.512.902.791-.005.428-.541.624-1.042.624a3.81 3.81 0 0 1-1.862-.436l-.244 1.428c.62.23 1.277.345 1.938.341 1.83 0 3.017-.856 3.03-2.18.004-.727-.46-1.28-1.464-1.735zM24.671 8.155h-1.344a.867.867 0 0 0-.912.53l-2.584 5.848h1.828s.298-.786.366-.959h2.228c.052.224.212.957.212.957h1.615l-1.409-6.376zm-2.145 4.116c.072-.185.782-2.008.924-2.394.235 1.1.006.032.52 2.394h-1.444zM10.7 8.154l-1.705 4.353-.181-.884-.61-2.934a.729.729 0 0 0-.79-.539H4.61l-.022.133a7.31 7.31 0 0 1 1.828.701l1.546 5.545h1.842l2.739-6.372-1.843-.003z"/>
    </g>
</svg>
