<svg xmlns="http://www.w3.org/2000/svg">
  <defs>
    <symbol id="icon-action" viewBox="0 0 32 32">
      <path d="M24 0l8 8-8 8-1.88-1.88 4.773-4.787h-26.893v-2.667h26.893l-4.773-4.787zM5.107 25.333l4.773 4.787-1.88 1.88-8-8 8-8 1.88 1.88-4.773 4.787h26.893v2.667z" />
    </symbol>
    <symbol id="icon-google" viewBox="0 0 30 32">
      <path fill="#d94f3d" style="fill: var(--color1, #d94f3d)" d="M16 7.333c2.036-0.001 4.008 0.718 5.564 2.031l4.36-4.152c-1.674-1.543-3.684-2.675-5.872-3.306s-4.492-0.743-6.73-0.328c-2.238 0.415-4.349 1.346-6.165 2.72s-3.286 3.151-4.295 5.192l4.915 3.789c0.573-1.729 1.676-3.233 3.152-4.3s3.25-1.643 5.071-1.646z" />
      <path fill="#f2c042" style="fill: var(--color2, #f2c042)" d="M7.333 16c0.001-0.925 0.151-1.843 0.444-2.721l-4.915-3.789c-1.005 2.023-1.529 4.251-1.529 6.509s0.523 4.487 1.529 6.509l4.915-3.789c-0.293-0.877-0.443-1.796-0.444-2.721z" />
      <path fill="#5085ed" style="fill: var(--color3, #5085ed)" d="M30.067 13.333h-14v6h7.933c-0.472 1.697-1.553 3.159-3.037 4.108l4.877 3.76c3.117-2.797 4.948-7.346 4.226-13.868z" />
      <path fill="#57a75c" style="fill: var(--color4, #57a75c)" d="M20.961 23.44c-1.507 0.863-3.226 1.287-4.961 1.225-1.821-0.003-3.595-0.579-5.071-1.646s-2.578-2.572-3.152-4.3l-4.915 3.789c1.214 2.448 3.087 4.508 5.408 5.949s4.998 2.206 7.73 2.209c3.595 0.098 7.099-1.137 9.839-3.467l-4.877-3.759z" />
    </symbol>
    <symbol id="icon-github" viewBox="0 0 32 32">
      <path d="M15.999 0.396c-8.835 0-15.999 7.163-15.999 16.001 0 7.068 4.584 13.065 10.943 15.181 0.8 0.147 1.092-0.347 1.092-0.771 0-0.38-0.014-1.386-0.022-2.721-4.451 0.967-5.39-2.145-5.39-2.145-0.728-1.848-1.776-2.34-1.776-2.34-1.453-0.993 0.11-0.973 0.11-0.973 1.606 0.113 2.451 1.649 2.451 1.649 1.427 2.445 3.745 1.739 4.656 1.329 0.145-1.034 0.559-1.739 1.016-2.139-3.553-0.404-7.288-1.776-7.288-7.908 0-1.747 0.623-3.175 1.647-4.293-0.165-0.405-0.714-2.032 0.157-4.234 0 0 1.343-0.43 4.4 1.64 1.276-0.355 2.645-0.532 4.006-0.539 1.359 0.006 2.728 0.184 4.006 0.539 3.055-2.070 4.396-1.64 4.396-1.64 0.873 2.203 0.324 3.83 0.159 4.234 1.025 1.118 1.645 2.547 1.645 4.293 0 6.147-3.741 7.499-7.305 7.895 0.575 0.494 1.086 1.47 1.086 2.963 0 2.139-0.020 3.865-0.020 4.389 0 0.428 0.288 0.926 1.1 0.769 6.352-2.12 10.932-8.113 10.932-15.18 0-8.838-7.164-16.001-16.001-16.001z" />
    </symbol>
    <symbol id="icon-arrow-left" viewBox="0 0 43 32">
      <path stroke-linejoin="round" stroke-linecap="round" stroke-miterlimit="10" stroke-width="2.8235" d="M40.471 16h-37.647" />
      <path stroke-linejoin="round" stroke-linecap="round" stroke-miterlimit="10" stroke-width="2.8235" d="M16 29.176l-13.176-13.176 13.176-13.176" />
    </symbol>
    <symbol id="icon-close" viewBox="0 0 32 32">
      <path stroke-linejoin="round" stroke-linecap="round" stroke-miterlimit="10" stroke-width="2.8235" d="M29.176 2.824l-26.353 26.353" />
      <path stroke-linejoin="round" stroke-linecap="round" stroke-miterlimit="10" stroke-width="2.8235" d="M29.176 29.176l-26.353-26.353" />
    </symbol>
  </defs>
</svg>
