<svg xmlns="http://www.w3.org/2000/svg" xmlns:xlink="http://www.w3.org/1999/xlink"><symbol id="endpass-ui-icon-action" viewBox="0 0 32 32"><path fill="currentColor" d="M24 0l8 8-8 8-1.88-1.88 4.773-4.787H0V6.666h26.893L22.12 1.879zM5.107 25.333L9.88 30.12 8 32l-8-8 8-8 1.88 1.88-4.773 4.787H32v2.667z"/></symbol><symbol id="endpass-ui-icon-admin" viewBox="0 0 16 17"><path d="M14.125 4.25h-3.5c-.525 0-.875.35-.875.875s.35.875.875.875h3.5c.525 0 .875-.35.875-.875s-.35-.875-.875-.875zM5.375 2.5c-1.138 0-2.1.788-2.45 1.75h-1.05C1.35 4.25 1 4.6 1 5.125S1.35 6 1.875 6h1.05c.35.963 1.313 1.75 2.45 1.75C6.862 7.75 8 6.612 8 5.125S6.862 2.5 5.375 2.5z" fill="#697077"/><path d="M1.875 13h3.5c.525 0 .875-.35.875-.875s-.35-.875-.875-.875h-3.5c-.525 0-.875.35-.875.875s.35.875.875.875zM14.125 11.25h-1.05a2.549 2.549 0 00-2.45-1.75C9.137 9.5 8 10.637 8 12.125s1.137 2.625 2.625 2.625c1.137 0 2.1-.787 2.45-1.75h1.05c.525 0 .875-.35.875-.875s-.35-.875-.875-.875z" fill="currentColor"/></symbol><symbol id="endpass-ui-icon-apps-list" viewBox="0 0 16 17"><path d="M6.25 1.5H1.875A.875.875 0 001 2.375V6.75a.875.875 0 00.875.875H6.25a.875.875 0 00.875-.875V2.375A.875.875 0 006.25 1.5zm-.875 4.375H2.75V3.25h2.625v2.625zM14.125 9.375H9.75a.875.875 0 00-.875.875v4.375a.875.875 0 00.875.875h4.375a.875.875 0 00.875-.875V10.25a.875.875 0 00-.875-.875zm-.875 4.375h-2.625v-2.625h2.625v2.625zM6.25 9.375H1.875A.875.875 0 001 10.25v4.375a.875.875 0 00.875.875H6.25a.875.875 0 00.875-.875V10.25a.875.875 0 00-.875-.875zm-.875 4.375H2.75v-2.625h2.625v2.625z" fill="#697077"/><path d="M11.937 7.625a.875.875 0 01-.618-.256L9.13 5.18a.875.875 0 010-1.237l2.188-2.188a.875.875 0 011.237 0l2.187 2.188a.875.875 0 010 1.237L12.556 7.37a.875.875 0 01-.619.256z" fill="currentColor"/></symbol><symbol id="endpass-ui-icon-arrow-left" viewBox="0 0 23 17"><path d="M21.5 8.5h-20M8.5 15.5l-7-7 7-7" stroke="currentColor" stroke-width="1.5" stroke-miterlimit="10" stroke-linecap="round" stroke-linejoin="round"/></symbol><symbol id="endpass-ui-icon-check" viewBox="0 0 10 8"><path fill-rule="evenodd" clip-rule="evenodd" d="M3.75 7.438l-3.125-3.1.994-.982L3.75 5.47 8.381.875l.994.988L3.75 7.438z" fill="currentColor"/></symbol><symbol id="endpass-ui-icon-chevron-down" viewBox="0 0 16 16"><path fill-rule="evenodd" clip-rule="evenodd" d="M8 11L3 6l.707-.707L8 9.586l4.293-4.293L13 6l-5 5z" fill="currentColor"/><path fill-rule="evenodd" clip-rule="evenodd" d="M8 11L3 6l.707-.707L8 9.586l4.293-4.293L13 6l-5 5z" fill="currentColor"/></symbol><symbol id="endpass-ui-icon-chevron-up" viewBox="0 0 16 16"><path fill-rule="evenodd" clip-rule="evenodd" d="M8 5l5 5-.707.707L8 6.414l-4.293 4.293L3 10l5-5z" fill="currentColor"/><path fill-rule="evenodd" clip-rule="evenodd" d="M8 5l5 5-.707.707L8 6.414l-4.293 4.293L3 10l5-5z" fill="currentColor"/></symbol><symbol id="endpass-ui-icon-close" viewBox="0 0 17 17"><path d="M15.5 1.5l-14 14M15.5 15.5l-14-14" stroke="currentColor" stroke-width="1.5" stroke-miterlimit="10" stroke-linecap="round" stroke-linejoin="round"/></symbol><symbol id="endpass-ui-icon-docs" viewBox="0 0 16 16"><path d="M14.125 5.375H8c-.525 0-.875.35-.875.875v7.875c0 .525.35.875.875.875h6.125c.525 0 .875-.35.875-.875V6.25c0-.525-.35-.875-.875-.875z" fill="currentColor"/><path d="M5.375 4.5c0-.525.35-.875.875-.875h5.25v-1.75c0-.525-.35-.875-.875-.875h-8.75C1.35 1 1 1.35 1 1.875v10.5c0 .525.35.875.875.875h3.5V4.5z" fill="currentColor"/></symbol><symbol id="endpass-ui-icon-endpass" viewBox="0 0 17 22"><path d="M7.97 11.142V6.074L.25 11.09l3.899 2.534 3.82-2.482zM0 11.562l.013 5.068 7.956 5.173v-5.068L0 11.562zM12.197 8.398l4.136-2.691L8.495.626v5.37l3.702 2.402zM16.582 6.18L8.495 11.43v5.055l8.074-5.239.013-5.068z" fill="currentColor"/></symbol><symbol id="endpass-ui-icon-error" viewBox="0 0 16 16"><path fill-rule="evenodd" clip-rule="evenodd" d="M8 15A7 7 0 108 1a7 7 0 000 14z" fill="currentColor"/><path fill-rule="evenodd" clip-rule="evenodd" d="M8.565 4H7.44v5.5h1.125V4zm.185 7.75a.75.75 0 11-1.5 0 .75.75 0 011.5 0z" fill="#fff"/><mask id="a" maskUnits="userSpaceOnUse" x="7" y="4" width="2" height="9"><path fill-rule="evenodd" clip-rule="evenodd" d="M8.565 4H7.44v5.5h1.125V4zm.185 7.75a.75.75 0 11-1.5 0 .75.75 0 011.5 0z" fill="#fff"/></mask></symbol><symbol id="endpass-ui-icon-eye" viewBox="0 0 8 8"><path d="M4.03 1C1.5 1 0 4 0 4s1.5 3 4.03 3C6.5 7 8 4 8 4S6.5 1 4.03 1zM4 2a2 2 0 012 2c0 1.11-.89 2-2 2a2 2 0 110-4zm0 1c-.55 0-1 .45-1 1s.45 1 1 1 1-.45 1-1c0-.1-.04-.19-.06-.28a.495.495 0 11-.66-.66A.875.875 0 004 3z" fill="currentColor"/></symbol><symbol id="endpass-ui-icon-github" viewBox="0 0 32 32"><path fill="#000" d="M15.999.396C7.164.396 0 7.559 0 16.397c0 7.068 4.584 13.065 10.943 15.181.8.147 1.092-.347 1.092-.771 0-.38-.014-1.386-.022-2.721-4.451.967-5.39-2.145-5.39-2.145-.728-1.848-1.776-2.34-1.776-2.34-1.453-.993.11-.973.11-.973 1.606.113 2.451 1.649 2.451 1.649 1.427 2.445 3.745 1.739 4.656 1.329.145-1.034.559-1.739 1.016-2.139-3.553-.404-7.288-1.776-7.288-7.908 0-1.747.623-3.175 1.647-4.293-.165-.405-.714-2.032.157-4.234 0 0 1.343-.43 4.4 1.64a15.355 15.355 0 014.006-.539c1.359.006 2.728.184 4.006.539 3.055-2.07 4.396-1.64 4.396-1.64.873 2.203.324 3.83.159 4.234 1.025 1.118 1.645 2.547 1.645 4.293 0 6.147-3.741 7.499-7.305 7.895.575.494 1.086 1.47 1.086 2.963 0 2.139-.02 3.865-.02 4.389 0 .428.288.926 1.1.769 6.352-2.12 10.932-8.113 10.932-15.18C32.001 7.557 24.837.394 16 .394z"/></symbol><symbol id="endpass-ui-icon-google" viewBox="0 0 30 32"><path fill="var(--color1, #d94f3d)" d="M16 7.333a8.622 8.622 0 015.564 2.031l4.36-4.152a14.655 14.655 0 00-12.602-3.634A14.642 14.642 0 002.862 9.49l4.915 3.789A8.68 8.68 0 0116 7.333z"/><path fill="var(--color2, #f2c042)" d="M7.333 16a8.622 8.622 0 01.444-2.721L2.862 9.49a14.615 14.615 0 000 13.018l4.915-3.789a8.617 8.617 0 01-.444-2.721z"/><path fill="var(--color3, #5085ed)" d="M30.067 13.333h-14v6H24a7.15 7.15 0 01-3.037 4.108l4.877 3.76c3.117-2.797 4.948-7.346 4.226-13.868z"/><path fill="var(--color4, #57a75c)" d="M20.961 23.44A9.315 9.315 0 0116 24.665a8.68 8.68 0 01-8.223-5.946l-4.915 3.789A14.678 14.678 0 0016 30.666a14.575 14.575 0 009.839-3.467l-4.877-3.759z"/></symbol><symbol id="endpass-ui-icon-home" viewBox="0 0 16 17"><path d="M13.357 15.5c.524 0 .874-.35.874-.874V6.764c0-.263-.088-.525-.35-.7L8.64 1.697a.919.919 0 00-1.136 0L2.262 6.065C2.087 6.239 2 6.5 2 6.764v7.862c0 .524.35.874.874.874h3.494v-4.368h3.495V15.5h3.494z" fill="currentColor"/></symbol><symbol id="endpass-ui-icon-loader" viewBox="0 0 16 16"><path fill-rule="evenodd" clip-rule="evenodd" d="M7.924 0C5.25 0 2.633 1.313 1.094 3.713A7.935 7.935 0 000 6.388l1.519.26c.157-.733.446-1.45.874-2.119a6.536 6.536 0 015.531-3.005 6.57 6.57 0 013.5 1.01c3.045 1.913 3.95 5.922 2.016 8.937a6.536 6.536 0 01-5.531 3.005 6.57 6.57 0 01-3.499-1.01 6.493 6.493 0 01-1.294-1.072l-1.164.999A8.106 8.106 0 007.909 16c2.675 0 5.292-1.313 6.831-3.713 2.392-3.73 1.277-8.672-2.491-11.04A8.106 8.106 0 007.924 0z" fill="currentColor"/></symbol><symbol id="endpass-ui-icon-logout" viewBox="0 0 16 15"><path d="M5.5 7.5h10M11.5 3.5l4 4-4 4M8.5 14.5h-7a1 1 0 01-1-1v-12a1 1 0 011-1h7" stroke="currentColor" stroke-miterlimit="10" stroke-linecap="round" stroke-linejoin="round"/></symbol><symbol id="endpass-ui-icon-menu" viewBox="0 0 16 12"><path fill-rule="evenodd" clip-rule="evenodd" d="M15 2H8a1 1 0 010-2h7a1 1 0 010 2zm-7 9.981H1a1 1 0 010-2h7a1 1 0 010 2zm-7-5h14a1 1 0 000-2H1a1 1 0 000 2z" fill="currentColor"/></symbol><symbol id="endpass-ui-icon-permission" viewBox="0 0 16 17"><path d="M6.25 11.25H1.875A.875.875 0 011 10.375v-3.5A.875.875 0 011.875 6H6.25a.875.875 0 01.875.875v3.5a.875.875 0 01-.875.875zM2.75 9.5h2.625V7.75H2.75V9.5z" fill="currentColor"/><path d="M14.125 6h-3.5V2.5h-1.75v12.25h1.75v-3.5h3.5a.875.875 0 00.875-.875v-3.5A.875.875 0 0014.125 6z" fill="#697077"/></symbol><symbol id="endpass-ui-icon-profile" viewBox="0 0 16 17"><path d="M8 10.25A2.625 2.625 0 108 5a2.625 2.625 0 000 5.25z" fill="currentColor"/><path d="M8 1.5c-3.85 0-7 3.15-7 7s3.15 7 7 7 7-3.15 7-7-3.15-7-7-7zm3.5 10.85c-.525-.612-1.225-1.225-2.625-1.225h-1.75c-1.4 0-2.1.613-2.625 1.225-1.05-.963-1.75-2.275-1.75-3.85 0-2.888 2.362-5.25 5.25-5.25 2.887 0 5.25 2.362 5.25 5.25 0 1.575-.7 2.887-1.75 3.85z" fill="#697077"/></symbol></svg>