<svg xmlns="http://www.w3.org/2000/svg" xmlns:xlink="http://www.w3.org/1999/xlink"><defs><clipPath id="clip0"><path fill="#fff" d="M0 0h16v16H0z"/></clipPath><clipPath id="clip0"><path fill="#fff" d="M0 0h16v16H0z"/></clipPath><clipPath id="clip0"><path fill="#fff" d="M0 0h16v16H0z"/></clipPath></defs><symbol id="endpass-ui-icon-action" viewBox="0 0 32 32"><path fill="currentColor" d="M24 0l8 8-8 8-1.88-1.88 4.773-4.787H0V6.666h26.893L22.12 1.879zM5.107 25.333L9.88 30.12 8 32l-8-8 8-8 1.88 1.88-4.773 4.787H32v2.667z"/></symbol><symbol id="endpass-ui-icon-activity-alt" viewBox="0 0 16 16"><path d="M7 16a.997.997 0 01-.707-.293l-2-2 1.414-1.414L7 13.586l3.293-3.293 1.414 1.414-4 4A.997.997 0 017 16z" fill="#054ADA"/><path d="M15 2h-2V0h-3v2H6V0H3v2H1a1 1 0 00-1 1v12a1 1 0 001 1h2v-2H2V7h12v7h-1v2h2a1 1 0 001-1V3a1 1 0 00-1-1z" fill="currentColor"/></symbol><symbol id="endpass-ui-icon-activity" viewBox="0 0 16 16"><path d="M10 14H6c0 1.1.9 2 2 2s2-.9 2-2z" fill="#6E32C9"/><path d="M15 11h-.5c-.7-.7-1.5-1.7-1.5-3V5c0-2.8-2.2-5-5-5S3 2.2 3 5v3c0 1.3-.8 2.3-1.5 3H1c-.6 0-1 .4-1 1s.4 1 1 1h14c.6 0 1-.4 1-1s-.4-1-1-1z" fill="currentColor"/></symbol><symbol id="endpass-ui-icon-app-add" viewBox="0 0 64 64"><path d="M8.5 37.5v-28a4 4 0 014-4h40a4 4 0 014 4v20M30.5 11.5h4M32.5 43.5h-30a8 8 0 008 8h22" stroke="currentColor" stroke-miterlimit="10" stroke-linecap="round" stroke-linejoin="round"/><path d="M50.5 43.5v8M46.5 47.5h8M50.5 59.5c6.627 0 12-5.373 12-12s-5.373-12-12-12-12 5.373-12 12 5.373 12 12 12z" stroke="#6E32C9" stroke-miterlimit="10" stroke-linecap="round" stroke-linejoin="round"/></symbol><symbol id="endpass-ui-icon-apps" viewBox="0 0 16 16"><path d="M4 7a3 3 0 100-6 3 3 0 000 6z" fill="currentColor"/><path d="M12 7a3 3 0 100-6 3 3 0 000 6zM4 15a3 3 0 100-6 3 3 0 000 6z" fill="#6E32C9"/><path d="M12 15a3 3 0 100-6 3 3 0 000 6z" fill="currentColor"/></symbol><symbol id="endpass-ui-icon-arrow-left" viewBox="0 0 23 17"><path d="M21.5 8.5h-20M8.5 15.5l-7-7 7-7" stroke="currentColor" stroke-width="1.5" stroke-miterlimit="10" stroke-linecap="round" stroke-linejoin="round"/></symbol><symbol id="endpass-ui-icon-ban" viewBox="0 0 16 16"><path d="M8 15.5a7.5 7.5 0 100-15 7.5 7.5 0 000 15zM2.697 13.303L13.303 2.697" stroke="currentColor" stroke-miterlimit="10" stroke-linecap="round" stroke-linejoin="round"/></symbol><symbol id="endpass-ui-icon-check" viewBox="0 0 10 8"><path fill-rule="evenodd" clip-rule="evenodd" d="M3.75 7.438l-3.125-3.1.994-.982L3.75 5.47 8.381.875l.994.988L3.75 7.438z" fill="currentColor"/></symbol><symbol id="endpass-ui-icon-chevron-down" viewBox="0 0 16 16"><path fill-rule="evenodd" clip-rule="evenodd" d="M8 11L3 6l.707-.707L8 9.586l4.293-4.293L13 6l-5 5z" fill="currentColor"/><path fill-rule="evenodd" clip-rule="evenodd" d="M8 11L3 6l.707-.707L8 9.586l4.293-4.293L13 6l-5 5z" fill="currentColor"/></symbol><symbol id="endpass-ui-icon-chevron-up" viewBox="0 0 16 16"><path fill-rule="evenodd" clip-rule="evenodd" d="M8 5l5 5-.707.707L8 6.414l-4.293 4.293L3 10l5-5z" fill="currentColor"/><path fill-rule="evenodd" clip-rule="evenodd" d="M8 5l5 5-.707.707L8 6.414l-4.293 4.293L3 10l5-5z" fill="currentColor"/></symbol><symbol id="endpass-ui-icon-close" viewBox="0 0 17 17"><path d="M15.5 1.5l-14 14M15.5 15.5l-14-14" stroke="currentColor" stroke-width="1.5" stroke-miterlimit="10" stroke-linecap="round" stroke-linejoin="round"/></symbol><symbol id="endpass-ui-icon-docs-alt" viewBox="0 0 16 16"><path d="M3 2h10c.6 0 1-.4 1-1s-.4-1-1-1H3c-.6 0-1 .4-1 1s.4 1 1 1z" fill="#054ADA"/><path d="M15 4H1c-.6 0-1 .4-1 1v10c0 .6.4 1 1 1h14c.6 0 1-.4 1-1V5c0-.6-.4-1-1-1zm-3 7H4V7h2v2h4V7h2v4z" fill="currentColor"/></symbol><symbol id="endpass-ui-icon-docs" viewBox="0 0 16 16"><g clip-path="url(#clip0)"><path d="M14 0H2a1 1 0 00-1 1v6a1 1 0 001 1h12a1 1 0 001-1V1a1 1 0 00-1-1z" fill="currentColor"/><path d="M15 10H1v2h14v-2zM15 14H1v2h14v-2z" fill="#6E32C9"/></g></symbol><symbol id="endpass-ui-icon-docx" viewBox="0 0 48 48"><path d="M44 27H4l-3-4 4-4h38l4 4-3 4z" fill="#003D73"/><path d="M41 47H7a2 2 0 01-2-2V3a2 2 0 012-2h24l12 12v32a2 2 0 01-2 2z" fill="currentColor"/><path d="M31 1v10a2 2 0 002 2h10L31 1z" fill="#B9BFC7"/><path d="M45 41H3a2 2 0 01-2-2V23h46v16a2 2 0 01-2 2z" fill="#0072C3"/><path d="M15.55 31.907c0 1.311-.362 2.32-1.084 3.029-.722.71-1.736 1.064-3.042 1.064h-2.54v-7.853H11.6c1.261 0 2.233.322 2.92.967.685.645 1.028 1.575 1.028 2.793zm-2.204.075c0-.72-.142-1.253-.427-1.601-.284-.348-.717-.521-1.297-.521h-.618v4.398h.473c.645 0 1.117-.188 1.418-.562.301-.374.451-.944.451-1.714zM24.303 32.062c0 1.322-.324 2.326-.972 3.014-.648.688-1.597 1.03-2.847 1.03-1.232 0-2.176-.345-2.834-1.036-.656-.69-.984-1.697-.984-3.018 0-1.308.326-2.306.98-2.995.652-.69 1.603-1.034 2.849-1.034 1.249 0 2.196.343 2.841 1.026s.967 1.689.967 3.013zm-5.403 0c0 1.519.527 2.277 1.584 2.277.537 0 .936-.184 1.195-.553.259-.37.389-.943.389-1.725 0-.783-.131-1.363-.395-1.737-.264-.374-.656-.562-1.179-.562-1.062.002-1.594.768-1.594 2.3zM29.218 29.775c-.505 0-.899.206-1.182.62-.282.413-.425.983-.425 1.71 0 1.512.575 2.268 1.725 2.268a3.52 3.52 0 001.01-.146c.326-.097.653-.213.982-.349v1.793c-.654.291-1.396.436-2.223.436-1.186 0-2.094-.344-2.727-1.031-.632-.688-.947-1.682-.947-2.98 0-.813.152-1.527.459-2.144a3.286 3.286 0 011.32-1.421c.576-.331 1.252-.496 2.028-.496.849 0 1.659.184 2.433.553l-.649 1.67c-.29-.136-.58-.25-.87-.344a3.04 3.04 0 00-.934-.139zM39.934 36h-2.455l-1.531-2.455L34.434 36h-2.401l2.604-4.018-2.449-3.835h2.354l1.418 2.428 1.363-2.428h2.423l-2.487 4.001L39.934 36z" fill="#fff"/></symbol><symbol id="endpass-ui-icon-endpass" viewBox="0 0 17 22"><path d="M7.97 11.142V6.074L.25 11.09l3.899 2.534 3.82-2.482zM0 11.562l.013 5.068 7.956 5.173v-5.068L0 11.562zM12.197 8.398l4.136-2.691L8.495.626v5.37l3.702 2.402zM16.582 6.18L8.495 11.43v5.055l8.074-5.239.013-5.068z" fill="currentColor"/></symbol><symbol id="endpass-ui-icon-error" viewBox="0 0 16 16"><path fill-rule="evenodd" clip-rule="evenodd" d="M8 15A7 7 0 108 1a7 7 0 000 14z" fill="currentColor"/><path fill-rule="evenodd" clip-rule="evenodd" d="M8.565 4H7.44v5.5h1.125V4zm.185 7.75a.75.75 0 11-1.5 0 .75.75 0 011.5 0z" fill="#fff"/><mask id="a" maskUnits="userSpaceOnUse" x="7" y="4" width="2" height="9"><path fill-rule="evenodd" clip-rule="evenodd" d="M8.565 4H7.44v5.5h1.125V4zm.185 7.75a.75.75 0 11-1.5 0 .75.75 0 011.5 0z" fill="#fff"/></mask></symbol><symbol id="endpass-ui-icon-eye-alt" viewBox="0 0 16 16"><path d="M.5 8s3-5.5 7.5-5.5S15.5 8 15.5 8s-3 5.5-7.5 5.5S.5 8 .5 8z" stroke="currentColor" stroke-miterlimit="10" stroke-linecap="round" stroke-linejoin="round"/><path d="M8 10.5a2.5 2.5 0 100-5 2.5 2.5 0 000 5z" stroke="currentColor" stroke-miterlimit="10" stroke-linecap="round" stroke-linejoin="round"/></symbol><symbol id="endpass-ui-icon-eye-crossed" viewBox="0 0 16 16"><g clip-path="url(#clip0)" stroke="currentColor" stroke-miterlimit="10" stroke-linecap="round" stroke-linejoin="round"><path d="M.5 10s3-5.5 7.5-5.5 7.5 5.5 7.5 5.5-3 5.5-7.5 5.5S.5 10 .5 10zM5 10a3 3 0 013-3M11 10a3 3 0 01-3 3M1 17L15 3"/></g></symbol><symbol id="endpass-ui-icon-eye" viewBox="0 0 8 8"><path d="M4.03 1C1.5 1 0 4 0 4s1.5 3 4.03 3C6.5 7 8 4 8 4S6.5 1 4.03 1zM4 2a2 2 0 012 2c0 1.11-.89 2-2 2a2 2 0 110-4zm0 1c-.55 0-1 .45-1 1s.45 1 1 1 1-.45 1-1c0-.1-.04-.19-.06-.28a.495.495 0 11-.66-.66A.875.875 0 004 3z" fill="currentColor"/></symbol><symbol id="endpass-ui-icon-file-add" viewBox="0 0 64 64"><path d="M44.5 2.5v12h12" stroke="currentColor" stroke-miterlimit="10" stroke-linecap="round" stroke-linejoin="round"/><path d="M44.5 2.5h-36v60h48v-48l-12-12z" stroke="currentColor" stroke-miterlimit="10" stroke-linecap="round" stroke-linejoin="round"/><path d="M32.5 24.5v16M40.5 32.5h-16" stroke="#6E32C9" stroke-miterlimit="10" stroke-linecap="round" stroke-linejoin="round"/></symbol><symbol id="endpass-ui-icon-github" viewBox="0 0 32 32"><path fill="#000" d="M15.999.396C7.164.396 0 7.559 0 16.397c0 7.068 4.584 13.065 10.943 15.181.8.147 1.092-.347 1.092-.771 0-.38-.014-1.386-.022-2.721-4.451.967-5.39-2.145-5.39-2.145-.728-1.848-1.776-2.34-1.776-2.34-1.453-.993.11-.973.11-.973 1.606.113 2.451 1.649 2.451 1.649 1.427 2.445 3.745 1.739 4.656 1.329.145-1.034.559-1.739 1.016-2.139-3.553-.404-7.288-1.776-7.288-7.908 0-1.747.623-3.175 1.647-4.293-.165-.405-.714-2.032.157-4.234 0 0 1.343-.43 4.4 1.64a15.355 15.355 0 014.006-.539c1.359.006 2.728.184 4.006.539 3.055-2.07 4.396-1.64 4.396-1.64.873 2.203.324 3.83.159 4.234 1.025 1.118 1.645 2.547 1.645 4.293 0 6.147-3.741 7.499-7.305 7.895.575.494 1.086 1.47 1.086 2.963 0 2.139-.02 3.865-.02 4.389 0 .428.288.926 1.1.769 6.352-2.12 10.932-8.113 10.932-15.18C32.001 7.557 24.837.394 16 .394z"/></symbol><symbol id="endpass-ui-icon-google" viewBox="0 0 30 32"><path fill="var(--color1, #d94f3d)" d="M16 7.333a8.622 8.622 0 015.564 2.031l4.36-4.152a14.655 14.655 0 00-12.602-3.634A14.642 14.642 0 002.862 9.49l4.915 3.789A8.68 8.68 0 0116 7.333z"/><path fill="var(--color2, #f2c042)" d="M7.333 16a8.622 8.622 0 01.444-2.721L2.862 9.49a14.615 14.615 0 000 13.018l4.915-3.789a8.617 8.617 0 01-.444-2.721z"/><path fill="var(--color3, #5085ed)" d="M30.067 13.333h-14v6H24a7.15 7.15 0 01-3.037 4.108l4.877 3.76c3.117-2.797 4.948-7.346 4.226-13.868z"/><path fill="var(--color4, #57a75c)" d="M20.961 23.44A9.315 9.315 0 0116 24.665a8.68 8.68 0 01-8.223-5.946l-4.915 3.789A14.678 14.678 0 0016 30.666a14.575 14.575 0 009.839-3.467l-4.877-3.759z"/></symbol><symbol id="endpass-ui-icon-home" viewBox="0 0 16 17"><path d="M13.357 15.5c.524 0 .874-.35.874-.874V6.764c0-.263-.088-.525-.35-.7L8.64 1.697a.919.919 0 00-1.136 0L2.262 6.065C2.087 6.239 2 6.5 2 6.764v7.862c0 .524.35.874.874.874h3.494v-4.368h3.495V15.5h3.494z" fill="currentColor"/></symbol><symbol id="endpass-ui-icon-jpg" viewBox="0 0 48 48"><path d="M44 27H4l-3-4 4-4h38l4 4-3 4z" fill="#007D79"/><path d="M41 47H7a2 2 0 01-2-2V3a2 2 0 012-2h24l12 12v32a2 2 0 01-2 2z" fill="currentColor"/><path d="M31 1v10a2 2 0 002 2h10L31 1z" fill="#B9BFC7"/><path d="M45 41H3a2 2 0 01-2-2V23h46v16a2 2 0 01-2 2z" fill="#00BAB6"/><path d="M14.748 38.465c-.387 0-.754-.037-1.101-.112v-1.65c.115.022.236.047.365.074.129.026.269.04.419.04.351 0 .602-.105.752-.316.15-.212.226-.573.226-1.086v-7.267h2.132v7.085c0 1.062-.233 1.868-.698 2.414-.465.546-1.164.818-2.095.818zM24.937 30.645c0 .878-.259 1.556-.776 2.033-.518.479-1.252.717-2.205.717h-.596V36h-2.122v-7.853h2.718c.992 0 1.737.217 2.234.649.498.434.747 1.051.747 1.849zm-3.577 1.021h.387c.319 0 .572-.09.76-.27.188-.179.282-.426.282-.74 0-.53-.293-.795-.881-.795h-.548v1.805zM29.34 31.402h3.39v4.232c-.92.315-1.932.473-3.035.473-1.21 0-2.146-.35-2.806-1.053-.661-.702-.991-1.703-.991-3.002 0-1.268.362-2.255 1.085-2.96.723-.705 1.737-1.058 3.04-1.058.494 0 .96.046 1.399.14.438.093.82.211 1.146.354l-.671 1.664a4.156 4.156 0 00-1.864-.418c-.62 0-1.1.201-1.437.604-.34.403-.508.98-.508 1.727 0 .734.153 1.294.459 1.68.307.384.748.576 1.324.576.315 0 .605-.03.87-.09v-1.23h-1.402v-1.639h.002z" fill="#fff"/></symbol><symbol id="endpass-ui-icon-loader" viewBox="0 0 16 16"><path fill-rule="evenodd" clip-rule="evenodd" d="M7.924 0C5.25 0 2.633 1.313 1.094 3.713A7.935 7.935 0 000 6.388l1.519.26c.157-.733.446-1.45.874-2.119a6.536 6.536 0 015.531-3.005 6.57 6.57 0 013.5 1.01c3.045 1.913 3.95 5.922 2.016 8.937a6.536 6.536 0 01-5.531 3.005 6.57 6.57 0 01-3.499-1.01 6.493 6.493 0 01-1.294-1.072l-1.164.999A8.106 8.106 0 007.909 16c2.675 0 5.292-1.313 6.831-3.713 2.392-3.73 1.277-8.672-2.491-11.04A8.106 8.106 0 007.924 0z" fill="currentColor"/></symbol><symbol id="endpass-ui-icon-logout" viewBox="0 0 16 15"><path d="M5.5 7.5h10M11.5 3.5l4 4-4 4M8.5 14.5h-7a1 1 0 01-1-1v-12a1 1 0 011-1h7" stroke="currentColor" stroke-miterlimit="10" stroke-linecap="round" stroke-linejoin="round"/></symbol><symbol id="endpass-ui-icon-menu" viewBox="0 0 16 12"><path fill-rule="evenodd" clip-rule="evenodd" d="M15 2H8a1 1 0 010-2h7a1 1 0 010 2zm-7 9.981H1a1 1 0 010-2h7a1 1 0 010 2zm-7-5h14a1 1 0 000-2H1a1 1 0 000 2z" fill="currentColor"/></symbol><symbol id="endpass-ui-icon-no-activities" viewBox="0 0 64 64"><path d="M38.5 55.5a6 6 0 11-12 0M52.764 42.5a22.712 22.712 0 01-2.262-9v-12a18 18 0 00-18-18v0a17.95 17.95 0 00-13.416 6M15.518 15.519a17.969 17.969 0 00-1.018 5.98v12c0 8-7 17-7 17h43" stroke="currentColor" stroke-miterlimit="10" stroke-linecap="round" stroke-linejoin="round"/><path d="M4.5 4.5l56 56" stroke="#6E32C9" stroke-miterlimit="10" stroke-linecap="round" stroke-linejoin="round"/></symbol><symbol id="endpass-ui-icon-no-permissons" viewBox="0 0 64 64"><path d="M17.19 47.81A52.12 52.12 0 013.039 34.173a2.9 2.9 0 01-.008-3.353C6.422 26.007 17.294 12.5 32.5 12.5a29.018 29.018 0 0115.31 4.687M52.41 20.5a55.431 55.431 0 019.555 10.311 2.9 2.9 0 01-.008 3.373C58.494 39 47.462 52.5 32.502 52.5a26.869 26.869 0 01-10.033-2" stroke="currentColor" stroke-miterlimit="10" stroke-linecap="round" stroke-linejoin="round"/><path d="M5.5 59.5l54-54M43.821 28.5A12.01 12.01 0 0128.5 43.816M24.021 40.985A12 12 0 0140.99 24.013" stroke="#6E32C9" stroke-miterlimit="10" stroke-linecap="round" stroke-linejoin="round"/></symbol><symbol id="endpass-ui-icon-pdf" viewBox="0 0 48 48"><path d="M44 27H4l-3-4 4-4h38l4 4-3 4z" fill="#A51920"/><path d="M41 47H7a2 2 0 01-2-2V3a2 2 0 012-2h24l12 12v32a2 2 0 01-2 2z" fill="currentColor"/><path d="M31 1v10a2 2 0 002 2h10L31 1z" fill="#B9BFC7"/><path d="M45 41H3a2 2 0 01-2-2V23h46v16a2 2 0 01-2 2z" fill="#DA1E28"/><path d="M20.07 30.645c0 .878-.258 1.556-.775 2.033-.518.479-1.252.717-2.205.717h-.596V36h-2.122v-7.853h2.718c.992 0 1.737.217 2.234.649.498.434.747 1.051.747 1.849zm-3.576 1.021h.387c.319 0 .572-.09.76-.27.188-.179.282-.426.282-.74 0-.53-.293-.795-.881-.795h-.548v1.805zM27.988 31.907c0 1.311-.361 2.32-1.083 3.029-.721.71-1.735 1.064-3.042 1.064h-2.541v-7.853h2.718c1.26 0 2.233.322 2.919.967.686.645 1.029 1.575 1.029 2.793zm-2.202.075c0-.72-.142-1.253-.427-1.601-.284-.348-.717-.521-1.297-.521h-.618v4.398h.473c.645 0 1.117-.188 1.418-.562.301-.374.451-.944.451-1.714zM31.484 36h-2.089v-7.853h4.641v1.702h-2.551v1.499h2.353v1.702h-2.353V36h-.001z" fill="#fff"/></symbol><symbol id="endpass-ui-icon-permission" viewBox="0 0 16 16"><path d="M6 11H1a1 1 0 01-1-1V6a1 1 0 011-1h5a1 1 0 011 1v4a1 1 0 01-1 1zM2 9h3V7H2v2z" fill="#6E32C9"/><path d="M15 5h-4V1H9v14h2v-4h4a1 1 0 001-1V6a1 1 0 00-1-1z" fill="currentColor"/></symbol><symbol id="endpass-ui-icon-png" viewBox="0 0 48 48"><path d="M44 27H4l-3-4 4-4h38l4 4-3 4z" fill="#D12765"/><path d="M41 47H7a2 2 0 01-2-2V3a2 2 0 012-2h24l12 12v32a2 2 0 01-2 2z" fill="currentColor"/><path d="M31 1v10a2 2 0 002 2h10L31 1z" fill="#B9BFC7"/><path d="M45 41H3a2 2 0 01-2-2V23h46v16a2 2 0 01-2 2z" fill="#EE538B"/><path d="M18.414 30.645c0 .878-.259 1.556-.775 2.033-.518.479-1.253.717-2.205.717h-.597V36h-2.122v-7.853h2.719c.991 0 1.736.217 2.234.649.497.434.746 1.051.746 1.849zm-3.577 1.021h.387c.319 0 .571-.09.761-.27.188-.179.281-.426.281-.74 0-.53-.293-.795-.881-.795h-.548v1.805zM27.143 36H24.36l-2.867-5.532h-.049c.068.87.102 1.534.102 1.993V36h-1.879v-7.853h2.771l2.857 5.457h.031a31.554 31.554 0 01-.074-1.907v-3.55h1.891V36zM31.992 31.402h3.39v4.232c-.92.315-1.933.473-3.035.473-1.21 0-2.146-.35-2.806-1.053-.662-.702-.992-1.703-.992-3.002 0-1.268.362-2.255 1.086-2.96.723-.705 1.736-1.058 3.04-1.058.493 0 .96.046 1.4.14.437.093.82.211 1.145.354l-.672 1.664a4.158 4.158 0 00-1.863-.418c-.62 0-1.1.201-1.438.604-.338.403-.508.98-.508 1.727 0 .734.154 1.294.46 1.68.306.384.747.576 1.323.576.315 0 .605-.03.871-.09v-1.23h-1.402v-1.639h.001z" fill="#fff"/></symbol><symbol id="endpass-ui-icon-profile" viewBox="0 0 16 17"><path d="M8 10.25A2.625 2.625 0 108 5a2.625 2.625 0 000 5.25z" fill="#6F28CC"/><path d="M8 1.5c-3.85 0-7 3.15-7 7s3.15 7 7 7 7-3.15 7-7-3.15-7-7-7zm3.5 10.85c-.525-.612-1.225-1.225-2.625-1.225h-1.75c-1.4 0-2.1.613-2.625 1.225-1.05-.963-1.75-2.275-1.75-3.85 0-2.888 2.362-5.25 5.25-5.25 2.887 0 5.25 2.362 5.25 5.25 0 1.575-.7 2.887-1.75 3.85z" fill="currentColor"/></symbol><symbol id="endpass-ui-icon-review" viewBox="0 0 16 16"><path d="M6.3 11.7l-2-2c-.4-.4-.4-1 0-1.4.4-.4 1-.4 1.4 0L7 9.6l3.3-3.3c.4-.4 1-.4 1.4 0 .4.4.4 1 0 1.4l-4 4c-.4.4-.9.5-1.4 0z" fill="#054ADA"/><path d="M15 1h-3v2h2v11H2V3h2V1H1c-.6 0-1 .4-1 1v13c0 .6.4 1 1 1h14c.6 0 1-.4 1-1V2c0-.6-.4-1-1-1z" fill="currentColor"/><path d="M11 0H5v4h6V0z" fill="#054ADA"/></symbol><symbol id="endpass-ui-icon-tiff" viewBox="0 0 48 48"><path d="M44 27H4l-3-4 4-4h38l4 4-3 4z" fill="#198038"/><path d="M41 47H7a2 2 0 01-2-2V3a2 2 0 012-2h24l12 12v32a2 2 0 01-2 2z" fill="currentColor"/><path d="M31 1v10a2 2 0 002 2h10L31 1z" fill="#B9BFC7"/><path d="M45 41H3a2 2 0 01-2-2V23h46v16a2 2 0 01-2 2z" fill="#3DBB61"/><path d="M17.219 36h-2.122v-6.117H13.18v-1.735h5.95v1.735H17.22V36zM20.254 36v-7.853h2.132V36h-2.132zM26.173 36h-2.089v-7.853h4.641v1.702h-2.551v1.499h2.353v1.702h-2.353V36h-.001zM32.103 36h-2.09v-7.853h4.642v1.702h-2.551v1.499h2.353v1.702h-2.353V36h-.001z" fill="#fff"/></symbol><symbol id="endpass-ui-icon-trash" viewBox="0 0 16 16"><path d="M2.5 6.5v7a2 2 0 002 2h8a2 2 0 002-2v-7M1.5 3.5h14M6.5 3.5v-3h4v3M8.5 7.5v5M11.5 7.5v5M5.5 7.5v5" stroke="currentColor" stroke-miterlimit="10" stroke-linecap="round" stroke-linejoin="round"/></symbol><symbol id="endpass-ui-icon-user-add" viewBox="0 0 61 61"><path d="M30.5 32.5c-7.732 0-14-6.268-14-14v-4c0-7.732 6.268-14 14-14s14 6.268 14 14v4c0 7.732-6.268 14-14 14zM34.5 42.5h-16c-9.941 0-18 8.059-18 18h58" stroke="currentColor" stroke-miterlimit="10" stroke-linecap="square"/><path d="M52.5 34.5v16M44.5 42.5h16" stroke="#6E32C9" stroke-miterlimit="10" stroke-linecap="square"/></symbol><symbol id="endpass-ui-icon-users" viewBox="0 0 16 16"><g clip-path="url(#clip0)"><path d="M10.2 11.4l-2.7-2C8.4 8.7 9 7.7 9 6.5v-.8C9 3.8 7.6 2.1 5.7 2 3.7 1.9 2 3.5 2 5.5v1c0 1.2.6 2.2 1.5 2.9L.8 11.5c-.5.4-.8 1-.8 1.6V15c0 .6.4 1 1 1h9c.6 0 1-.4 1-1v-2c0-.6-.3-1.2-.8-1.6z" fill="currentColor"/><path d="M15.1 6.4l-1.8-1.2c.4-.4.7-1 .7-1.7v-.9c0-1.2-.9-2.4-2.1-2.6-1.2-.2-2.2.5-2.7 1.4 1.1 1 1.8 2.4 1.8 4v1c0 .9-.2 1.8-.6 2.5 0 0 1.2.9 1.2 1H15c.6 0 1-.4 1-1v-.8c0-.7-.3-1.3-.9-1.7z" fill="#054ADA"/></g></symbol></svg>