<svg xmlns="http://www.w3.org/2000/svg" xmlns:xlink="http://www.w3.org/1999/xlink"><defs><linearGradient id="a" x1="0%" y1="6.301%" y2="93.699%"><stop offset="0%" stop-color="#B067FF"/><stop offset="100%" stop-color="#581AB4"/></linearGradient><clipPath id="clip0"><path fill="#fff" d="M0 0h16v16H0z"/></clipPath><path id="a" d="M9 .25a8.75 8.75 0 100 17.5A8.75 8.75 0 009 .25zM9 16.5a7.5 7.5 0 110-15 7.5 7.5 0 010 15zM8.375 4h1.25v6.875h-1.25V4zM9 12.125A.937.937 0 109 14a.937.937 0 000-1.875z"/><clipPath id="clip0"><path fill="#fff" d="M0 0h16v16H0z"/></clipPath><linearGradient id="a" x1="0%" y1=".003%" y2="99.997%"><stop offset="0%" stop-color="#B067FF"/><stop offset="100%" stop-color="#581AB4"/></linearGradient><clipPath id="clip0"><path fill="#fff" d="M0 0h16v16H0z"/></clipPath></defs><symbol id="endpass-ui-icon-action" viewBox="0 0 32 32"><path fill="currentColor" d="M24 0l8 8-8 8-1.88-1.88 4.773-4.787H0V6.666h26.893L22.12 1.879zM5.107 25.333L9.88 30.12 8 32l-8-8 8-8 1.88 1.88-4.773 4.787H32v2.667z"/></symbol><symbol id="endpass-ui-icon-activity-alt" viewBox="0 0 16 16"><path d="M7 16a.997.997 0 01-.707-.293l-2-2 1.414-1.414L7 13.586l3.293-3.293 1.414 1.414-4 4A.997.997 0 017 16z" fill="#054ADA"/><path d="M15 2h-2V0h-3v2H6V0H3v2H1a1 1 0 00-1 1v12a1 1 0 001 1h2v-2H2V7h12v7h-1v2h2a1 1 0 001-1V3a1 1 0 00-1-1z" fill="currentColor"/></symbol><symbol id="endpass-ui-icon-activity-solid" viewBox="0 0 18 19"><path d="M16.938 12.688L15.25 11V8.125a6.294 6.294 0 00-5.625-6.25V.625h-1.25v1.25a6.344 6.344 0 00-5.625 6.25V11l-1.687 1.688a.57.57 0 00-.188.437V15a.588.588 0 00.625.625h4.375a3.125 3.125 0 106.25 0H16.5a.588.588 0 00.625-.625v-1.875a.57.57 0 00-.187-.438zM9 17.5a1.875 1.875 0 01-1.875-1.875h3.75A1.875 1.875 0 019 17.5z" fill="currentColor"/></symbol><symbol id="endpass-ui-icon-activity" viewBox="0 0 16 16"><path d="M10 14H6c0 1.1.9 2 2 2s2-.9 2-2z" fill="#6E32C9"/><path d="M15 11h-.5c-.7-.7-1.5-1.7-1.5-3V5c0-2.8-2.2-5-5-5S3 2.2 3 5v3c0 1.3-.8 2.3-1.5 3H1c-.6 0-1 .4-1 1s.4 1 1 1h14c.6 0 1-.4 1-1s-.4-1-1-1z" fill="currentColor"/></symbol><symbol id="endpass-ui-icon-add-card" viewBox="0 0 62 58"><g fill="none" fill-rule="evenodd"><path d="M-17 77h96v-96h-96z"/><path fill="url(#a)" d="M57 .28A4.727 4.727 0 0161.722 5v32c0 2.368-1.758 4.316-4.034 4.652-.346 8.916-7.69 16.07-16.688 16.07-8.976 0-16.302-7.118-16.684-16H5A4.727 4.727 0 01.28 37V5A4.726 4.726 0 015 .28zM41 25.72c-8.426 0-15.28 6.853-15.28 15.279s6.854 15.28 15.28 15.28c8.426 0 15.28-6.854 15.28-15.28 0-8.426-6.854-15.278-15.28-15.278zm.721 7.28v7.28h7.28v1.44h-7.28V49H40.28v-7.28h-7.278v-1.44h7.278V33h1.442zM60.28 15.72H1.72V37c0 1.81 1.472 3.28 3.28 3.28h19.316c.382-8.883 7.708-16 16.684-16 8.952 0 16.262 7.076 16.68 15.926a3.287 3.287 0 002.6-3.208V15.72zm0-6H1.72v4.56h58.56V9.72zm-3.28-8H5A3.284 3.284 0 001.72 5v3.28h58.56V5c0-1.807-1.47-3.28-3.28-3.28z"/></g></symbol><symbol id="endpass-ui-icon-amex" viewBox="0 0 32 32"><g fill="none"><path fill="#006FCF" d="M29.333 4.667H2.667a2 2 0 00-2 2v18.666a2 2 0 002 2h26.666a2 2 0 002-2V6.667a2 2 0 00-2-2z"/><path fill="#FFF" d="M7.022 16.286h1.553L7.8 14.381l-.777 1.905zm21.645-3.62h-3.98l-.97 1.048-.874-1.047h-8.444l-.777 1.714-.777-1.714H9.448v.762l-.388-.762H6.148l-2.815 6.666h3.398l.388-1.047h.97l.388 1.047h3.786v-.762l.291.762h1.941l.292-.857v.857h7.765l.97-1.047.874 1.047h3.98L25.851 16l2.815-3.333zm-11.745 5.715h-1.068v-3.714l-1.65 3.714h-.97l-1.65-3.714v3.714H9.35l-.388-1.048h-2.33l-.388 1.048H4.983l2.038-4.762h1.65l1.844 4.476v-4.476h1.844l1.456 3.238 1.359-3.238h1.844v4.762h-.096zm9.61 0h-1.457l-1.262-1.62-1.456 1.62H17.99v-4.762h4.465l1.359 1.524 1.456-1.524h1.358L24.493 16l2.038 2.38zm-7.475-3.81v.858h2.427v.952h-2.427v.952h2.718l1.262-1.428-1.164-1.334h-2.816z"/></g></symbol><symbol id="endpass-ui-icon-app-add" viewBox="0 0 64 64"><path d="M8.5 37.5v-28a4 4 0 014-4h40a4 4 0 014 4v20M30.5 11.5h4M32.5 43.5h-30a8 8 0 008 8h22" stroke="currentColor" stroke-miterlimit="10" stroke-linecap="round" stroke-linejoin="round"/><path d="M50.5 43.5v8M46.5 47.5h8M50.5 59.5c6.627 0 12-5.373 12-12s-5.373-12-12-12-12 5.373-12 12 5.373 12 12 12z" stroke="#6E32C9" stroke-miterlimit="10" stroke-linecap="round" stroke-linejoin="round"/></symbol><symbol id="endpass-ui-icon-app-permission" viewBox="0 0 32 32"><path d="M17.5 26.5h-12a4 4 0 01-4-4h16M4.5 18.5v-14a2 2 0 012-2h20a2 2 0 012 2v10M15.5 6.5h2" stroke="currentColor" stroke-miterlimit="10" stroke-linecap="round" stroke-linejoin="round"/><path d="M31.5 24.5h-10v7h10v-7zM23.5 24.5v-3a3 3 0 116 0v3" stroke="#6E32C9" stroke-miterlimit="10" stroke-linecap="round" stroke-linejoin="round"/></symbol><symbol id="endpass-ui-icon-apple" viewBox="0 0 33 32"><path d="M27.789 21.005c-.618 1.367-.913 1.977-1.708 3.185-1.107 1.687-2.67 3.788-4.606 3.806-1.72.016-2.163-1.12-4.498-1.106-2.335.014-2.822 1.126-4.542 1.11-1.936-.017-3.416-1.915-4.525-3.603C4.81 19.68 4.487 14.143 6.4 11.2 7.757 9.107 9.9 7.885 11.916 7.885c2.051 0 3.341 1.124 5.039 1.124 1.646 0 2.648-1.126 5.02-1.126 1.794 0 3.694.976 5.048 2.663-4.437 2.43-3.715 8.764.766 10.459zM20.426 4.93c.862-1.106 1.516-2.667 1.278-4.263-1.408.096-3.054.992-4.016 2.16-.872 1.06-1.593 2.63-1.313 4.158 1.536.049 3.127-.87 4.05-2.054z" fill="currentColor"/></symbol><symbol id="endpass-ui-icon-apps" viewBox="0 0 16 16"><path d="M4 7a3 3 0 100-6 3 3 0 000 6z" fill="currentColor"/><path d="M12 7a3 3 0 100-6 3 3 0 000 6zM4 15a3 3 0 100-6 3 3 0 000 6z" fill="#6E32C9"/><path d="M12 15a3 3 0 100-6 3 3 0 000 6z" fill="currentColor"/></symbol><symbol id="endpass-ui-icon-arrow-left" viewBox="0 0 23 17"><path d="M21.5 8.5h-20M8.5 15.5l-7-7 7-7" stroke="currentColor" stroke-width="1.5" stroke-miterlimit="10" stroke-linecap="round" stroke-linejoin="round"/></symbol><symbol id="endpass-ui-icon-arrow-right" viewBox="0 0 23 17"><path d="M1.5 8.5h20M14.5 15.5l7-7-7-7" stroke="currentColor" stroke-width="1.5" stroke-miterlimit="10" stroke-linecap="round" stroke-linejoin="round"/></symbol><symbol id="endpass-ui-icon-ban" viewBox="0 0 16 16"><path d="M8 15.5a7.5 7.5 0 100-15 7.5 7.5 0 000 15zM2.697 13.303L13.303 2.697" stroke="currentColor" stroke-miterlimit="10" stroke-linecap="round" stroke-linejoin="round"/></symbol><symbol id="endpass-ui-icon-calendar" viewBox="0 0 16 16"><path fill-rule="evenodd" clip-rule="evenodd" d="M13 2h-2V1h-1v1H6V1H5v1H3a1 1 0 00-1 1v10a1 1 0 001 1h10a1 1 0 001-1V3a1 1 0 00-1-1zm0 11H3V6h10v7zm0-8H3V3h2v1h1V3h4v1h1V3h2v2z" fill="currentColor"/><mask id="a" maskUnits="userSpaceOnUse" x="2" y="1" width="12" height="13"><path fill-rule="evenodd" clip-rule="evenodd" d="M13 2h-2V1h-1v1H6V1H5v1H3a1 1 0 00-1 1v10a1 1 0 001 1h10a1 1 0 001-1V3a1 1 0 00-1-1zm0 11H3V6h10v7zm0-8H3V3h2v1h1V3h4v1h1V3h2v2z"/></mask></symbol><symbol id="endpass-ui-icon-card" viewBox="0 0 32 32"><g fill="none" fill-rule="evenodd"><path fill="#D4D9E2" d="M29.333 27.333H2.667a2 2 0 01-2-2V6.667a2 2 0 012-2h26.666a2 2 0 012 2v18.666a2 2 0 01-2 2z"/><path fill="#4E565D" d="M.667 8.667h30.667V14H.667z"/><path fill="#FFF" fill-rule="nonzero" d="M4.667 18h14.667v2.667H4.667z"/></g></symbol><symbol id="endpass-ui-icon-caret-down" viewBox="0 0 8 4"><path d="M8 0L4 4 0 0h8z" fill="currentColor"/></symbol><symbol id="endpass-ui-icon-caret-up" viewBox="0 0 8 4"><path d="M8 4L4 0 0 4h8z" fill="currentColor"/></symbol><symbol id="endpass-ui-icon-chart-bars" viewBox="0 0 16 16"><path fill="none" stroke="currentColor" stroke-linecap="round" stroke-linejoin="round" stroke-miterlimit="10" d="M.5 14.5h15M9.5 1.5h-3v10h3v-10zM3.5 6.5h-3v5h3v-5zM15.5 8.5h-3v3h3v-3z"/></symbol><symbol id="endpass-ui-icon-chart-lines" viewBox="0 0 16 16"><path fill="none" stroke="currentColor" stroke-linecap="round" stroke-linejoin="round" d="M.5 14.5L2.25 11M15.5 8.5l-5 5-7-5h-3 3l2-4 6 4 4-7"/></symbol><symbol id="endpass-ui-icon-check-alt" viewBox="0 0 16 16"><path fill-rule="evenodd" clip-rule="evenodd" d="M8 0C3.6 0 0 3.6 0 8s3.6 8 8 8 8-3.6 8-8-3.6-8-8-8zM7 11.4L3.6 8 5 6.6l2 2 4-4L12.4 6 7 11.4z" fill="currentColor"/></symbol><symbol id="endpass-ui-icon-check" viewBox="0 0 10 8"><path fill-rule="evenodd" clip-rule="evenodd" d="M3.75 7.438l-3.125-3.1.994-.982L3.75 5.47 8.381.875l.994.988L3.75 7.438z" fill="currentColor"/></symbol><symbol id="endpass-ui-icon-chevron-down" viewBox="0 0 16 16"><path fill-rule="evenodd" clip-rule="evenodd" d="M8 11L3 6l.707-.707L8 9.586l4.293-4.293L13 6l-5 5z" fill="currentColor"/><path fill-rule="evenodd" clip-rule="evenodd" d="M8 11L3 6l.707-.707L8 9.586l4.293-4.293L13 6l-5 5z" fill="currentColor"/></symbol><symbol id="endpass-ui-icon-chevron-left" viewBox="0 0 16 16"><path fill-rule="evenodd" clip-rule="evenodd" d="M5 8l5 5 .707-.707L6.414 8l4.293-4.293L10 3 5 8z" fill="currentColor"/><mask id="a" maskUnits="userSpaceOnUse" x="5" y="3" width="6" height="10"><path fill-rule="evenodd" clip-rule="evenodd" d="M5 8l5 5 .707-.707L6.414 8l4.293-4.293L10 3 5 8z"/></mask></symbol><symbol id="endpass-ui-icon-chevron-right" viewBox="0 0 16 16"><path fill-rule="evenodd" clip-rule="evenodd" d="M11 8l-5 5-.707-.707L9.586 8 5.293 3.707 6 3l5 5z" fill="currentColor"/><mask id="a" maskUnits="userSpaceOnUse" x="5" y="3" width="6" height="10"><path fill-rule="evenodd" clip-rule="evenodd" d="M11 8l-5 5-.707-.707L9.586 8 5.293 3.707 6 3l5 5z"/></mask></symbol><symbol id="endpass-ui-icon-chevron-up" viewBox="0 0 16 16"><path fill-rule="evenodd" clip-rule="evenodd" d="M8 5l5 5-.707.707L8 6.414l-4.293 4.293L3 10l5-5z" fill="currentColor"/><path fill-rule="evenodd" clip-rule="evenodd" d="M8 5l5 5-.707.707L8 6.414l-4.293 4.293L3 10l5-5z" fill="currentColor"/></symbol><symbol id="endpass-ui-icon-circle-mark" viewBox="0 0 32 32"><path d="M16 2a14 14 0 100 28 14 14 0 000-28zm0 26a12 12 0 110-24 12 12 0 010 24z" fill="currentColor"/><path d="M14 21.5l-5-4.96 1.59-1.57L14 18.35 21.41 11 23 12.58l-9 8.92z" fill="currentColor"/></symbol><symbol id="endpass-ui-icon-circle-minus" viewBox="0 0 32 32"><path d="M16 2C8.2 2 2 8.2 2 16s6.2 14 14 14 14-6.2 14-14S23.8 2 16 2zm0 26C9.4 28 4 22.6 4 16S9.4 4 16 4s12 5.4 12 12-5.4 12-12 12z" fill="currentColor"/><path d="M7.229 17.23v-2.2h17.6v2.2h-17.6z" fill="currentColor"/></symbol><symbol id="endpass-ui-icon-circle-time" viewBox="0 0 32 32"><path d="M16 30a14 14 0 110-28 14 14 0 010 28zm0-26a12 12 0 100 24 12 12 0 000-24z" fill="currentColor"/><path d="M20.59 22L15 16.41V7h2v8.58l5 5.01L20.59 22z" fill="currentColor"/></symbol><symbol id="endpass-ui-icon-circle-warning" viewBox="0 0 32 32"><path d="M16 2a14 14 0 100 28 14 14 0 000-28zm0 26a12 12 0 110-24 12 12 0 010 24z" fill="currentColor"/><path d="M15 8h2v11h-2V8zM16 22a1.5 1.5 0 100 3 1.5 1.5 0 000-3z" fill="currentColor"/></symbol><symbol id="endpass-ui-icon-close-circle" viewBox="0 0 15 15"><path d="M7.5 14.5a7 7 0 100-14 7 7 0 000 14zM10.5 4.5l-6 6M4.5 4.5l6 6" stroke="currentColor" stroke-miterlimit="10" stroke-linecap="round" stroke-linejoin="round"/></symbol><symbol id="endpass-ui-icon-close" viewBox="0 0 17 17"><path d="M15.5 1.5l-14 14M15.5 15.5l-14-14" stroke="currentColor" stroke-width="1.5" stroke-miterlimit="10" stroke-linecap="round" stroke-linejoin="round"/></symbol><symbol id="endpass-ui-icon-copy" viewBox="0 0 16 16"><path d="M14 5v9H5V5h9zm0-1H5c-.55 0-1 .45-1 1v9c0 .55.45 1 1 1h9c.55 0 1-.45 1-1V5c0-.55-.45-1-1-1z" fill="currentColor"/><path d="M2 9H1V2c0-.55.45-1 1-1h7v1H2v7z" fill="currentColor"/></symbol><symbol id="endpass-ui-icon-doc-type-address" viewBox="0 0 32 32"><path fill-rule="evenodd" clip-rule="evenodd" d="M16 24l-6.09-8.59C8.7 14 8 12.11 8 10.15c0-4.48 3.59-8.13 8-8.13s8 3.65 8 8.13c0 1.87-.64 3.69-1.8 5.13L16 24zm0-19.98c-3.31 0-6 2.75-6 6.13 0 1.48.53 2.91 1.49 4.03L16 20.55l4.63-6.49a6.238 6.238 0 001.37-3.9c0-3.39-2.69-6.14-6-6.14zm0 7a2 2 0 100-4 2 2 0 000 4zM26 12h2c1.1 0 2 .9 2 2v14c0 1.1-.9 2-2 2H4c-1.1 0-2-.9-2-2V14c0-1.1.9-2 2-2h2v2H4v14h24V14h-2v-2z" fill="currentColor"/></symbol><symbol id="endpass-ui-icon-doc-type-id" viewBox="0 0 32 32"><path fill-rule="evenodd" clip-rule="evenodd" d="M4 6h24v20H4V6zm24-2H4c-1.1 0-2 .9-2 2v20c0 1.1.9 2 2 2h24c1.1 0 2-.9 2-2V6c0-1.1-.9-2-2-2zm-15 6H6v2h7v-2zm-7 4h4v2H6v-2zm20 7c0-1.66-1.34-3-3-3h-6c-1.66 0-3 1.34-3 3v2h2v-2c0-.55.45-1 1-1h6c.55 0 1 .45 1 1v2h2v-2zm-2-8c0 2.21-1.79 4-4 4s-4-1.79-4-4 1.79-4 4-4 4 1.79 4 4zm-2 0c0-1.1-.9-2-2-2s-2 .9-2 2 .9 2 2 2 2-.9 2-2z" fill="currentColor"/></symbol><symbol id="endpass-ui-icon-doc-type-passport" viewBox="0 0 32 32"><path d="M16 2C8.27 2 2 8.27 2 16s6.27 14 14 14 14-6.27 14-14S23.73 2 16 2zm11.95 13h-5.99c-.11-3.68-1.05-7.29-2.75-10.55C24.04 5.8 27.52 10 27.95 15zM16 28c-.22 0-.45-.01-.67-.04A21.917 21.917 0 0112.03 17h7.93c-.1 3.88-1.24 7.66-3.3 10.96-.21.03-.44.04-.66.04zm-3.97-13c.1-3.88 1.24-7.66 3.3-10.96.45-.06.9-.06 1.34 0 2.05 3.29 3.19 7.08 3.3 10.96h-7.94zm.76-10.55c-1.7 3.26-2.65 6.87-2.75 10.55H4.05c.43-5 3.91-9.2 8.74-10.55zM4.05 17h5.99c.11 3.68 1.05 7.29 2.75 10.55A12.016 12.016 0 014.05 17zm15.16 10.55c1.7-3.26 2.65-6.87 2.75-10.55h5.99c-.43 5-3.91 9.2-8.74 10.55z" fill="currentColor"/></symbol><symbol id="endpass-ui-icon-doc-type-selfie" viewBox="0 0 32 32"><path d="M22 11h4a1 1 0 011 1v2h-6v-2a1 1 0 011-1zM24 10a2 2 0 100-4 2 2 0 000 4z" fill="currentColor"/><path d="M30 18H18a2.002 2.002 0 01-2-2V4a2.002 2.002 0 012-2h12a2.002 2.002 0 012 2v12a2.003 2.003 0 01-2 2zM18 4v12h12.001L30 4H18zM15 30h-2v-4a2.948 2.948 0 00-3-3H6a2.948 2.948 0 00-3 3v4H1v-4a4.95 4.95 0 015-5h4a4.95 4.95 0 015 5v4zM8 11a3 3 0 110 6 3 3 0 010-6zm0-2a5 5 0 100 10A5 5 0 008 9z" fill="currentColor"/></symbol><symbol id="endpass-ui-icon-docs-alt-2" viewBox="0 0 32 32"><path d="M2.5 8.5v19a3 3 0 003 3h22a3 3 0 003-3v-19" stroke="currentColor" stroke-miterlimit="10" stroke-linecap="round" stroke-linejoin="round"/><path d="M6.5 17.5v-15h20v15" stroke="#6E32C9" stroke-miterlimit="10" stroke-linecap="round" stroke-linejoin="round"/><path d="M2.5 21.5h9v3h10v-3h9" stroke="currentColor" stroke-miterlimit="10" stroke-linecap="round" stroke-linejoin="round"/><path d="M11.5 8.5h10M11.5 13.5h10" stroke="#6E32C9" stroke-miterlimit="10" stroke-linecap="round" stroke-linejoin="round"/></symbol><symbol id="endpass-ui-icon-docs-alt" viewBox="0 0 16 16"><path d="M3 2h10c.6 0 1-.4 1-1s-.4-1-1-1H3c-.6 0-1 .4-1 1s.4 1 1 1z" fill="#054ADA"/><path d="M15 4H1c-.6 0-1 .4-1 1v10c0 .6.4 1 1 1h14c.6 0 1-.4 1-1V5c0-.6-.4-1-1-1zm-3 7H4V7h2v2h4V7h2v4z" fill="currentColor"/></symbol><symbol id="endpass-ui-icon-docs" viewBox="0 0 16 16"><g clip-path="url(#clip0)"><path d="M14 0H2a1 1 0 00-1 1v6a1 1 0 001 1h12a1 1 0 001-1V1a1 1 0 00-1-1z" fill="currentColor"/><path d="M15 10H1v2h14v-2zM15 14H1v2h14v-2z" fill="#6E32C9"/></g></symbol><symbol id="endpass-ui-icon-docx" viewBox="0 0 48 48"><path d="M44 27H4l-3-4 4-4h38l4 4-3 4z" fill="#003D73"/><path d="M41 47H7a2 2 0 01-2-2V3a2 2 0 012-2h24l12 12v32a2 2 0 01-2 2z" fill="currentColor"/><path d="M31 1v10a2 2 0 002 2h10L31 1z" fill="#B9BFC7"/><path d="M45 41H3a2 2 0 01-2-2V23h46v16a2 2 0 01-2 2z" fill="#0072C3"/><path d="M15.55 31.907c0 1.311-.362 2.32-1.084 3.029-.722.71-1.736 1.064-3.042 1.064h-2.54v-7.853H11.6c1.261 0 2.233.322 2.92.967.685.645 1.028 1.575 1.028 2.793zm-2.204.075c0-.72-.142-1.253-.427-1.601-.284-.348-.717-.521-1.297-.521h-.618v4.398h.473c.645 0 1.117-.188 1.418-.562.301-.374.451-.944.451-1.714zM24.303 32.062c0 1.322-.324 2.326-.972 3.014-.648.688-1.597 1.03-2.847 1.03-1.232 0-2.176-.345-2.834-1.036-.656-.69-.984-1.697-.984-3.018 0-1.308.326-2.306.98-2.995.652-.69 1.603-1.034 2.849-1.034 1.249 0 2.196.343 2.841 1.026s.967 1.689.967 3.013zm-5.403 0c0 1.519.527 2.277 1.584 2.277.537 0 .936-.184 1.195-.553.259-.37.389-.943.389-1.725 0-.783-.131-1.363-.395-1.737-.264-.374-.656-.562-1.179-.562-1.062.002-1.594.768-1.594 2.3zM29.218 29.775c-.505 0-.899.206-1.182.62-.282.413-.425.983-.425 1.71 0 1.512.575 2.268 1.725 2.268a3.52 3.52 0 001.01-.146c.326-.097.653-.213.982-.349v1.793c-.654.291-1.396.436-2.223.436-1.186 0-2.094-.344-2.727-1.031-.632-.688-.947-1.682-.947-2.98 0-.813.152-1.527.459-2.144a3.286 3.286 0 011.32-1.421c.576-.331 1.252-.496 2.028-.496.849 0 1.659.184 2.433.553l-.649 1.67c-.29-.136-.58-.25-.87-.344a3.04 3.04 0 00-.934-.139zM39.934 36h-2.455l-1.531-2.455L34.434 36h-2.401l2.604-4.018-2.449-3.835h2.354l1.418 2.428 1.363-2.428h2.423l-2.487 4.001L39.934 36z" fill="#fff"/></symbol><symbol id="endpass-ui-icon-endpass" viewBox="0 0 17 22"><path d="M7.97 11.142V6.074L.25 11.09l3.899 2.534 3.82-2.482zM0 11.562l.013 5.068 7.956 5.173v-5.068L0 11.562zM12.197 8.398l4.136-2.691L8.495.626v5.37l3.702 2.402zM16.582 6.18L8.495 11.43v5.055l8.074-5.239.013-5.068z" fill="currentColor"/></symbol><symbol id="endpass-ui-icon-error-alt" viewBox="0 0 20 20"><use fill="#FF111E" fill-rule="evenodd" transform="translate(1 1)" xlink:href="#a"/></symbol><symbol id="endpass-ui-icon-error-bevel" viewBox="0 0 16 16"><path d="M11.314 0H4.686L0 4.686v6.628L4.686 16h6.628L16 11.314V4.686L11.314 0zM8 12a.946.946 0 01-1-1 .945.945 0 011-1 .945.945 0 011 1 .945.945 0 01-1 1zm1-3H7V4h2v5z" fill="currentColor"/></symbol><symbol id="endpass-ui-icon-error" viewBox="0 0 16 16"><path fill-rule="evenodd" clip-rule="evenodd" d="M8 15A7 7 0 108 1a7 7 0 000 14z" fill="currentColor"/><path fill-rule="evenodd" clip-rule="evenodd" d="M8.565 4H7.44v5.5h1.125V4zm.185 7.75a.75.75 0 11-1.5 0 .75.75 0 011.5 0z" fill="#fff"/><mask id="a" maskUnits="userSpaceOnUse" x="7" y="4" width="2" height="9"><path fill-rule="evenodd" clip-rule="evenodd" d="M8.565 4H7.44v5.5h1.125V4zm.185 7.75a.75.75 0 11-1.5 0 .75.75 0 011.5 0z" fill="#fff"/></mask></symbol><symbol id="endpass-ui-icon-eye-alt" viewBox="0 0 16 16"><path d="M.5 8s3-5.5 7.5-5.5S15.5 8 15.5 8s-3 5.5-7.5 5.5S.5 8 .5 8z" stroke="currentColor" stroke-miterlimit="10" stroke-linecap="round" stroke-linejoin="round"/><path d="M8 10.5a2.5 2.5 0 100-5 2.5 2.5 0 000 5z" stroke="currentColor" stroke-miterlimit="10" stroke-linecap="round" stroke-linejoin="round"/></symbol><symbol id="endpass-ui-icon-eye-crossed" viewBox="0 0 16 16"><g clip-path="url(#clip0)" stroke="currentColor" stroke-miterlimit="10" stroke-linecap="round" stroke-linejoin="round"><path d="M.5 10s3-5.5 7.5-5.5 7.5 5.5 7.5 5.5-3 5.5-7.5 5.5S.5 10 .5 10zM5 10a3 3 0 013-3M11 10a3 3 0 01-3 3M1 17L15 3"/></g></symbol><symbol id="endpass-ui-icon-eye" viewBox="0 0 8 8"><path d="M4.03 1C1.5 1 0 4 0 4s1.5 3 4.03 3C6.5 7 8 4 8 4S6.5 1 4.03 1zM4 2a2 2 0 012 2c0 1.11-.89 2-2 2a2 2 0 110-4zm0 1c-.55 0-1 .45-1 1s.45 1 1 1 1-.45 1-1c0-.1-.04-.19-.06-.28a.495.495 0 11-.66-.66A.875.875 0 004 3z" fill="currentColor"/></symbol><symbol id="endpass-ui-icon-feature-1" viewBox="0 0 46 46"><path d="M44 29H2a2 2 0 01-2-2V2a2 2 0 012-2h42a2 2 0 012 2v25a2 2 0 01-2 2z" fill="#C9DEFF"/><path d="M37 24l-26-9 8 27 5-9 12 12 4-4-12-12 9-5z" fill="#034ADA"/><path fill-rule="evenodd" clip-rule="evenodd" d="M35.293 45.707a.997.997 0 001.414-.001l4-4a.999.999 0 000-1.414L29.645 29.23l7.841-4.356a1 1 0 00-.158-1.82l-26-9a1.001 1.001 0 00-1.287 1.229l8 27a1.002 1.002 0 001.833.203l4.356-7.841 11.063 11.062zM24.707 32.293a.997.997 0 00-1.58.222l-3.844 6.918-6.771-22.851 22.046 7.63-7.043 3.914a.998.998 0 00-.222 1.581L38.586 41 36 43.586 24.707 32.293z" fill="#fff"/></symbol><symbol id="endpass-ui-icon-feature-10" viewBox="0 0 81 93"><path d="M50.625 56.604h-48.5a2.02 2.02 0 110-4.041h48.5a2.02 2.02 0 110 4.041z" fill="#BA66DD"/><path d="M78.917 72.77H26.375a2.02 2.02 0 01-2.02-2.02v-48.5a2.02 2.02 0 012.02-2.02h52.542a2.022 2.022 0 011.916 2.66l-7.87 23.61 7.87 23.61a2.017 2.017 0 01-1.916 2.66z" fill="#6598E9"/><path d="M26.375 72.77a2.023 2.023 0 01-2.02-2.02v-48.5a2.02 2.02 0 012.02-2.02h24.25a2.02 2.02 0 012.02 2.02v32.333a2.02 2.02 0 01-.899 1.682L27.496 72.43a2.02 2.02 0 01-1.12.34z" fill="#99BBF1"/><path d="M50.625 56.604h-48.5a2.02 2.02 0 01-2.02-2.02v-48.5a2.02 2.02 0 012.02-2.021h48.5a2.02 2.02 0 012.02 2.02v48.5a2.02 2.02 0 01-2.02 2.021z" fill="#CCDDF8"/><path d="M2.125 92.98a2.02 2.02 0 01-2.02-2.022V2.042a2.02 2.02 0 114.04 0v88.916a2.02 2.02 0 01-2.02 2.021z" fill="#6598E9"/></symbol><symbol id="endpass-ui-icon-feature-11" viewBox="0 0 81 69"><path d="M50.625 52.542h-48.5a2.02 2.02 0 110-4.042h48.5a2.02 2.02 0 110 4.042z" fill="#BA66DD"/><path d="M78.917 68.708H26.375a2.02 2.02 0 01-2.02-2.02v-48.5a2.02 2.02 0 012.02-2.021h52.542a2.022 2.022 0 011.916 2.66l-7.87 23.61 7.87 23.611a2.017 2.017 0 01-1.916 2.66z" fill="#85A9FF"/><path d="M26.375 68.708a2.023 2.023 0 01-2.02-2.02v-48.5a2.02 2.02 0 012.02-2.021h24.25a2.02 2.02 0 012.02 2.02v32.334a2.02 2.02 0 01-.899 1.681L27.496 68.37a2.02 2.02 0 01-1.12.34z" fill="#99BBF1"/><path d="M50.625 52.542h-48.5a2.02 2.02 0 01-2.02-2.021V2.02A2.02 2.02 0 012.124 0h48.5a2.02 2.02 0 012.02 2.02v48.5a2.02 2.02 0 01-2.02 2.022z" fill="#CCDDF8"/></symbol><symbol id="endpass-ui-icon-feature-2" viewBox="0 0 44 44"><path d="M2.293 14.707a1 1 0 001.414 0L9 9.414l5.293 5.293a1 1 0 001.414-1.414L10.414 8l5.293-5.293a1 1 0 10-1.414-1.414L9 6.586 3.707 1.293a1 1 0 00-1.414 1.414L7.586 8l-5.293 5.293a1 1 0 000 1.414zM42.707 28.293a1 1 0 00-1.414 0L36 33.586l-5.293-5.293a1 1 0 00-1.414 1.414L34.586 35l-5.293 5.293a1 1 0 101.414 1.414L36 36.414l5.293 5.293a1 1 0 001.414-1.414L37.414 35l5.293-5.293a1 1 0 000-1.414z" fill="#C9DEFF"/><path d="M9 44a9 9 0 100-18 9 9 0 000 18z" fill="#97C1FF"/><path d="M43 0H29a1 1 0 00-.707 1.707L34.586 8 20.293 22.293a1 1 0 101.414 1.414L36 9.414l6.293 6.293A1 1 0 0044 15V1a1 1 0 00-1-1z" fill="#034ADA"/></symbol><symbol id="endpass-ui-icon-feature-3" viewBox="0 0 56 56"><path d="M45.043 6.087H10.956a4.87 4.87 0 00-4.87 4.87v34.086a4.87 4.87 0 004.87 4.87h34.087a4.87 4.87 0 004.87-4.87V10.956a4.87 4.87 0 00-4.87-4.87z" fill="#C9DEFF"/><path d="M1.217 17.044h4.87v2.434h-4.87a1.217 1.217 0 110-2.434zM1.217 26.783h4.87v2.434h-4.87a1.217 1.217 0 010-2.434zM1.217 36.522h4.87v2.434h-4.87a1.217 1.217 0 110-2.434zM54.783 19.478h-4.87v-2.434h4.87a1.217 1.217 0 110 2.434zM54.783 29.217h-4.87v-2.434h4.87a1.217 1.217 0 010 2.434zM54.783 38.956h-4.87v-2.434h4.87a1.217 1.217 0 110 2.434z" fill="#97C1FF"/><path d="M13.613 43.826h28.774a1.44 1.44 0 001.44-1.439V13.391c0-.672-.546-1.217-1.218-1.217H13.613a1.44 1.44 0 00-1.439 1.439v28.774a1.44 1.44 0 001.439 1.44z" fill="#034ADA"/><path fill="#97C1FF" d="M14.609 14.609h26.783v26.783H14.609zM19.478 6.087h-2.434v-4.87a1.217 1.217 0 112.434 0v4.87zM38.956 6.087h-2.434v-4.87a1.217 1.217 0 012.434 0v4.87zM29.217 6.087h-2.434v-4.87a1.217 1.217 0 112.434 0v4.87zM17.044 49.913h2.434v4.87a1.217 1.217 0 01-2.434 0v-4.87zM36.522 49.913h2.434v4.87a1.217 1.217 0 01-2.434 0v-4.87zM26.783 49.913h2.434v4.87a1.217 1.217 0 01-2.434 0v-4.87z"/><path fill-rule="evenodd" clip-rule="evenodd" d="M17.409 35.183l5.855-15.705h2.788l5.844 15.705h-2.714l-1.567-4.344h-5.98l-1.53 4.344H17.41zM23.8 24.56l-1.412 4.076 4.553.002-1.461-4.26a22.26 22.26 0 01-.446-1.348 32.643 32.643 0 01-.39-1.348 24.167 24.167 0 01-.844 2.878z" fill="#fff"/><path fill="#fff" d="M34.087 19.543h2.435v15.643h-2.435z"/></symbol><symbol id="endpass-ui-icon-feature-4" viewBox="0 0 42 42"><path fill-rule="evenodd" clip-rule="evenodd" d="M20.293 37.707a1 1 0 001.414 0l16-16a1 1 0 000-1.414l-16-16a1 1 0 00-1.414 0l-16 16a1 1 0 000 1.414l16 16zM21 35.586L6.414 21 21 6.414 35.586 21 21 35.586z" fill="#D0B0FF"/><path d="M5 10A5 5 0 105 0a5 5 0 000 10zM37 10a5 5 0 100-10 5 5 0 000 10zM21 16a5 5 0 100 10 5 5 0 000-10zM5 32a5 5 0 100 10 5 5 0 000-10zM37 32a5 5 0 100 10 5 5 0 000-10z" fill="#8A3FFC"/><rect x="32" y="16" width="10" height="10" rx="2" fill="#D0B0FF"/><rect y="16" width="10" height="10" rx="2" fill="#D0B0FF"/><rect x="16" width="10" height="10" rx="2" fill="#D0B0FF"/><rect x="16" y="32" width="10" height="10" rx="2" fill="#D0B0FF"/></symbol><symbol id="endpass-ui-icon-feature-5" viewBox="0 0 42 42"><path d="M39 0H3a3 3 0 00-3 3v36a3 3 0 003 3h36a3 3 0 003-3V3a3 3 0 00-3-3z" fill="#E6D6FF"/><rect x="2" y="17" width="38" height="23" rx="1" fill="#A66EFA"/><rect x="5" y="25" width="14" height="2" rx="1" fill="#fff"/><rect x="5" y="35" width="14" height="2" rx="1" fill="#fff"/><rect x="5" y="30" width="14" height="2" rx="1" fill="#fff"/><rect x="23" y="25" width="14" height="2" rx="1" fill="#fff"/><rect x="5" y="20" width="14" height="2" rx="1" fill="#fff"/><rect x="23" y="20" width="14" height="2" rx="1" fill="#fff"/><rect x="23" y="35" width="14" height="2" rx="1" fill="#fff"/><rect x="23" y="30" width="14" height="2" rx="1" fill="#fff"/><rect x="4" y="4" width="15" height="9" rx="1" fill="#D0B0FF"/><rect x="23" y="4" width="15" height="9" rx="1" fill="#D0B0FF"/><path fill="#F7F1FF" d="M7 7h9v3H7zM26 7h9v3h-9z"/></symbol><symbol id="endpass-ui-icon-feature-6" viewBox="0 0 49 56"><path d="M47.367 5.12L24.458.03c-.182-.04-.37-.04-.552 0L.996 5.12C.415 5.25 0 5.767 0 6.364v25.454C0 45.173 10.827 56 24.182 56c13.355 0 24.182-10.827 24.182-24.182V6.364c0-.597-.414-1.114-.997-1.244z" fill="#C9DEFF"/><path d="M47.3 5.097L24.39.007a1.272 1.272 0 00-.208 0v55.966c13.323-.05 24.1-10.858 24.114-24.181V6.337a1.273 1.273 0 00-.996-1.24z" fill="#97C1FF"/><path fill-rule="evenodd" clip-rule="evenodd" d="M30.546 25.455h3.818c.703 0 1.272.57 1.272 1.272v12.728c0 .703-.57 1.272-1.272 1.272H14c-.703 0-1.273-.57-1.273-1.272V26.727c0-.703.57-1.272 1.273-1.272h3.818V19.09a6.364 6.364 0 0112.727 0v6.364zM20.364 19.09v6.364H28V19.09a3.818 3.818 0 10-7.636 0z" fill="#034ADA"/></symbol><symbol id="endpass-ui-icon-feature-7" viewBox="0 0 52 54"><g fill-rule="nonzero" fill="none"><path d="M2.667 25.833h3.5v14h-3.5A2.34 2.34 0 01.333 37.5v-9.333a2.34 2.34 0 012.334-2.334zM49.333 39.833h-3.5v-14h3.5a2.34 2.34 0 012.334 2.334V37.5a2.34 2.34 0 01-2.334 2.333zM38.833 53.833H13.167a2.34 2.34 0 01-2.334-2.333V48h30.334v3.5a2.34 2.34 0 01-2.334 2.333zM15.5 17.667V6c0-.7.467-1.167 1.167-1.167S17.833 5.3 17.833 6v11.667c0 .7-.466 1.166-1.166 1.166s-1.167-.466-1.167-1.166zM34.167 17.667V6c0-.7.466-1.167 1.166-1.167S36.5 5.3 36.5 6v11.667c0 .7-.467 1.166-1.167 1.166s-1.166-.466-1.166-1.166z" fill="#6698E9"/><path d="M16.667 9.5a4.667 4.667 0 100-9.333 4.667 4.667 0 000 9.333zM35.333 9.5a4.667 4.667 0 100-9.333 4.667 4.667 0 000 9.333z" fill="#99BBF0"/><path d="M7.333 14.167h37.334A2.34 2.34 0 0147 16.5v32.667a2.34 2.34 0 01-2.333 2.333H7.333A2.34 2.34 0 015 49.167V16.5a2.34 2.34 0 012.333-2.333z" fill="#CCDDF8"/><path d="M16.667 31.667a4.667 4.667 0 100-9.334 4.667 4.667 0 000 9.334zM35.333 31.667a4.667 4.667 0 100-9.334 4.667 4.667 0 000 9.334z" fill="#0054DA"/><path d="M36.5 37.5c0-.7-.467-1.167-1.167-1.167H16.667c-.7 0-1.167.467-1.167 1.167v1.167h21V37.5z" fill="#FFF"/><path d="M15.617 38.667c.7 5.716 5.833 9.916 11.666 9.216 4.9-.583 8.634-4.433 9.217-9.216H15.617z" fill="#3376E1"/><path d="M20.283 46.25a10.66 10.66 0 0011.434 0c-2.217-3.15-6.534-3.967-9.684-1.75-.7.583-1.283 1.167-1.75 1.75z" fill="#99BBF0"/></g></symbol><symbol id="endpass-ui-icon-feature-8" viewBox="0 0 50 50"><g fill-rule="nonzero" fill="none"><path d="M5.167.5h39.666A4.68 4.68 0 0149.5 5.167v39.666a4.68 4.68 0 01-4.667 4.667H5.167A4.68 4.68 0 01.5 44.833V5.167A4.68 4.68 0 015.167.5z" fill="#C9DEFF"/><path d="M43.083 8.667a1.75 1.75 0 100-3.5 1.75 1.75 0 000 3.5zM6.917 8.667a1.75 1.75 0 100-3.5 1.75 1.75 0 000 3.5zM43.083 44.833a1.75 1.75 0 100-3.5 1.75 1.75 0 000 3.5zM6.917 44.833a1.75 1.75 0 100-3.5 1.75 1.75 0 000 3.5z" fill="#99BBF0"/><path d="M32.817 29.317v7c0 .933-.817 1.75-1.75 1.75H18.933c-.933 0-1.75-.817-1.75-1.75v-7c0 1.983 1.517 3.5 3.5 3.5h8.75c1.867 0 3.384-1.517 3.384-3.5z" fill="#3376E1"/><path d="M32.817 13.683v15.75c0 1.984-1.517 3.5-3.5 3.5h-8.75c-1.984 0-3.5-1.516-3.5-3.5v-15.75c0-.933.816-1.75 1.75-1.75h12.25c1.05 0 1.75.7 1.75 1.75z" fill="#0054DA"/><path d="M32.817 25.817v3.5c0 1.983-1.517 3.5-3.5 3.5h-8.75c-1.984 0-3.5-1.517-3.5-3.5v-3.5h15.75z" fill="#99BBF0"/><path d="M23.25 17.183h3.5c.467 0 .817.35.817.817v7.817h-5.25V18c.116-.467.466-.817.933-.817z" fill="#FFF"/></g></symbol><symbol id="endpass-ui-icon-feature-9" viewBox="0 0 90 84"><path d="M42.5 60.73C17.365 60.73 1.012 32.614.33 31.426a2.02 2.02 0 010-1.998C1.003 28.224 17.24.104 42.5.104c25.133 0 41.488 28.114 42.17 29.302a2.02 2.02 0 010 2.011c-.692 1.204-17.166 29.312-42.17 29.312z" fill="#CCDDF8"/><path d="M42.5 52.646c12.277 0 22.23-9.953 22.23-22.23 0-12.276-9.953-22.229-22.23-22.229-12.277 0-22.23 9.953-22.23 22.23 0 12.276 9.953 22.229 22.23 22.229z" fill="#6598E9"/><path d="M42.5 42.542c6.697 0 12.125-5.429 12.125-12.125 0-6.697-5.428-12.125-12.125-12.125S30.375 23.72 30.375 30.417c0 6.696 5.428 12.125 12.125 12.125z" fill="#0153DA"/><path d="M33.406 28.396a5.052 5.052 0 100-10.104 5.052 5.052 0 000 10.104z" fill="#fff"/><path d="M89.224 78.917L77.517 67.21a18.242 18.242 0 10-4.286 4.286l11.707 11.707 4.286-4.286z" fill="#3376E2"/><path d="M62.708 70.833c7.813 0 14.146-6.333 14.146-14.145 0-7.813-6.333-14.146-14.146-14.146-7.812 0-14.145 6.333-14.145 14.145 0 7.813 6.333 14.146 14.145 14.146z" fill="#99BBF1"/></symbol><symbol id="endpass-ui-icon-feature-docs-fine" viewBox="0 0 81 80"><path d="M13.5 45.625v-42.5h55v42.5M78 53.125v25H3v-25h25v7.5h25v-7.5h25z" stroke="#07AB37" stroke-miterlimit="10" stroke-linecap="square"/><path d="M28 29.375l7.5 7.5 17.5-17.5" stroke="#07AB37" stroke-miterlimit="10" stroke-linecap="square"/></symbol><symbol id="endpass-ui-icon-feature-wait" viewBox="0 0 69 77"><path d="M.625 12.375h52.5" stroke="#792BEF" stroke-miterlimit="10"/><path d="M.625 62.375h30M35.625 76.125H6.875a6.25 6.25 0 01-6.25-6.25v-62.5a6.25 6.25 0 016.25-6.25h40a6.25 6.25 0 016.25 6.25v31.25" stroke="#792BEF" stroke-miterlimit="10" stroke-linecap="square"/><path d="M53.125 76.125c8.284 0 15-6.716 15-15 0-8.284-6.716-15-15-15-8.284 0-15 6.716-15 15 0 8.284 6.716 15 15 15z" stroke="#792BEF" stroke-miterlimit="10" stroke-linecap="square"/><path d="M53.125 53.625v7.5h7.5" stroke="#792BEF" stroke-miterlimit="10" stroke-linecap="square"/></symbol><symbol id="endpass-ui-icon-file-add" viewBox="0 0 64 64"><path d="M44.5 2.5v12h12" stroke="currentColor" stroke-miterlimit="10" stroke-linecap="round" stroke-linejoin="round"/><path d="M44.5 2.5h-36v60h48v-48l-12-12z" stroke="currentColor" stroke-miterlimit="10" stroke-linecap="round" stroke-linejoin="round"/><path d="M32.5 24.5v16M40.5 32.5h-16" stroke="#6E32C9" stroke-miterlimit="10" stroke-linecap="round" stroke-linejoin="round"/></symbol><symbol id="endpass-ui-icon-file-view" viewBox="0 0 20 20"><path d="M13.75 16.25a1.25 1.25 0 100-2.5 1.25 1.25 0 000 2.5z" fill="currentColor"/><path d="M13.75 17.5a2.5 2.5 0 110-5 2.5 2.5 0 010 5zm0-3.75a1.25 1.25 0 100 2.5 1.25 1.25 0 000-2.5z" fill="transparent"/><path d="M18.61 14.674a5.4 5.4 0 00-4.86-3.424 5.4 5.4 0 00-4.86 3.424L8.75 15l.14.326a5.4 5.4 0 004.86 3.424 5.4 5.4 0 004.86-3.424l.14-.326-.14-.326zM13.75 17.5a2.5 2.5 0 110-5 2.5 2.5 0 010 5z" fill="currentColor"/><path d="M7.5 17.5H5v-15h5v3.75a1.254 1.254 0 001.25 1.25H15V10h1.25V6.25a.568.568 0 00-.188-.437l-4.375-4.375a.567.567 0 00-.437-.188H5A1.254 1.254 0 003.75 2.5v15A1.254 1.254 0 005 18.75h2.5V17.5zm3.75-14.75l3.5 3.5h-3.5v-3.5z" fill="currentColor"/></symbol><symbol id="endpass-ui-icon-form" viewBox="0 0 32 32"><path fill-rule="evenodd" clip-rule="evenodd" d="M3.41 8L6 10.59 12.59 4 14 5.41l-8 8-4-4L3.41 8zM16 8h14v2H16V8zm14 14H16v2h14v-2zM3.41 22L6 24.59 12.59 18 14 19.41l-8 8-4-4L3.41 22z" fill="currentColor"/></symbol><symbol id="endpass-ui-icon-github" viewBox="0 0 32 32"><path fill="#000" d="M15.999.396C7.164.396 0 7.559 0 16.397c0 7.068 4.584 13.065 10.943 15.181.8.147 1.092-.347 1.092-.771 0-.38-.014-1.386-.022-2.721-4.451.967-5.39-2.145-5.39-2.145-.728-1.848-1.776-2.34-1.776-2.34-1.453-.993.11-.973.11-.973 1.606.113 2.451 1.649 2.451 1.649 1.427 2.445 3.745 1.739 4.656 1.329.145-1.034.559-1.739 1.016-2.139-3.553-.404-7.288-1.776-7.288-7.908 0-1.747.623-3.175 1.647-4.293-.165-.405-.714-2.032.157-4.234 0 0 1.343-.43 4.4 1.64a15.355 15.355 0 014.006-.539c1.359.006 2.728.184 4.006.539 3.055-2.07 4.396-1.64 4.396-1.64.873 2.203.324 3.83.159 4.234 1.025 1.118 1.645 2.547 1.645 4.293 0 6.147-3.741 7.499-7.305 7.895.575.494 1.086 1.47 1.086 2.963 0 2.139-.02 3.865-.02 4.389 0 .428.288.926 1.1.769 6.352-2.12 10.932-8.113 10.932-15.18C32.001 7.557 24.837.394 16 .394z"/></symbol><symbol id="endpass-ui-icon-google-play" viewBox="0 0 27 29"><path d="M26.574 14.495c0 .906-.507 1.703-1.244 2.114l-6.281 3.49-5.315-5.604 5.315-5.605 6.281 3.491a2.429 2.429 0 011.244 2.114z" fill="#FFC107"/><path d="M13.734 14.495L.689 28.253A2.355 2.355 0 010 26.574V2.416c0-.652.254-1.244.689-1.68l13.045 13.759z" fill="#03A9F4"/><path d="M13.734 14.495l5.315 5.605C3.137 28.827 2.47 30.134.689 28.253l13.045-13.758z" fill="#F44336"/><path d="M19.049 8.89l-5.315 5.605L.688.737a2.4 2.4 0 012.9-.435l15.46 8.588z" fill="#4CAF50"/></symbol><symbol id="endpass-ui-icon-google" viewBox="0 0 30 32"><path fill="var(--color1, #d94f3d)" d="M16 7.333a8.622 8.622 0 015.564 2.031l4.36-4.152a14.655 14.655 0 00-12.602-3.634A14.642 14.642 0 002.862 9.49l4.915 3.789A8.68 8.68 0 0116 7.333z"/><path fill="var(--color2, #f2c042)" d="M7.333 16a8.622 8.622 0 01.444-2.721L2.862 9.49a14.615 14.615 0 000 13.018l4.915-3.789a8.617 8.617 0 01-.444-2.721z"/><path fill="var(--color3, #5085ed)" d="M30.067 13.333h-14v6H24a7.15 7.15 0 01-3.037 4.108l4.877 3.76c3.117-2.797 4.948-7.346 4.226-13.868z"/><path fill="var(--color4, #57a75c)" d="M20.961 23.44A9.315 9.315 0 0116 24.665a8.68 8.68 0 01-8.223-5.946l-4.915 3.789A14.678 14.678 0 0016 30.666a14.575 14.575 0 009.839-3.467l-4.877-3.759z"/></symbol><symbol id="endpass-ui-icon-grid-view" viewBox="0 0 21 21"><path d="M20.5.5H.5v20h20V.5z" stroke="currentColor" stroke-miterlimit="10" stroke-linecap="square"/><path d="M8.5 4.5h-4v4h4v-4zM16.5 4.5h-4v4h4v-4zM8.5 12.5h-4v4h4v-4zM16.5 12.5h-4v4h4v-4z" stroke="currentColor" stroke-miterlimit="10" stroke-linecap="square"/></symbol><symbol id="endpass-ui-icon-home" viewBox="0 0 16 17"><path d="M13.357 15.5c.524 0 .874-.35.874-.874V6.764c0-.263-.088-.525-.35-.7L8.64 1.697a.919.919 0 00-1.136 0L2.262 6.065C2.087 6.239 2 6.5 2 6.764v7.862c0 .524.35.874.874.874h3.494v-4.368h3.495V15.5h3.494z" fill="currentColor"/></symbol><symbol id="endpass-ui-icon-info" viewBox="0 0 16 16"><path fill-rule="evenodd" clip-rule="evenodd" d="M8.5 10.5V6h-2v1h1v3.5H6v1h4v-1H8.5zm-.5-7A.75.75 0 108 5a.75.75 0 000-1.5zM8 15a7 7 0 117-7 7.008 7.008 0 01-7 7zM8 2a6 6 0 106 6 6.007 6.007 0 00-6-6z" fill="currentColor"/><mask id="a" maskUnits="userSpaceOnUse" x="1" y="1" width="14" height="14"><path fill-rule="evenodd" clip-rule="evenodd" d="M8.5 10.5V6h-2v1h1v3.5H6v1h4v-1H8.5zm-.5-7A.75.75 0 108 5a.75.75 0 000-1.5zM8 15a7 7 0 117-7 7.008 7.008 0 01-7 7zM8 2a6 6 0 106 6 6.007 6.007 0 00-6-6z" fill="#fff"/></mask></symbol><symbol id="endpass-ui-icon-jpg" viewBox="0 0 48 48"><path d="M44 27H4l-3-4 4-4h38l4 4-3 4z" fill="#007D79"/><path d="M41 47H7a2 2 0 01-2-2V3a2 2 0 012-2h24l12 12v32a2 2 0 01-2 2z" fill="currentColor"/><path d="M31 1v10a2 2 0 002 2h10L31 1z" fill="#B9BFC7"/><path d="M45 41H3a2 2 0 01-2-2V23h46v16a2 2 0 01-2 2z" fill="#00BAB6"/><path d="M14.748 38.465c-.387 0-.754-.037-1.101-.112v-1.65c.115.022.236.047.365.074.129.026.269.04.419.04.351 0 .602-.105.752-.316.15-.212.226-.573.226-1.086v-7.267h2.132v7.085c0 1.062-.233 1.868-.698 2.414-.465.546-1.164.818-2.095.818zM24.937 30.645c0 .878-.259 1.556-.776 2.033-.518.479-1.252.717-2.205.717h-.596V36h-2.122v-7.853h2.718c.992 0 1.737.217 2.234.649.498.434.747 1.051.747 1.849zm-3.577 1.021h.387c.319 0 .572-.09.76-.27.188-.179.282-.426.282-.74 0-.53-.293-.795-.881-.795h-.548v1.805zM29.34 31.402h3.39v4.232c-.92.315-1.932.473-3.035.473-1.21 0-2.146-.35-2.806-1.053-.661-.702-.991-1.703-.991-3.002 0-1.268.362-2.255 1.085-2.96.723-.705 1.737-1.058 3.04-1.058.494 0 .96.046 1.399.14.438.093.82.211 1.146.354l-.671 1.664a4.156 4.156 0 00-1.864-.418c-.62 0-1.1.201-1.437.604-.34.403-.508.98-.508 1.727 0 .734.153 1.294.459 1.68.307.384.748.576 1.324.576.315 0 .605-.03.87-.09v-1.23h-1.402v-1.639h.002z" fill="#fff"/></symbol><symbol id="endpass-ui-icon-keypass" viewBox="0 0 20 20"><path d="M15.313 6.875a.937.937 0 100-1.875.937.937 0 000 1.875z" fill="currentColor"/><path d="M10.884 13.75H7.5v-3.384l3.769-3.768a3.334 3.334 0 01-.019-.348 3.75 3.75 0 113.402 3.731l-3.768 3.769zM8.75 12.5h1.616l3.857-3.856.323.06a2.531 2.531 0 10-2-1.999l.06.322-3.856 3.857V12.5z" fill="currentColor"/><path d="M17.5 11.25v5H6.25V3.75h2.5V2.5H2.5a1.251 1.251 0 00-1.25 1.25v12.5A1.251 1.251 0 002.5 17.5h15a1.25 1.25 0 001.25-1.25v-5H17.5zm-15-7.5H5v12.5H2.5V3.75z" fill="currentColor"/></symbol><symbol id="endpass-ui-icon-list-view" viewBox="0 0 24 24"><path d="M22 2H10v4h12V2zM22 10H10v4h12v-4zM22 18H10v4h12v-4zM6 2H2v4h4V2zM6 10H2v4h4v-4zM6 18H2v4h4v-4z" stroke="currentColor" stroke-miterlimit="10" stroke-linecap="square"/></symbol><symbol id="endpass-ui-icon-loader" viewBox="0 0 16 16"><path fill-rule="evenodd" clip-rule="evenodd" d="M7.924 0C5.25 0 2.633 1.313 1.094 3.713A7.935 7.935 0 000 6.388l1.519.26c.157-.733.446-1.45.874-2.119a6.536 6.536 0 015.531-3.005 6.57 6.57 0 013.5 1.01c3.045 1.913 3.95 5.922 2.016 8.937a6.536 6.536 0 01-5.531 3.005 6.57 6.57 0 01-3.499-1.01 6.493 6.493 0 01-1.294-1.072l-1.164.999A8.106 8.106 0 007.909 16c2.675 0 5.292-1.313 6.831-3.713 2.392-3.73 1.277-8.672-2.491-11.04A8.106 8.106 0 007.924 0z" fill="currentColor"/></symbol><symbol id="endpass-ui-icon-logout" viewBox="0 0 16 16"><path d="M5.5 7.5h10M11.5 3.5l4 4-4 4M8.5 14.5h-7a1 1 0 01-1-1v-12a1 1 0 011-1h7" stroke="currentColor" stroke-miterlimit="10" stroke-linecap="round" stroke-linejoin="round"/></symbol><symbol id="endpass-ui-icon-mastercard" viewBox="0 0 32 32"><g fill="none" transform="translate(.667 4.667)"><rect width="30.667" height="22.667" fill="#000" rx="2"/><circle cx="12" cy="11.333" r="5.333" fill="#EA001B"/><circle cx="18.623" cy="11.333" r="5.333" fill="#F79E1D"/><path fill="#FF5F01" d="M15.311 7.157a5.323 5.323 0 000 8.352 5.323 5.323 0 000-8.352z"/></g></symbol><symbol id="endpass-ui-icon-media-play-alt" viewBox="0 0 56 56"><path d="M28 0a28 28 0 100 56 28 28 0 000-56zm14.96 29.76l-22 12a2 2 0 01-2 0A2 2 0 0118 40V16a2 2 0 01.98-1.72 2 2 0 012 0l22 12a2 2 0 010 3.52l-.02-.04z" fill="currentColor"/></symbol><symbol id="endpass-ui-icon-media-play" viewBox="0 0 32 32"><path d="M7 28a1 1 0 01-1-1V5a1 1 0 011.501-.865l19 11a1 1 0 010 1.73l-19 11A.998.998 0 017 28z" fill="currentColor"/></symbol><symbol id="endpass-ui-icon-media-recorder" viewBox="0 0 24 24"><path d="M15.75 19.5H3A1.5 1.5 0 011.5 18V6A1.5 1.5 0 013 4.5h12.75a1.5 1.5 0 011.5 1.5v3.045l4.065-2.902a.75.75 0 011.185.607v10.5a.75.75 0 01-1.185.608l-4.065-2.903V18a1.5 1.5 0 01-1.5 1.5z" fill="currentColor"/></symbol><symbol id="endpass-ui-icon-menu-alt" viewBox="0 0 24 20"><path fill-rule="evenodd" clip-rule="evenodd" d="M0 9h24v2H0V9zm0 9h24v2H0v-2zM0 0h24v2H0V0z" fill="currentColor"/></symbol><symbol id="endpass-ui-icon-menu" viewBox="0 0 16 12"><path fill-rule="evenodd" clip-rule="evenodd" d="M15 2H8a1 1 0 010-2h7a1 1 0 010 2zm-7 9.981H1a1 1 0 010-2h7a1 1 0 010 2zm-7-5h14a1 1 0 000-2H1a1 1 0 000 2z" fill="currentColor"/></symbol><symbol id="endpass-ui-icon-money" viewBox="0 0 62 62"><path fill="url(#a)" fill-rule="evenodd" d="M49 32.28c7.133 0 12.721 2.952 12.721 6.72v16c0 3.768-5.588 6.72-12.722 6.72-7.132 0-12.72-2.952-12.72-6.72V39c0-3.768 5.588-6.72 12.72-6.72zm11.28 17.868c-2.105 2.14-6.315 3.572-11.28 3.572-4.965 0-9.177-1.432-11.279-3.572V55c0 2.862 5.164 5.28 11.278 5.28 6.116 0 11.28-2.418 11.28-5.28zM27 .28c13.89 0 25.591 10.834 26.643 24.666l.052.718-1.436.108-.054-.718C51.213 11.97 40.141 1.72 27 1.72 13.061 1.72 1.721 13.06 1.721 27c0 13.94 11.34 25.28 25.278 25.28.654 0 1.304-.026 1.946-.074l.718-.054.11 1.434-.718.056A26.93 26.93 0 0127 53.72C12.265 53.72.28 41.734.28 27 .28 12.266 12.265.28 27 .28zm33.28 41.868c-2.105 2.14-6.315 3.572-11.28 3.572-4.965 0-9.177-1.432-11.279-3.572V47c0 2.862 5.164 5.28 11.278 5.28 6.116 0 11.28-2.418 11.28-5.28zM49 33.72c-6.115 0-11.279 2.418-11.279 5.28S42.885 44.28 49 44.28c6.116 0 11.28-2.418 11.28-5.28S55.115 33.72 49 33.72zM27.72 14.28v13.44H14.28v-1.44h12v-12h1.442z"/></symbol><symbol id="endpass-ui-icon-no-activities" viewBox="0 0 64 64"><path d="M38.5 55.5a6 6 0 11-12 0M52.764 42.5a22.712 22.712 0 01-2.262-9v-12a18 18 0 00-18-18v0a17.95 17.95 0 00-13.416 6M15.518 15.519a17.969 17.969 0 00-1.018 5.98v12c0 8-7 17-7 17h43" stroke="currentColor" stroke-miterlimit="10" stroke-linecap="round" stroke-linejoin="round"/><path d="M4.5 4.5l56 56" stroke="#6E32C9" stroke-miterlimit="10" stroke-linecap="round" stroke-linejoin="round"/></symbol><symbol id="endpass-ui-icon-no-permissons" viewBox="0 0 64 64"><path d="M17.19 47.81A52.12 52.12 0 013.039 34.173a2.9 2.9 0 01-.008-3.353C6.422 26.007 17.294 12.5 32.5 12.5a29.018 29.018 0 0115.31 4.687M52.41 20.5a55.431 55.431 0 019.555 10.311 2.9 2.9 0 01-.008 3.373C58.494 39 47.462 52.5 32.502 52.5a26.869 26.869 0 01-10.033-2" stroke="currentColor" stroke-miterlimit="10" stroke-linecap="round" stroke-linejoin="round"/><path d="M5.5 59.5l54-54M43.821 28.5A12.01 12.01 0 0128.5 43.816M24.021 40.985A12 12 0 0140.99 24.013" stroke="#6E32C9" stroke-miterlimit="10" stroke-linecap="round" stroke-linejoin="round"/></symbol><symbol id="endpass-ui-icon-pdf" viewBox="0 0 48 48"><path d="M44 27H4l-3-4 4-4h38l4 4-3 4z" fill="#A51920"/><path d="M41 47H7a2 2 0 01-2-2V3a2 2 0 012-2h24l12 12v32a2 2 0 01-2 2z" fill="currentColor"/><path d="M31 1v10a2 2 0 002 2h10L31 1z" fill="#B9BFC7"/><path d="M45 41H3a2 2 0 01-2-2V23h46v16a2 2 0 01-2 2z" fill="#DA1E28"/><path d="M20.07 30.645c0 .878-.258 1.556-.775 2.033-.518.479-1.252.717-2.205.717h-.596V36h-2.122v-7.853h2.718c.992 0 1.737.217 2.234.649.498.434.747 1.051.747 1.849zm-3.576 1.021h.387c.319 0 .572-.09.76-.27.188-.179.282-.426.282-.74 0-.53-.293-.795-.881-.795h-.548v1.805zM27.988 31.907c0 1.311-.361 2.32-1.083 3.029-.721.71-1.735 1.064-3.042 1.064h-2.541v-7.853h2.718c1.26 0 2.233.322 2.919.967.686.645 1.029 1.575 1.029 2.793zm-2.202.075c0-.72-.142-1.253-.427-1.601-.284-.348-.717-.521-1.297-.521h-.618v4.398h.473c.645 0 1.117-.188 1.418-.562.301-.374.451-.944.451-1.714zM31.484 36h-2.089v-7.853h4.641v1.702h-2.551v1.499h2.353v1.702h-2.353V36h-.001z" fill="#fff"/></symbol><symbol id="endpass-ui-icon-permission" viewBox="0 0 16 16"><path d="M6 11H1a1 1 0 01-1-1V6a1 1 0 011-1h5a1 1 0 011 1v4a1 1 0 01-1 1zM2 9h3V7H2v2z" fill="#6E32C9"/><path d="M15 5h-4V1H9v14h2v-4h4a1 1 0 001-1V6a1 1 0 00-1-1z" fill="currentColor"/></symbol><symbol id="endpass-ui-icon-png" viewBox="0 0 48 48"><path d="M44 27H4l-3-4 4-4h38l4 4-3 4z" fill="#D12765"/><path d="M41 47H7a2 2 0 01-2-2V3a2 2 0 012-2h24l12 12v32a2 2 0 01-2 2z" fill="currentColor"/><path d="M31 1v10a2 2 0 002 2h10L31 1z" fill="#B9BFC7"/><path d="M45 41H3a2 2 0 01-2-2V23h46v16a2 2 0 01-2 2z" fill="#EE538B"/><path d="M18.414 30.645c0 .878-.259 1.556-.775 2.033-.518.479-1.253.717-2.205.717h-.597V36h-2.122v-7.853h2.719c.991 0 1.736.217 2.234.649.497.434.746 1.051.746 1.849zm-3.577 1.021h.387c.319 0 .571-.09.761-.27.188-.179.281-.426.281-.74 0-.53-.293-.795-.881-.795h-.548v1.805zM27.143 36H24.36l-2.867-5.532h-.049c.068.87.102 1.534.102 1.993V36h-1.879v-7.853h2.771l2.857 5.457h.031a31.554 31.554 0 01-.074-1.907v-3.55h1.891V36zM31.992 31.402h3.39v4.232c-.92.315-1.933.473-3.035.473-1.21 0-2.146-.35-2.806-1.053-.662-.702-.992-1.703-.992-3.002 0-1.268.362-2.255 1.086-2.96.723-.705 1.736-1.058 3.04-1.058.493 0 .96.046 1.4.14.437.093.82.211 1.145.354l-.672 1.664a4.158 4.158 0 00-1.863-.418c-.62 0-1.1.201-1.438.604-.338.403-.508.98-.508 1.727 0 .734.154 1.294.46 1.68.306.384.747.576 1.323.576.315 0 .605-.03.871-.09v-1.23h-1.402v-1.639h.001z" fill="#fff"/></symbol><symbol id="endpass-ui-icon-profile" viewBox="0 0 16 17"><path d="M8 10.25A2.625 2.625 0 108 5a2.625 2.625 0 000 5.25z" fill="#6F28CC"/><path d="M8 1.5c-3.85 0-7 3.15-7 7s3.15 7 7 7 7-3.15 7-7-3.15-7-7-7zm3.5 10.85c-.525-.612-1.225-1.225-2.625-1.225h-1.75c-1.4 0-2.1.613-2.625 1.225-1.05-.963-1.75-2.275-1.75-3.85 0-2.888 2.362-5.25 5.25-5.25 2.887 0 5.25 2.362 5.25 5.25 0 1.575-.7 2.887-1.75 3.85z" fill="currentColor"/></symbol><symbol id="endpass-ui-icon-question" viewBox="0 0 32 32"><path d="M11.5 19.5a3 3 0 100-6 3 3 0 000 6zM17.5 28.5v-2.983a2 2 0 00-.983-1.725A9.8 9.8 0 0011.5 22.5a9.716 9.716 0 00-5.026 1.288 2 2 0 00-.974 1.719V28.5" stroke="currentColor" stroke-miterlimit="10" stroke-linecap="round" stroke-linejoin="round"/><path d="M13.5 7.5h-12v21h27v-12" stroke="currentColor" stroke-miterlimit="10" stroke-linecap="round" stroke-linejoin="round"/><path d="M17.5 4.5v5a3 3 0 003 3v3l5-3h3a3 3 0 003-3v-5a3 3 0 00-3-3h-8a3 3 0 00-3 3v0z" stroke="#6E32C9" stroke-miterlimit="10" stroke-linecap="round" stroke-linejoin="round"/></symbol><symbol id="endpass-ui-icon-review" viewBox="0 0 16 16"><path d="M6.3 11.7l-2-2c-.4-.4-.4-1 0-1.4.4-.4 1-.4 1.4 0L7 9.6l3.3-3.3c.4-.4 1-.4 1.4 0 .4.4.4 1 0 1.4l-4 4c-.4.4-.9.5-1.4 0z" fill="#054ADA"/><path d="M15 1h-3v2h2v11H2V3h2V1H1c-.6 0-1 .4-1 1v13c0 .6.4 1 1 1h14c.6 0 1-.4 1-1V2c0-.6-.4-1-1-1z" fill="currentColor"/><path d="M11 0H5v4h6V0z" fill="#054ADA"/></symbol><symbol id="endpass-ui-icon-risk-admin" viewBox="0 0 32 32"><path d="M25 10l1.593 3 3.407.414-2.5 2.253L28 19l-3-1.875L22 19l.5-3.333-2.5-2.253L23.5 13l1.5-3zM22 30h-2v-5a5.006 5.006 0 00-5-5H9a5.006 5.006 0 00-5 5v5H2v-5a7.008 7.008 0 017-7h6a7.008 7.008 0 017 7v5zM12 4a5 5 0 110 10 5 5 0 010-10zm0-2a7 7 0 100 14 7 7 0 000-14z" fill="currentColor"/></symbol><symbol id="endpass-ui-icon-risk-device-changes" viewBox="0 0 32 32"><path d="M10 30H4a2 2 0 01-2-2V16a2 2 0 012-2h6a2 2 0 012 2v12a2 2 0 01-2 2zM4 16v12h6V16H4z" fill="currentColor"/><path d="M28 4H6a2 2 0 00-2 2v6h2V6h22v14H14v2h2v4h-2v2h9v-2h-5v-4h10a2 2 0 002-2V6a2 2 0 00-2-2z" fill="currentColor"/></symbol><symbol id="endpass-ui-icon-risk-global" viewBox="0 0 32 32"><path d="M14 20a6 6 0 110-12 6 6 0 010 12zm0-10a4 4 0 100 8 4 4 0 000-8z" fill="currentColor"/><path d="M14 16a2 2 0 100-4 2 2 0 000 4z" fill="currentColor"/><path d="M17 23.54A10 10 0 1124 14c0 .34 0 .67-.05 1h2c0-.33.05-.66.05-1a12 12 0 10-12 12 12.33 12.33 0 003-.39v-2.07z" fill="currentColor"/><path d="M25 30l-2.14-1A5 5 0 0120 24.47V18h10v6.47A5 5 0 0127.14 29L25 30zm-3-10v4.47a3 3 0 001.72 2.71l1.28.61 1.28-.61A3 3 0 0028 24.47V20h-6z" fill="currentColor"/></symbol><symbol id="endpass-ui-icon-risk-id-documents" viewBox="0 0 32 32"><path d="M28 6v20H4V6h24zm0-2H4a2 2 0 00-2 2v20a2 2 0 002 2h24a2 2 0 002-2V6a2 2 0 00-2-2z" fill="currentColor"/><path d="M6 10h7v2H6v-2zM6 14h4v2H6v-2zM23 18h-6a3 3 0 00-3 3v2h2v-2a1 1 0 011-1h6a1 1 0 011 1v2h2v-2a3 3 0 00-3-3zM20 17a4 4 0 100-8 4 4 0 000 8zm0-6a2 2 0 110 4 2 2 0 010-4z" fill="currentColor"/></symbol><symbol id="endpass-ui-icon-risk-ip-data" viewBox="0 0 32 32"><path d="M14 16a2 2 0 100-4 2 2 0 000 4z" fill="currentColor"/><path d="M14 2a12 12 0 100 24v-2a10 10 0 1110-10c.02.333.02.667 0 1h2c0-.33.05-.66.05-1A12 12 0 0014 2z" fill="currentColor"/><path d="M17 24h9.17l-2.59 2.59L25 28l5-5-5-5-1.42 1.42L26.17 22H17v2zM14 20a6 6 0 110-12 6 6 0 010 12zm0-10a4 4 0 100 8 4 4 0 000-8z" fill="currentColor"/></symbol><symbol id="endpass-ui-icon-risk-login-activity" viewBox="0 0 32 32"><path d="M28.07 21L22 15l6.07-6 1.43 1.41L24.86 15l4.64 4.59L28.07 21zM22 30h-2v-5a5 5 0 00-5-5H9a5 5 0 00-5 5v5H2v-5a7 7 0 017-7h6a7 7 0 017 7v5zM12 4a5 5 0 110 10 5 5 0 010-10zm0-2a7 7 0 100 14 7 7 0 000-14z" fill="currentColor"/></symbol><symbol id="endpass-ui-icon-risk-mobile-device" viewBox="0 0 32 32"><path d="M20 27.18l-2.59-2.59L16 26l4 4 8-8-1.41-1.41L20 27.18z" fill="currentColor"/><path d="M10 28V10h12v9h2V6a2.002 2.002 0 00-2-2H10a2.002 2.002 0 00-2 2v22a2.002 2.002 0 002 2h4v-2h-4zm0-22h12v2H10V6z" fill="currentColor"/></symbol><symbol id="endpass-ui-icon-risk-phone" viewBox="0 0 32 32"><path d="M26 29h-.17C6.18 27.87 3.39 11.29 3 6.23A3 3 0 015.76 3h5.51a2 2 0 011.86 1.26L14.65 8a2 2 0 01-.44 2.16l-2.13 2.15a9.37 9.37 0 007.58 7.6l2.17-2.15a2 2 0 012.17-.41l3.77 1.51A2 2 0 0129 20.72V26a3 3 0 01-3 3zM6 5a1 1 0 00-1 1v.08C5.46 12 8.41 26 25.94 27a1 1 0 001.06-.94v-5.34l-3.77-1.51-2.87 2.85-.48-.06c-8.7-1.09-9.88-9.79-9.88-9.88l-.06-.48 2.84-2.87L11.28 5H6z" fill="currentColor"/></symbol><symbol id="endpass-ui-icon-risk-timezone" viewBox="0 0 32 32"><path d="M30 16a14.031 14.031 0 10-7.14 12.191l.117.026.024-.111A13.998 13.998 0 0030 16zM4 16c.004-1.013.137-2.02.395-3h4.243l4.992 4.16-1.91 2.546a2.01 2.01 0 00.186 2.614L14 24.414v3.405A12.01 12.01 0 014 16zm9.32 4.906l3.05-4.066L9.362 11H5.106a11.962 11.962 0 0117.778-4.814L22.279 8h-5.693l-3.043 3.043 9.354 8.313-1.649 7.419A11.902 11.902 0 0116 28v-4.414l-2.68-2.68zm10.315 4.344l1.213-5.46a2.001 2.001 0 00-.623-1.927l-7.768-6.906.957-.957h4.865a1.998 1.998 0 001.898-1.368l.353-1.06a11.978 11.978 0 01-.895 17.678z" fill="currentColor"/></symbol><symbol id="endpass-ui-icon-search" viewBox="0 0 18 18"><path d="M17.75 16.87l-4.718-4.745a6.875 6.875 0 10-.907.907l4.744 4.718.881-.88zM2.125 7.75a5.625 5.625 0 1111.25 0 5.625 5.625 0 01-11.25 0z" fill="currentColor"/></symbol><symbol id="endpass-ui-icon-tiff" viewBox="0 0 48 48"><path d="M44 27H4l-3-4 4-4h38l4 4-3 4z" fill="#198038"/><path d="M41 47H7a2 2 0 01-2-2V3a2 2 0 012-2h24l12 12v32a2 2 0 01-2 2z" fill="currentColor"/><path d="M31 1v10a2 2 0 002 2h10L31 1z" fill="#B9BFC7"/><path d="M45 41H3a2 2 0 01-2-2V23h46v16a2 2 0 01-2 2z" fill="#3DBB61"/><path d="M17.219 36h-2.122v-6.117H13.18v-1.735h5.95v1.735H17.22V36zM20.254 36v-7.853h2.132V36h-2.132zM26.173 36h-2.089v-7.853h4.641v1.702h-2.551v1.499h2.353v1.702h-2.353V36h-.001zM32.103 36h-2.09v-7.853h4.642v1.702h-2.551v1.499h2.353v1.702h-2.353V36h-.001z" fill="#fff"/></symbol><symbol id="endpass-ui-icon-trash" viewBox="0 0 16 16"><path d="M2.5 6.5v7a2 2 0 002 2h8a2 2 0 002-2v-7M1.5 3.5h14M6.5 3.5v-3h4v3M8.5 7.5v5M11.5 7.5v5M5.5 7.5v5" stroke="currentColor" stroke-miterlimit="10" stroke-linecap="round" stroke-linejoin="round"/></symbol><symbol id="endpass-ui-icon-user-add" viewBox="0 0 61 61"><path d="M30.5 32.5c-7.732 0-14-6.268-14-14v-4c0-7.732 6.268-14 14-14s14 6.268 14 14v4c0 7.732-6.268 14-14 14zM34.5 42.5h-16c-9.941 0-18 8.059-18 18h58" stroke="currentColor" stroke-miterlimit="10" stroke-linecap="square"/><path d="M52.5 34.5v16M44.5 42.5h16" stroke="#6E32C9" stroke-miterlimit="10" stroke-linecap="square"/></symbol><symbol id="endpass-ui-icon-users" viewBox="0 0 16 16"><g clip-path="url(#clip0)"><path d="M10.2 11.4l-2.7-2C8.4 8.7 9 7.7 9 6.5v-.8C9 3.8 7.6 2.1 5.7 2 3.7 1.9 2 3.5 2 5.5v1c0 1.2.6 2.2 1.5 2.9L.8 11.5c-.5.4-.8 1-.8 1.6V15c0 .6.4 1 1 1h9c.6 0 1-.4 1-1v-2c0-.6-.3-1.2-.8-1.6z" fill="currentColor"/><path d="M15.1 6.4l-1.8-1.2c.4-.4.7-1 .7-1.7v-.9c0-1.2-.9-2.4-2.1-2.6-1.2-.2-2.2.5-2.7 1.4 1.1 1 1.8 2.4 1.8 4v1c0 .9-.2 1.8-.6 2.5 0 0 1.2.9 1.2 1H15c.6 0 1-.4 1-1v-.8c0-.7-.3-1.3-.9-1.7z" fill="#054ADA"/></g></symbol><symbol id="endpass-ui-icon-visa" viewBox="0 0 32 32"><g fill="none" transform="translate(.667 4.667)"><rect width="30.667" height="22.667" fill="#1A1F71" rx="2"/><path fill="#FFF" d="M12.159 14.533h1.739l1.089-6.384h-1.74zm6.336-3.82c-.608-.296-.98-.493-.976-.792 0-.266.315-.549 1-.549a3.142 3.142 0 011.458.318l.236-1.383a4.51 4.51 0 00-1.56-.267c-1.72 0-2.934.867-2.941 2.107-.01.917.867 1.429 1.525 1.733.677.313.905.512.902.791-.005.428-.541.624-1.042.624a3.81 3.81 0 01-1.862-.436l-.244 1.428c.62.23 1.277.345 1.938.341 1.83 0 3.017-.856 3.03-2.18.004-.727-.46-1.28-1.464-1.735zm6.176-2.558h-1.344a.867.867 0 00-.912.53l-2.584 5.848h1.828s.298-.786.366-.959h2.228c.052.224.212.957.212.957h1.615l-1.409-6.376zm-2.145 4.116c.072-.185.782-2.008.924-2.394.235 1.1.006.032.52 2.394h-1.444zM10.7 8.154l-1.705 4.353-.181-.884-.61-2.934a.729.729 0 00-.79-.539H4.61l-.022.133a7.31 7.31 0 011.828.701l1.546 5.545h1.842l2.739-6.372-1.843-.003z"/></g></symbol></svg>