<svg xmlns="http://www.w3.org/2000/svg" xmlns:xlink="http://www.w3.org/1999/xlink"><symbol id="endpass-ui-icon-action" viewBox="0 0 32 32"><path d="M24 0l8 8-8 8-1.88-1.88 4.773-4.787H0V6.666h26.893L22.12 1.879zM5.107 25.333L9.88 30.12 8 32l-8-8 8-8 1.88 1.88-4.773 4.787H32v2.667z"/></symbol><symbol id="endpass-ui-icon-arrow-left" viewBox="0 0 23 17"><path d="M21.5 8.5h-20M8.5 15.5l-7-7 7-7" stroke="currentColor" stroke-width="1.5" stroke-miterlimit="10" stroke-linecap="round" stroke-linejoin="round"/></symbol><symbol id="endpass-ui-icon-check" viewBox="0 0 10 8"><path fill-rule="evenodd" clip-rule="evenodd" d="M3.75 7.438l-3.125-3.1.994-.982L3.75 5.47 8.381.875l.994.988L3.75 7.438z" fill="currentColor"/></symbol><symbol id="endpass-ui-icon-chevron-down" viewBox="0 0 16 16"><path fill-rule="evenodd" clip-rule="evenodd" d="M8 11L3 6l.707-.707L8 9.586l4.293-4.293L13 6l-5 5z" fill="currentColor"/><path fill-rule="evenodd" clip-rule="evenodd" d="M8 11L3 6l.707-.707L8 9.586l4.293-4.293L13 6l-5 5z" fill="currentColor"/></symbol><symbol id="endpass-ui-icon-chevron-up" viewBox="0 0 16 16"><path fill-rule="evenodd" clip-rule="evenodd" d="M8 5l5 5-.707.707L8 6.414l-4.293 4.293L3 10l5-5z" fill="currentColor"/><path fill-rule="evenodd" clip-rule="evenodd" d="M8 5l5 5-.707.707L8 6.414l-4.293 4.293L3 10l5-5z" fill="currentColor"/></symbol><symbol id="endpass-ui-icon-close" viewBox="0 0 17 17"><path d="M15.5 1.5l-14 14M15.5 15.5l-14-14" stroke="currentColor" stroke-width="1.5" stroke-miterlimit="10" stroke-linecap="round" stroke-linejoin="round"/></symbol><symbol id="endpass-ui-icon-eye" viewBox="0 0 8 8"><path d="M4.03 1C1.5 1 0 4 0 4s1.5 3 4.03 3C6.5 7 8 4 8 4S6.5 1 4.03 1zM4 2a2 2 0 012 2c0 1.11-.89 2-2 2a2 2 0 110-4zm0 1c-.55 0-1 .45-1 1s.45 1 1 1 1-.45 1-1c0-.1-.04-.19-.06-.28a.495.495 0 11-.66-.66A.875.875 0 004 3z" fill="currentColor"/></symbol><symbol id="endpass-ui-icon-github" viewBox="0 0 32 32"><path d="M15.999.396C7.164.396 0 7.559 0 16.397c0 7.068 4.584 13.065 10.943 15.181.8.147 1.092-.347 1.092-.771 0-.38-.014-1.386-.022-2.721-4.451.967-5.39-2.145-5.39-2.145-.728-1.848-1.776-2.34-1.776-2.34-1.453-.993.11-.973.11-.973 1.606.113 2.451 1.649 2.451 1.649 1.427 2.445 3.745 1.739 4.656 1.329.145-1.034.559-1.739 1.016-2.139-3.553-.404-7.288-1.776-7.288-7.908 0-1.747.623-3.175 1.647-4.293-.165-.405-.714-2.032.157-4.234 0 0 1.343-.43 4.4 1.64a15.355 15.355 0 014.006-.539c1.359.006 2.728.184 4.006.539 3.055-2.07 4.396-1.64 4.396-1.64.873 2.203.324 3.83.159 4.234 1.025 1.118 1.645 2.547 1.645 4.293 0 6.147-3.741 7.499-7.305 7.895.575.494 1.086 1.47 1.086 2.963 0 2.139-.02 3.865-.02 4.389 0 .428.288.926 1.1.769 6.352-2.12 10.932-8.113 10.932-15.18C32.001 7.557 24.837.394 16 .394z"/></symbol><symbol id="endpass-ui-icon-google" viewBox="0 0 30 32"><path fill="var(--color1, #d94f3d)" d="M16 7.333a8.622 8.622 0 015.564 2.031l4.36-4.152a14.655 14.655 0 00-12.602-3.634A14.642 14.642 0 002.862 9.49l4.915 3.789A8.68 8.68 0 0116 7.333z"/><path fill="var(--color2, #f2c042)" d="M7.333 16a8.622 8.622 0 01.444-2.721L2.862 9.49a14.615 14.615 0 000 13.018l4.915-3.789a8.617 8.617 0 01-.444-2.721z"/><path fill="var(--color3, #5085ed)" d="M30.067 13.333h-14v6H24a7.15 7.15 0 01-3.037 4.108l4.877 3.76c3.117-2.797 4.948-7.346 4.226-13.868z"/><path fill="var(--color4, #57a75c)" d="M20.961 23.44A9.315 9.315 0 0116 24.665a8.68 8.68 0 01-8.223-5.946l-4.915 3.789A14.678 14.678 0 0016 30.666a14.575 14.575 0 009.839-3.467l-4.877-3.759z"/></symbol><symbol id="endpass-ui-icon-menu" viewBox="0 0 16 12"><path fill-rule="evenodd" clip-rule="evenodd" d="M15 2H8a1 1 0 010-2h7a1 1 0 010 2zm-7 9.981H1a1 1 0 010-2h7a1 1 0 010 2zm-7-5h14a1 1 0 000-2H1a1 1 0 000 2z" fill="currentColor"/></symbol></svg>